<svg xmlns="http://www.w3.org/2000/svg" viewBox="0 0 36 36"><defs><style>.cls-1{fill:none;}.cls-2{fill:#27353d;}</style></defs><g id="Laag_2" data-name="Laag 2"><g id="vector"><path id="path" class="cls-1" d="M27,18H22c0,.26,0,5.71-3.34,8.85A6,6,0,0,0,20,27C25.67,27,26.75,20.54,27,18Z"/><path id="path_1" data-name="path 1" class="cls-1" d="M20,29a7.81,7.81,0,0,1-3.9-1L16,28c-4-2.3-4.83-8-5-10H9V33.57a17.89,17.89,0,0,0,22-3.15V18H29C28.69,22.29,26.58,29,20,29Z"/><path id="path_2" data-name="path 2" class="cls-1" d="M4,29.29a18.08,18.08,0,0,0,3,2.93V18H4Z"/><path id="path_3" data-name="path 3" class="cls-1" d="M21.51,3.91a1.55,1.55,0,0,0,0,3.09h7.57a1.91,1.91,0,0,0,1.86-1.48A17.93,17.93,0,0,0,24.1,1.09,2.35,2.35,0,0,0,22.85,3a1,1,0,0,1-.38.72,1,1,0,0,1-.8.2Z"/><path id="path_5" data-name="path 5" class="cls-1" d="M36,18A17.89,17.89,0,0,0,32.36,7.19,3.87,3.87,0,0,1,29.08,9H21.51A3.55,3.55,0,0,1,21,2a4.24,4.24,0,0,1,.8-1.53A18,18,0,0,0,2,26.21V18a2,2,0,0,1,2-2h7.05a2,2,0,0,1,2,1.83c.16,2.08.82,6.21,3.53,8.13,3.36-2.32,3.42-7.9,3.42-8a2,2,0,0,1,2-2h9a2,2,0,0,1,2,2v9.93A17.91,17.91,0,0,0,36,18Z"/><path id="path_6" data-name="path 6" class="cls-2" d="M27,18H22c0,.26,0,5.71-3.34,8.85A6,6,0,0,0,20,27C25.67,27,26.75,20.54,27,18Z"/><path id="path_7" data-name="path 7" class="cls-2" d="M20,29a7.81,7.81,0,0,1-3.9-1L16,28c-4-2.3-4.83-8-5-10H9V33.57a17.89,17.89,0,0,0,22-3.15V18H29C28.69,22.29,26.58,29,20,29Z"/><path id="path_8" data-name="path 8" class="cls-2" d="M4,29.29a18.08,18.08,0,0,0,3,2.93V18H4Z"/><path id="path_9" data-name="path 9" class="cls-2" d="M21.51,3.91a1.55,1.55,0,0,0,0,3.09h7.57a1.91,1.91,0,0,0,1.86-1.48A17.93,17.93,0,0,0,24.1,1.09,2.35,2.35,0,0,0,22.85,3a1,1,0,0,1-.38.72,1,1,0,0,1-.8.2Z"/><path id="path_11" data-name="path 11" class="cls-2" d="M36,18A17.89,17.89,0,0,0,32.36,7.19,3.87,3.87,0,0,1,29.08,9H21.51A3.55,3.55,0,0,1,21,2a4.24,4.24,0,0,1,.8-1.53A18,18,0,0,0,2,26.21V18a2,2,0,0,1,2-2h7.05a2,2,0,0,1,2,1.83c.16,2.08.82,6.21,3.53,8.13,3.36-2.32,3.42-7.9,3.42-8a2,2,0,0,1,2-2h9a2,2,0,0,1,2,2v9.93A17.91,17.91,0,0,0,36,18Z"/></g></g></svg>