<svg
    xmlns="http://www.w3.org/2000/svg"
    viewBox="0 0 512 512"
    id="vector">
    <path
        id="path"
        d="M 256 256 M 0 256 C 0 188.131 26.99 122.972 74.981 74.981 C 122.972 26.99 188.131 0 256 0 C 323.869 0 389.028 26.99 437.019 74.981 C 485.01 122.972 512 188.131 512 256 C 512 323.869 485.01 389.028 437.019 437.019 C 389.028 485.01 323.869 512 256 512 C 188.131 512 122.972 485.01 74.981 437.019 C 26.99 389.028 0 323.869 0 256"
        fill="#80e29d"/>
    <path
        id="path_1"
        d="M 258.159 342.399 L 224.708 312.73 L 188.277 363.107 L 327.153 501.97 C 413.238 477.111 480.665 408.291 503.559 321.39 L 327.01 144.843 L 165.46 189.314 L 236.387 260.088 L 232.762 276.223 L 288.476 330.103 C 288.476 330.102 269.333 344.465 258.159 342.399 Z"
        fill="#4daf6e"/>
    <path
        id="path_2"
        d="M 327.01 144.843 C 310.967 126.964 284.172 116.29 255.333 116.29 C 249.489 116.29 243.627 116.827 237.911 117.886 L 236.15 118.211 C 218.602 121.453 202.705 129.519 190.175 141.535 C 177.898 153.317 169.696 168.115 166.455 184.328 L 165.459 189.313 L 224.706 193.796 L 225.911 190.682 C 229.345 181.812 237.623 175.165 247.514 173.336 L 249.275 173.011 C 260.449 170.947 271.924 174.716 279.228 182.856 C 288.913 193.645 287.946 210.978 277.115 220.707 C 271.869 225.421 246.045 230.864 237.455 230.506 L 232.762 230.305 L 232.762 276.223 L 237.455 276.022 C 246.102 275.659 271.871 281.108 277.116 285.821 C 287.946 295.55 288.913 312.883 279.227 323.673 C 271.924 331.812 260.448 335.582 249.274 333.517 L 247.515 333.192 C 237.623 331.363 229.345 324.716 225.911 315.846 L 224.706 312.732 L 165.459 317.215 L 166.455 322.2 C 169.695 338.413 177.897 353.211 190.176 364.994 C 202.704 377.01 218.602 385.075 236.15 388.317 L 237.909 388.642 C 243.627 389.701 249.489 390.238 255.333 390.238 C 284.172 390.238 310.967 379.564 327.009 361.686 C 354.041 331.564 352.767 284.733 324.702 253.264 C 352.767 221.795 354.042 174.964 327.01 144.843 Z"
        fill="#f8fffb"/>
    <path
        id="path_3"
        d="M 324.7 253.26 C 352.77 284.73 354.04 331.56 327.01 361.69 C 311.09 379.42 284.59 390.07 256 390.23 L 256 334.06 C 264.88 333.89 273.4 330.18 279.23 323.67 C 288.91 312.88 287.95 295.55 277.12 285.82 C 274.22 283.22 265.07 280.39 256 278.44 L 256 228.08 C 265.07 226.13 274.22 223.31 277.12 220.71 C 287.95 210.98 288.91 193.65 279.23 182.86 C 273.4 176.35 264.88 172.64 256 172.47 L 256 116.3 C 284.59 116.46 311.09 127.1 327.01 144.84 C 354.04 174.96 352.77 221.79 324.7 253.26 Z"
        fill="#d8d8d8"/>
</svg>
