<svg
    xmlns="http://www.w3.org/2000/svg"
    viewBox="0 0 512 512"
    id="vector">
    <path
        id="path"
        d="M 256 256 M 0 256 C 0 188.131 26.99 122.972 74.981 74.981 C 122.972 26.99 188.131 0 256 0 C 323.869 0 389.028 26.99 437.019 74.981 C 485.01 122.972 512 188.131 512 256 C 512 323.869 485.01 389.028 437.019 437.019 C 389.028 485.01 323.869 512 256 512 C 188.131 512 122.972 485.01 74.981 437.019 C 26.99 389.028 0 323.869 0 256"
        fill="#80e29d"/>
    <path
        id="path_1"
        d="M 283.589 510.517 C 393.624 498.724 482.784 417.22 506.049 311.036 L 340.982 145.968 C 340.982 145.968 205.936 142.236 157.156 222.466 L 229.039 294.531 L 165.028 392.7 Z"
        fill="#4daf6e"/>
    <path
        id="path_2"
        d="M 362.478 392.7 L 165.028 392.7 L 165.028 326.051 L 291.836 230.048 C 307.916 217.874 304.041 200.899 302.471 195.986 C 300.958 191.254 294.518 175.766 275.165 175.201 C 274.734 175.189 273.975 175.182 273.671 175.18 L 251.249 175.18 C 218.22 175.18 215.654 211.373 215.654 222.466 L 157.157 222.466 C 157.157 160.182 195.849 116.683 251.249 116.683 L 274.002 116.684 C 274.002 116.684 275.914 116.701 276.866 116.728 C 314.692 117.833 346.611 141.952 358.191 178.173 C 369.919 214.861 357.733 253.529 327.146 276.686 L 251.174 334.203 L 362.479 334.203 L 362.479 392.7 Z"
        fill="#f8fffb"/>
    <path
        id="path_3"
        d="M 327.144 276.684 L 259.873 327.617 L 259.873 254.244 L 291.834 230.048 C 307.911 217.875 304.038 200.9 302.474 195.989 C 300.961 191.249 294.516 175.767 275.162 175.203 C 274.728 175.193 273.972 175.183 273.669 175.183 L 259.872 175.183 L 259.872 116.686 L 274.002 116.686 C 274.002 116.686 275.908 116.706 276.866 116.726 C 314.687 117.835 346.608 141.95 358.187 178.178 C 369.917 214.859 357.734 253.528 327.144 276.684 Z"
        fill="#d8d8d8"/>
    <path
        id="path_4"
        d="M 259.873 334.203 L 362.475 334.203 L 362.475 392.7 L 259.873 392.7 Z"
        fill="#d8d8d8"/>
</svg>
