<svg xmlns="http://www.w3.org/2000/svg" viewBox="0 0 116.85 116.85"><defs><style>.cls-1,.cls-3,.cls-4{fill:#1d1d1b;}.cls-2{fill:#fff;}.cls-3,.cls-4{stroke:#1d1d1b;stroke-miterlimit:10;}.cls-3{stroke-width:2px;}</style></defs><g id="Laag_2" data-name="Laag 2"><g id="Laag_1-2" data-name="Laag 1"><rect class="cls-1" width="116.85" height="116.85" rx="11.23"/><path class="cls-2" d="M12,38.74V26.21a3.93,3.93,0,0,1,2.11-3.83,46.07,46.07,0,0,1,13.13-5.3,15.15,15.15,0,0,1,8.81.51A12.83,12.83,0,0,1,40,20c2.47,2.21,3.16,5.09,2.6,8.34a14.47,14.47,0,0,1-5.18,8.88c-3.46,2.86-7.1,5.48-10.65,8.23-1.34,1-2.63,2.14-4,3.17-1.2.92-2.45,1.78-3.68,2.67l-3.6,2.61a8.51,8.51,0,0,1-1,.66,1.4,1.4,0,0,1-2.28-1.08A32,32,0,0,1,11.85,49c-.06-3.41,0-6.82,0-10.22Zm5.43-11.32c0,.39-.08.61-.08.82q0,7,0,14a12.52,12.52,0,0,0,.15,1.35c.47-.31.79-.49,1.09-.71C22.6,39.89,26.7,37,30.76,34a21.34,21.34,0,0,0,2.43-2.23,6,6,0,0,0,1.43-2.52c.78-2.73-.46-6.16-4-6.36a8.34,8.34,0,0,0-3.26.35c-2.79,1-5.52,2.1-8.27,3.21A13.51,13.51,0,0,0,17.38,27.42Z"/><path class="cls-2" d="M78.08,16.67c2.67-.43,5.35-1,8.06-.43a17.3,17.3,0,0,1,10.63,6.17c4.31,5.46,2.61,12.26-3.13,16a3.2,3.2,0,0,1-4.7-.71,21.84,21.84,0,0,1-1.35-1.85,18.81,18.81,0,0,0-10.9-7.61c-1.06-.3-2.11-.6-3.14-1A5.34,5.34,0,0,1,71,25.33a4.34,4.34,0,0,1,.84-5.91,12.22,12.22,0,0,1,5.12-2.51C77.31,16.82,77.7,16.75,78.08,16.67ZM91.92,35a5,5,0,0,0,3.32-4.5A7,7,0,0,0,92.51,24c-3.5-2.66-7.3-4.63-12-4.19a8.91,8.91,0,0,0-5.15,2l.14,1.68c1.3,1.06,2.8,1.15,4.21,1.46a13.08,13.08,0,0,1,5.9,2.92A20.64,20.64,0,0,1,89,31.85c.53.78,1.06,1.55,1.62,2.3A1.53,1.53,0,0,0,91.92,35Z"/><path class="cls-2" d="M100.14,102.53a1.7,1.7,0,0,1-1.57-1.31,15,15,0,0,1-.66-3.1c-.22-3.22-.27-6.44-.49-9.66A57.22,57.22,0,0,1,97.63,79c0-.4,0-.8,0-1.35-.41.21-.75.4-1.1.56-1,.46-2.07.91-3.11,1.34a2.14,2.14,0,0,1-.87.12,1.5,1.5,0,0,1-1.49-2,4.27,4.27,0,0,1,.62-1.15,13.89,13.89,0,0,1,2.92-3c1.41-1.06,2.7-2.26,4.1-3.33,1-.72,2-1.33,3-2a4.06,4.06,0,0,1,.89-.43,1.94,1.94,0,0,1,2.76,1.47,7.82,7.82,0,0,1-.19,4,18.66,18.66,0,0,1-1.35,3.46,8.19,8.19,0,0,0-.92,3.69c0,3.92.06,7.85-.05,11.77-.06,2.26-.35,4.52-.62,6.78a10.7,10.7,0,0,1-.68,2.31A1.69,1.69,0,0,1,100.14,102.53Z"/><path class="cls-2" d="M101,46.59c-.5.8-1,1.43-1.31,2.1C98,52,96.35,55.26,94.59,58.51c-1,1.92-2.24,3.79-3.45,5.65-1.07,1.63-2.21,3.24-3.4,4.82-.67.89-1.47,1.7-2.23,2.54a2.71,2.71,0,0,1-.65.49,2.28,2.28,0,0,1-2.37.33,1.74,1.74,0,0,1-.81-2.15,9.08,9.08,0,0,1,2.06-3.6c1.46-1.72,3-3.39,4.41-5.14a49.34,49.34,0,0,0,7.36-12.62c.63-1.57,1.3-3.13,2-4.69a5.57,5.57,0,0,1,.79-1.32,2.36,2.36,0,0,1,2.59-.72,5.26,5.26,0,0,1,3.27,2c3.93,5.39,3,12-1.64,16.64a14.14,14.14,0,0,1-3.9,2.37,1.51,1.51,0,0,1-.46.13,2.17,2.17,0,0,1-2-.38A1.46,1.46,0,0,1,95.9,61a10.7,10.7,0,0,1,1.35-1.76c1.09-1.16,2.24-2.27,3.35-3.42a2.58,2.58,0,0,0,.53-.71,12.37,12.37,0,0,0,1.41-5A4.75,4.75,0,0,0,101,46.59Z"/><path class="cls-2" d="M67.9,102.65c-1.48,0-2.06-.41-2.1-1.66-.09-3-.2-6-.25-9a19.3,19.3,0,0,1,.85-6.21,13.63,13.63,0,0,1,1.06-2.46,6.79,6.79,0,0,1,3.91-3c2.55-.94,6,1.14,6,4a5.34,5.34,0,0,1-1.35,3.56A13.23,13.23,0,0,1,70,91.69c-.07,1.59-.14,3.25-.22,4.91-.07,1.21-.11,2.42-.27,3.62A2.91,2.91,0,0,1,67.9,102.65Zm4.87-20a4.58,4.58,0,0,0-2.35,5.21,20.25,20.25,0,0,0,1.89-1.53,6.59,6.59,0,0,0,1.21-1.73C73.92,83.77,73.67,83.26,72.77,82.66Z"/><path class="cls-2" d="M55.75,97.68c-.73.06-1.45.16-2.18.16a13.94,13.94,0,0,1-3-.14,2.26,2.26,0,0,1-1.48-3.38A7.4,7.4,0,0,1,52,91.26c1-.63,2.11-1.19,3.17-1.76a5.38,5.38,0,0,1,2.74-.67,1.45,1.45,0,0,1,.52,2.86c-.57.23-1.19.33-1.78.53-1.18.39-2.36.78-3.51,1.24-.78.32-.88.5-1.24,1.44,1-.13,1.85-.24,2.73-.38a6.83,6.83,0,0,1,3,.13,2.64,2.64,0,0,1,1.56,4.23,5.32,5.32,0,0,1-2.27,1.85A18.38,18.38,0,0,1,51,102.32c-1.63.2-3.28.26-4.91.5a13.19,13.19,0,0,1-3.25.38,3.82,3.82,0,0,1-1.07-.19,1.15,1.15,0,0,1-.41-2,3.6,3.6,0,0,1,1.52-.83c1.1-.25,2.23-.35,3.35-.51.43-.06.87-.1,1.3-.17,1.84-.29,3.68-.7,5.53-.82a5.29,5.29,0,0,0,2.71-.81Z"/><path class="cls-2" d="M59.34,21.39l2.55,2.78a6.06,6.06,0,0,1,.47.54,1.58,1.58,0,0,1,0,2,1.35,1.35,0,0,1-1.9.23,16.4,16.4,0,0,1-5.18-5.55c-.53-.94-.07-1.79,1-2.23a35.15,35.15,0,0,0,3.42-1.56,4.77,4.77,0,0,0,1.08-1.07,1.5,1.5,0,0,0-1.35-1.13,20.28,20.28,0,0,0-6.28-.07c.15,1.48.33,2.88.43,4.29.15,2.16.28,4.32.36,6.48a2.26,2.26,0,0,1-1.52,2.49A2.1,2.1,0,0,1,50.8,27c-1.23-3.44-1.64-7.08-2.27-10.65a11.12,11.12,0,0,1,.14-2.61A6.24,6.24,0,0,1,52.54,12c2.26-.21,4.54-.23,6.82-.28a6,6,0,0,1,2.2.27,7.74,7.74,0,0,1,2.53,1.4,3.36,3.36,0,0,1,.29,4.78A9.5,9.5,0,0,1,62.13,20,27.84,27.84,0,0,1,59.34,21.39Z"/><path class="cls-2" d="M10.82,67.65v34.07a4.11,4.11,0,0,0,4.11,4.11H24a4.1,4.1,0,0,0,2.48-.84L34,99.33l25.58-19.4c3.29-2.49,6.74-4.75,9.91-7.39s6.14-5.7,9.15-8.58a3.57,3.57,0,0,0,.27-.28c1.38-1.61,12.09-15-3.94-26a23.66,23.66,0,0,0-21.09-3C45.94,37.41,40.44,44.85,34.11,50c-1,.84-2.09,1.67-3.16,2.48l-12.9,9.79"/><circle class="cls-2" cx="84.86" cy="95.1" r="7.92"/><ellipse class="cls-3" cx="46.56" cy="58.98" rx="0.71" ry="1" transform="translate(-17.62 98.06) rotate(-83.05)"/><ellipse class="cls-3" cx="54.04" cy="64.59" rx="0.71" ry="1" transform="translate(-16.61 110.41) rotate(-83.05)"/><ellipse class="cls-3" cx="46.87" cy="69.48" rx="0.71" ry="1" transform="translate(-27.77 107.6) rotate(-83.05)"/><ellipse class="cls-3" cx="39.83" cy="63.91" rx="0.71" ry="1" transform="translate(-28.43 95.71) rotate(-83.05)"/><circle class="cls-4" cx="84.86" cy="95.1" r="4.03"/><path class="cls-2" d="M91.48,90.74,85.74,80.51a1,1,0,0,0-1.76,0L78.25,90.74l6.61-1.1Z"/></g></g></svg>