<svg
    xmlns="http://www.w3.org/2000/svg"
    viewBox="0 0 512 512"
    id="vector">
    <path
        id="path"
        d="M 256 256 M 0 256 C 0 188.131 26.99 122.972 74.981 74.981 C 122.972 26.99 188.131 0 256 0 C 323.869 0 389.028 26.99 437.019 74.981 C 485.01 122.972 512 188.131 512 256 C 512 323.869 485.01 389.028 437.019 437.019 C 389.028 485.01 323.869 512 256 512 C 188.131 512 122.972 485.01 74.981 437.019 C 26.99 389.028 0 323.869 0 256"
        fill="none"/>
    <path
        id="path_1"
        d="M 317.051 504.655 C 422.172 478.932 501.811 388.305 511.08 277.652 L 352.728 119.3 L 199.606 135.667 L 158.57 268.82 L 221.508 330.091 L 182.77 370.79 Z"
        fill="none"/>
    <path
        id="path_2"
        d="M 234.09 177.3 L 228.62 209.36 L 251.71 208.27 C 278.01 207.02 304 214.89 323.02 233.1 C 359.7 268.22 362.82 326.17 330.12 365.02 C 311.1 387.62 283.23 400.29 254.32 400.29 C 247.96 400.29 241.55 399.68 235.17 398.42 L 233.14 398.02 C 213.9 394.23 196.48 384.81 182.77 370.79 C 169.36 357.07 160.44 339.91 156.91 321.08 L 215.55 316.35 C 220.1 328.88 231.02 338.49 244.36 341.12 L 246.39 341.52 C 261.04 344.41 276.12 339.1 285.74 327.67 C 298.8 312.16 297.56 289.02 282.91 274.99 C 275.31 267.71 264.93 263.84 254.43 264.32 L 158.57 268.82 L 185.65 119.3 L 352.728 119.3 L 352.728 177.3 L 234.09 177.3 Z"
        fill="#f8fffb"/>
    <path
        id="path_3"
        d="M 323.02 233.1 C 359.7 268.22 362.82 326.17 330.12 365.02 C 311.47 387.18 284.31 399.8 256 400.27 L 256 342.26 C 267.37 341.8 278.22 336.6 285.74 327.67 C 298.8 312.16 297.56 289.02 282.91 274.99 C 275.69 268.07 265.96 264.23 256 264.28 L 256 208.15 C 280.82 207.91 305.03 215.88 323.02 233.1 Z"
        fill="#d8d8d8"/>
    <path
        id="path_4"
        d="M 256 119.3 L 352.73 119.3 L 352.73 177.3 L 256 177.3 Z"
        fill="#d8d8d8"/>
    <path
        id="path_5"
        d="M 82.383 194.489 C 43.092 194.489 19.153 151.031 40.368 117.96 C 85.881 47.012 165.45 0 256 0 C 357.801 0 445.723 59.421 486.975 145.471 C 497.863 168.183 481.449 194.489 456.261 194.489 Z"
        fill="#4682bd"/>
    <path
        id="path_6"
        d="M 460 206 C 460 292.156 390.156 362 304 362 C 217.844 362 148 292.156 148 206 C 148 119.844 217.844 50 304 50 C 390.156 50 460 119.844 460 206 Z"
        fill="#5ea5ec"/>
    <path
        id="path_7"
        d="M 248.832 114.66 C 248.832 122.944 242.116 129.66 233.832 129.66 L 96.168 129.66 C 87.884 129.66 81.168 122.944 81.168 114.66 C 81.168 106.376 87.884 99.66 96.168 99.66 L 113.399 99.66 C 121.683 99.66 128.399 92.944 128.399 84.66 C 128.399 76.376 135.115 69.66 143.399 69.66 L 186.601 69.66 C 194.885 69.66 201.601 76.376 201.601 84.66 C 201.601 92.944 208.317 99.66 216.601 99.66 L 233.832 99.66 C 242.116 99.66 248.832 106.376 248.832 114.66 Z M 359.608 59.451 C 359.608 51.167 352.892 44.451 344.608 44.451 L 323.134 44.451 C 314.85 44.451 308.134 51.167 308.134 59.451 C 308.134 67.735 314.85 74.451 323.134 74.451 L 344.608 74.451 C 352.892 74.451 359.608 67.735 359.608 59.451 Z M 255.871 35 C 255.871 26.716 249.155 20 240.871 20 L 199.129 20 C 190.845 20 184.129 26.716 184.129 35 C 184.129 43.284 190.845 50 199.129 50 L 240.871 50 C 249.155 50 255.871 43.284 255.871 35 Z M 446.68 108.411 C 446.68 100.127 439.964 93.411 431.68 93.411 L 403.16 93.411 C 394.876 93.411 388.16 100.127 388.16 108.411 C 388.16 116.695 394.876 123.411 403.16 123.411 L 431.68 123.411 C 439.964 123.411 446.68 116.696 446.68 108.411 Z"
        fill="#75cef9"/>
    <path
        id="path_8"
        d="M 315 110 C 356.421 110 390 143.579 390 185 C 390 226.421 356.421 260 315 260 C 273.579 260 240 226.421 240 185 C 240 143.579 273.579 110 315 110 Z"
        fill="#fffac1"/>
    <path
        id="path_9"
        d="M 390 185 C 390 195.332 387.911 205.175 384.132 214.132 C 375.175 217.911 365.332 220 355 220 C 313.579 220 280 186.421 280 145 C 280 134.668 282.089 124.825 285.868 115.868 C 294.824 112.089 304.668 110 315 110 C 356.421 110 390 143.579 390 185 Z"
        fill="#fff5f5"/>
    <path
        id="path_10"
        d="M 110.255 362 C 52.918 362 5.367 316.471 4.182 259.146 C 4.16 258.099 4.149 257.05 4.149 256 C 4.149 242.159 5.609 228.245 7.723 215 C 8.103 212.619 4.006 210.578 4.451 208.219 C 10.472 176.328 22.407 146.528 39.073 120 L 182.311 120 C 221.991 178.22 285.061 219.223 358 229.488 L 358 362 Z"
        fill="#354045"/>
    <path
        id="path_11"
        d="M 88.396 359.75 C 41.3 349.919 5.212 308.993 4.182 259.146 C 4.16 258.099 4.149 257.05 4.149 256 C 4.149 242.159 5.609 228.245 7.723 215 C 8.103 212.619 4.006 210.578 4.451 208.219 C 10.472 176.328 22.407 146.528 39.073 120 L 70.582 120 C 56.672 151.557 48.949 186.455 48.949 223.156 C 48.948 273.377 63.41 320.221 88.396 359.75 Z"
        fill="#192227"/>
    <path
        id="path_12"
        d="M 188.5 128 L 34.5 128 C 30.358 128 27 124.642 27 120.5 C 27 116.358 30.358 113 34.5 113 L 188.5 113 C 192.642 113 196 116.358 196 120.5 C 196 124.642 192.642 128 188.5 128 Z"
        fill="#000f17"/>
    <path
        id="path_13"
        d="M 189.324 368.134 C 282.555 336.057 351.438 251.651 360.89 150 L 489.092 150 C 503.804 182.299 512 218.192 512 256 C 512 328.586 481.791 394.116 433.259 440.704 C 427.384 446.344 419.559 449.503 411.415 449.503 L 189.324 449.503 Z"
        fill="#3f4a50"/>
    <path
        id="path_14"
        d="M 237.715 449.503 L 189.323 449.503 L 189.323 368.134 C 282.555 336.057 351.438 251.651 360.89 150 L 388.12 150 C 389.971 260.949 327.849 361.721 232.064 411.435 Z"
        fill="#1b252b"/>
    <path
        id="path_15"
        d="M 493.5 158 L 356.5 158 C 352.358 158 349 154.642 349 150.5 C 349 146.358 352.358 143 356.5 143 L 493.5 143 C 497.642 143 501 146.358 501 150.5 C 501 154.642 497.642 158 493.5 158 Z"
        fill="#000f17"/>
    <path
        id="path_16"
        d="M 120 255 L 120 315 C 120 317.761 117.761 320 115 320 C 112.239 320 110 317.761 110 315 L 110 255 C 110 252.239 112.239 250 115 250 C 117.761 250 120 252.239 120 255 Z M 170 267.5 C 167.239 267.5 165 269.739 165 272.5 L 165 332.5 C 165 335.261 167.239 337.5 170 337.5 C 172.761 337.5 175 335.261 175 332.5 L 175 272.5 C 175 269.739 172.761 267.5 170 267.5 Z M 60 232.5 C 57.239 232.5 55 234.739 55 237.5 L 55 297.5 C 55 300.261 57.239 302.5 60 302.5 C 62.761 302.5 65 300.261 65 297.5 L 65 237.5 C 65 234.739 62.761 232.5 60 232.5 Z M 225 285 C 222.239 285 220 287.239 220 290 L 220 350 C 220 352.761 222.239 355 225 355 C 227.761 355 230 352.761 230 350 L 230 290 C 230 287.239 227.761 285 225 285 Z M 5 215 C 4.371 215 3.768 215.117 3.214 215.329 C 1.099 228.574 0 242.159 0 256 C 0 265.302 0.496 274.489 1.464 283.535 C 2.369 284.44 3.619 285 5 285 C 7.761 285 10 282.761 10 280 L 10 220 C 10 217.239 7.761 215 5 215 Z M 335 320 C 332.239 320 330 322.239 330 325 L 330 385 C 330 387.761 332.239 390 335 390 C 337.761 390 340 387.761 340 385 L 340 325 C 340 322.239 337.761 320 335 320 Z M 280 302.5 C 277.239 302.5 275 304.739 275 307.5 L 275 367.5 C 275 370.261 277.239 372.5 280 372.5 C 282.761 372.5 285 370.261 285 367.5 L 285 307.5 C 285 304.739 282.761 302.5 280 302.5 Z"
        fill="#b3ffce"/>
    <path
        id="path_17"
        d="M 367.147 331.377 C 366.132 334.569 363.181 336.607 360.001 336.607 C 359.248 336.607 358.482 336.493 357.727 336.253 L 2.081 223.205 C 2.726 218.162 3.517 213.165 4.451 208.219 L 362.272 321.958 C 366.22 323.212 368.402 327.43 367.147 331.377 Z"
        fill="#80e29d"/>
    <path
        id="path_18"
        d="M 40.681 394.526 C 17.786 359.012 3.437 317.469 0.543 272.805 L 353.029 384.848 C 357.18 386.167 360 390.022 360 394.378 L 360 450 L 142.852 450 C 101.599 450 63.033 429.197 40.681 394.526 Z"
        fill="#505f67"/>
    <path
        id="path_19"
        d="M 123.173 450 L 102.024 450 C 93.271 450 84.866 446.595 78.557 440.527 C 33.905 397.578 4.805 338.576 0.543 272.805 L 35.726 283.988 C 42.922 350.17 75.343 408.779 123.173 450 Z"
        fill="#27353d"/>
    <path
        id="path_20"
        d="M 48.882 317.75 C 48.882 321.892 45.524 325.25 41.382 325.25 C 37.24 325.25 33.882 321.892 33.882 317.75 C 33.882 313.608 37.24 310.25 41.382 310.25 C 45.524 310.25 48.882 313.608 48.882 317.75 Z M 99.786 325.817 C 95.644 325.817 92.286 329.175 92.286 333.317 C 92.286 337.459 95.644 340.817 99.786 340.817 C 103.928 340.817 107.286 337.459 107.286 333.317 C 107.286 329.175 103.929 325.817 99.786 325.817 Z M 158.191 341.385 C 154.049 341.385 150.691 344.743 150.691 348.885 C 150.691 353.027 154.049 356.385 158.191 356.385 C 162.333 356.385 165.691 353.027 165.691 348.885 C 165.691 344.743 162.333 341.385 158.191 341.385 Z M 216.595 356.953 C 212.453 356.953 209.095 360.311 209.095 364.453 C 209.095 368.595 212.453 371.953 216.595 371.953 C 220.737 371.953 224.095 368.595 224.095 364.453 C 224.095 360.311 220.738 356.953 216.595 356.953 Z M 275 372.52 C 270.858 372.52 267.5 375.878 267.5 380.02 C 267.5 384.162 270.858 387.52 275 387.52 C 279.142 387.52 282.5 384.162 282.5 380.02 C 282.5 375.878 279.142 372.52 275 372.52 Z"
        fill="#000f17"/>
    <path
        id="path_21"
        d="M 78.011 440 L 433.988 440 C 387.921 484.572 325.164 512 256 512 C 186.836 512 124.079 484.572 78.011 440 Z"
        fill="#3f4a4a"/>
    <path
        id="path_22"
        d="M 237 407 L 247 407 L 247 457 L 237 457 Z M 392 407 L 392 457 L 402 457 L 402 407 Z"
        fill="#4daf6e"/>
    <path
        id="path_23"
        d="M 262 459.5 C 262 463.642 258.642 467 254.5 467 L 229.5 467 C 225.358 467 222 463.642 222 459.5 C 222 455.358 225.358 452 229.5 452 L 254.5 452 C 258.642 452 262 455.358 262 459.5 Z M 409.5 452 L 384.5 452 C 380.358 452 377 455.358 377 459.5 C 377 463.642 380.358 467 384.5 467 L 409.5 467 C 413.642 467 417 463.642 417 459.5 C 417 455.358 413.642 452 409.5 452 Z"
        fill="#80e29d"/>
    <path
        id="path_24"
        d="M 256.073 411.091 C 256.042 411.157 256.011 411.223 255.98 411.289 C 254.351 414.774 250.847 417 247 417 L 157 417 C 151.257 417 146.644 412.159 147.022 406.334 C 147.366 401.019 152.017 397 157.343 397 L 247.093 397 C 254.335 397 259.135 404.527 256.073 411.091 Z"
        fill="#4daf6e"/>
    <path
        id="path_25"
        d="M 228.872 402.909 L 228.965 402.711 C 230.594 399.226 234.098 397 237.946 397 L 487 397 C 492.743 397 497.356 401.841 496.978 407.666 C 496.634 412.981 491.983 417 486.657 417 L 237.853 417 C 230.61 417 225.81 409.473 228.872 402.909 Z"
        fill="#80e29d"/>
    <path
        id="path_26"
        d="M 392.64 185.738 C 392.64 189.88 389.282 193.238 385.14 193.238 C 380.998 193.238 377.64 189.88 377.64 185.738 C 377.64 181.596 380.998 178.238 385.14 178.238 C 389.282 178.238 392.64 181.596 392.64 185.738 Z M 469.781 178.238 C 465.639 178.238 462.281 181.596 462.281 185.738 C 462.281 189.88 465.639 193.238 469.781 193.238 C 473.923 193.238 477.281 189.88 477.281 185.738 C 477.281 181.596 473.923 178.238 469.781 178.238 Z M 450.036 365.02 C 445.894 365.02 442.536 368.378 442.536 372.52 C 442.536 376.662 445.894 380.02 450.036 380.02 C 454.178 380.02 457.536 376.662 457.536 372.52 C 457.536 368.378 454.178 365.02 450.036 365.02 Z"
        fill="#000f17"/>
</svg>
