<svg
    xmlns="http://www.w3.org/2000/svg"
    viewBox="0 0 512 512"
    id="vector">
    <path
        id="path"
        d="M 256 256 M 0 256 C 0 188.131 26.99 122.972 74.981 74.981 C 122.972 26.99 188.131 0 256 0 C 323.869 0 389.028 26.99 437.019 74.981 C 485.01 122.972 512 188.131 512 256 C 512 323.869 485.01 389.028 437.019 437.019 C 389.028 485.01 323.869 512 256 512 C 188.131 512 122.972 485.01 74.981 437.019 C 26.99 389.028 0 323.869 0 256"
        fill="#80e29d"/>
    <path
        id="path_1"
        d="M 341.163 497.473 C 419.475 469.853 480.319 405.23 502.692 324.592 L 294.39 116.29 C 294.39 116.29 205.678 190.591 209.32 210.98 L 250.018 251.187 L 236.39 392.7 Z"
        fill="#4daf6e"/>
    <path
        id="path_2"
        d="M 294.39 116.29 L 294.39 392.7 L 236.39 392.7 L 236.39 187.64 L 209.32 210.98 L 171.45 167.05 L 226.83 119.3 L 230.32 116.29 Z"
        fill="#f8fffb"/>
    <path
        id="path_3"
        d="M 256 116.29 L 294.39 116.29 L 294.39 392.7 L 256 392.7 Z"
        fill="#d8d8d8"/>
</svg>
