<svg id="Capa_1" data-name="Capa 1" xmlns="http://www.w3.org/2000/svg" viewBox="0 0 420 512"><defs><style>.cls-1{fill:#67db85;}.cls-2{fill:#4daf6e;}.cls-3{fill:#b3ffce;}.cls-4{fill:#27353d;}</style></defs><path class="cls-1" d="M427.15,206l37.78-94.43A15,15,0,0,0,451,91H261a15,15,0,0,0-15,15V241H211a15,15,0,0,0-15,15v50a15,15,0,0,0,15,15H451a15,15,0,0,0,13.93-20.57Z" transform="translate(-46)"/><path class="cls-2" d="M211,321a15,15,0,0,1-15-15V256a15,15,0,0,1,15-15h50a15,15,0,0,1,10.61,25.61l-50,50A15,15,0,0,1,211,321Z" transform="translate(-46)"/><path class="cls-3" d="M261,41H61A15,15,0,0,0,46,56V256a15,15,0,0,0,15,15H261a15,15,0,0,0,15-15V56A15,15,0,0,0,261,41Z" transform="translate(-46)"/><path class="cls-4" d="M61,512a15,15,0,0,1-15-15V15a15,15,0,0,1,30,0V497A15,15,0,0,1,61,512Z" transform="translate(-46)"/></svg>