<svg xmlns="http://www.w3.org/2000/svg" viewBox="0 0 95.8 94.15"><defs><style>.cls-1,.cls-2{fill:#27353e;}.cls-2{stroke:#fff;stroke-miterlimit:10;}</style></defs><g id="Laag_2" data-name="Laag 2"><g id="Laag_1-2" data-name="Laag 1"><path class="cls-1" d="M1.13,27.06V14.53A4,4,0,0,1,3.24,10.7,46.13,46.13,0,0,1,16.38,5.4a15,15,0,0,1,8.8.52,12.61,12.61,0,0,1,3.95,2.36c2.47,2.21,3.16,5.1,2.6,8.34a14.51,14.51,0,0,1-5.17,8.88C23.09,28.36,19.45,31,15.9,33.73c-1.34,1-2.63,2.14-4,3.17-1.2.92-2.45,1.78-3.68,2.67l-3.6,2.61a7.68,7.68,0,0,1-.95.66,1.39,1.39,0,0,1-2.27-1.08A30.44,30.44,0,0,1,1,37.28C1,33.87,1,30.47,1,27.06ZM6.56,15.74c0,.39-.08.61-.08.82q0,7,0,14a12.65,12.65,0,0,0,.15,1.34c.47-.3.79-.49,1.1-.71,4.09-2.94,8.19-5.87,12.26-8.84a20.3,20.3,0,0,0,2.42-2.23,6,6,0,0,0,1.43-2.51c.78-2.73-.46-6.17-4-6.37a8.34,8.34,0,0,0-3.26.35c-2.79,1-5.52,2.1-8.26,3.21A13,13,0,0,0,6.56,15.74Z"/><path class="cls-1" d="M67.26,5c2.67-.44,5.35-1,8.06-.44A17.3,17.3,0,0,1,86,10.73c4.31,5.46,2.61,12.26-3.13,16a3.2,3.2,0,0,1-4.7-.71c-.49-.59-.92-1.22-1.35-1.85a18.81,18.81,0,0,0-10.9-7.61c-1.05-.3-2.11-.6-3.14-1a5.26,5.26,0,0,1-2.57-1.93A4.34,4.34,0,0,1,61,7.74a12.22,12.22,0,0,1,5.12-2.51C66.49,5.14,66.88,5.07,67.26,5ZM81.1,23.27a5,5,0,0,0,3.32-4.49,7,7,0,0,0-2.73-6.44c-3.5-2.66-7.3-4.63-12-4.19a8.91,8.91,0,0,0-5.15,2l.14,1.68c1.3,1.06,2.8,1.15,4.21,1.46a13.08,13.08,0,0,1,5.9,2.92,20.64,20.64,0,0,1,3.41,3.94c.53.78,1.06,1.55,1.62,2.3A1.53,1.53,0,0,0,81.1,23.27Z"/><path class="cls-1" d="M89.32,90.86a1.71,1.71,0,0,1-1.57-1.32,15,15,0,0,1-.66-3.1c-.21-3.22-.27-6.44-.49-9.66a57.22,57.22,0,0,1,.21-9.44c0-.4,0-.8,0-1.35-.41.21-.74.4-1.09.56-1,.46-2.07.92-3.12,1.34a2.11,2.11,0,0,1-.87.12,1.49,1.49,0,0,1-1.48-2,4,4,0,0,1,.61-1.15,13.71,13.71,0,0,1,2.93-3c1.4-1.06,2.69-2.26,4.09-3.32,1-.73,2-1.34,3-2a4.06,4.06,0,0,1,.89-.43,1.94,1.94,0,0,1,2.76,1.47,7.82,7.82,0,0,1-.19,4A19,19,0,0,1,93,65.1a8.12,8.12,0,0,0-.92,3.68c0,3.92.06,7.85,0,11.77-.07,2.26-.36,4.52-.63,6.78a10.51,10.51,0,0,1-.67,2.31A1.73,1.73,0,0,1,89.32,90.86Z"/><path class="cls-1" d="M90.17,34.91c-.5.8-1,1.43-1.31,2.1-1.7,3.27-3.32,6.57-5.08,9.82-1,1.92-2.24,3.79-3.45,5.65-1.07,1.64-2.22,3.24-3.41,4.82-.66.89-1.47,1.7-2.23,2.54a2.86,2.86,0,0,1-.64.49,2.28,2.28,0,0,1-2.38.33,1.73,1.73,0,0,1-.81-2.14,9,9,0,0,1,2.06-3.61c1.46-1.72,3-3.39,4.41-5.14a49.29,49.29,0,0,0,7.36-12.61c.64-1.58,1.31-3.14,2-4.7a5.57,5.57,0,0,1,.79-1.32,2.36,2.36,0,0,1,2.59-.72,5.23,5.23,0,0,1,3.27,2c3.93,5.39,3,12-1.63,16.64a14,14,0,0,1-3.91,2.37,1.76,1.76,0,0,1-.46.14,2.18,2.18,0,0,1-2-.39,1.45,1.45,0,0,1-.22-1.89,10.7,10.7,0,0,1,1.35-1.76c1.09-1.16,2.24-2.27,3.35-3.42a2.58,2.58,0,0,0,.53-.71,12.22,12.22,0,0,0,1.41-5A4.75,4.75,0,0,0,90.17,34.91Z"/><path class="cls-1" d="M57.08,91C55.6,91,55,90.56,55,89.31c-.09-3-.2-6-.25-9a19.3,19.3,0,0,1,.85-6.21,14.38,14.38,0,0,1,1.06-2.46,6.85,6.85,0,0,1,3.92-3c2.55-.94,6,1.14,6,4a5.34,5.34,0,0,1-1.35,3.55A13.23,13.23,0,0,1,59.14,80c-.07,1.59-.13,3.25-.22,4.91-.07,1.21-.11,2.42-.27,3.62A2.91,2.91,0,0,1,57.08,91ZM62,71a4.56,4.56,0,0,0-2.35,5.21,21.46,21.46,0,0,0,1.88-1.53,6.87,6.87,0,0,0,1.22-1.73C63.1,72.09,62.86,71.58,62,71Z"/><path class="cls-1" d="M44.93,86c-.73.06-1.45.16-2.18.16a13.94,13.94,0,0,1-3-.14,2.25,2.25,0,0,1-1.47-3.38,7.31,7.31,0,0,1,2.9-3.06c1-.63,2.11-1.19,3.17-1.76a5.49,5.49,0,0,1,2.75-.67,1.56,1.56,0,0,1,1.64,1.18A1.57,1.57,0,0,1,47.58,80c-.58.22-1.2.32-1.79.52-1.18.4-2.36.78-3.51,1.24-.78.32-.87.5-1.24,1.44,1-.13,1.85-.24,2.73-.38a7,7,0,0,1,3,.13,2.64,2.64,0,0,1,1.56,4.23,5.32,5.32,0,0,1-2.27,1.85,18.39,18.39,0,0,1-5.9,1.59c-1.64.2-3.29.26-4.91.5a13.32,13.32,0,0,1-3.26.38A3.82,3.82,0,0,1,31,91.33a1.15,1.15,0,0,1-.41-2,3.6,3.6,0,0,1,1.52-.83c1.1-.25,2.23-.35,3.35-.51.44-.06.87-.1,1.3-.17,1.85-.28,3.68-.7,5.53-.82A5.35,5.35,0,0,0,45,86.24Z"/><path class="cls-1" d="M48.52,9.71c.9,1,1.73,1.88,2.55,2.79a4,4,0,0,1,.47.53,1.56,1.56,0,0,1,0,2,1.35,1.35,0,0,1-1.9.23,16.4,16.4,0,0,1-5.18-5.55c-.53-.94-.06-1.79,1-2.23A36.45,36.45,0,0,0,48.88,5.9,5.22,5.22,0,0,0,50,4.83,1.52,1.52,0,0,0,48.6,3.7a20.28,20.28,0,0,0-6.28-.07c.15,1.48.33,2.88.43,4.29q.24,3.24.36,6.48a2.26,2.26,0,0,1-1.51,2.49A2.1,2.1,0,0,1,40,15.33c-1.23-3.44-1.64-7.08-2.27-10.65a11.12,11.12,0,0,1,.14-2.61A6.24,6.24,0,0,1,41.72.28C44,.07,46.26.05,48.54,0a6,6,0,0,1,2.2.27,7.64,7.64,0,0,1,2.53,1.4,3.36,3.36,0,0,1,.29,4.78,9.31,9.31,0,0,1-2.25,1.89A27.84,27.84,0,0,1,48.52,9.71Z"/><path class="cls-1" d="M0,56V94.15H14.6l8.57-6.5,25.59-19.4c3.28-2.49,6.73-4.75,9.9-7.39s6.22-5.78,9.28-8.7c0,0,13.28-14.45-3.8-26.18a23.66,23.66,0,0,0-21.09-3c-7.93,2.76-13.43,10.2-19.76,15.39-1,.84-2.09,1.68-3.16,2.48L7.23,50.63"/><ellipse class="cls-2" cx="35.74" cy="47.3" rx="0.71" ry="1" transform="translate(-15.54 77.05) rotate(-83.05)"/><ellipse class="cls-2" cx="43.22" cy="52.91" rx="0.71" ry="1" transform="translate(-14.53 89.41) rotate(-83.05)"/><ellipse class="cls-2" cx="36.06" cy="57.8" rx="0.71" ry="1" transform="translate(-25.68 86.59) rotate(-83.05)"/><ellipse class="cls-2" cx="29.01" cy="52.23" rx="0.71" ry="1" transform="translate(-26.35 74.71) rotate(-83.05)"/><path class="cls-1" d="M74,75.5A7.92,7.92,0,1,0,82,83.42,7.92,7.92,0,0,0,74,75.5Zm0,12a4,4,0,1,1,4-4A4,4,0,0,1,74,87.45Z"/><path class="cls-1" d="M80.66,79.06,74.93,68.83a1,1,0,0,0-1.77,0L67.43,79.06,74,78Z"/></g></g></svg>