<svg
    xmlns="http://www.w3.org/2000/svg"
    viewBox="0 0 512 512"
    id="vector">
    <path
        id="path"
        d="M 256 256 M 0 256 C 0 188.131 26.99 122.972 74.981 74.981 C 122.972 26.99 188.131 0 256 0 C 323.869 0 389.028 26.99 437.019 74.981 C 485.01 122.972 512 188.131 512 256 C 512 323.869 485.01 389.028 437.019 437.019 C 389.028 485.01 323.869 512 256 512 C 188.131 512 122.972 485.01 74.981 437.019 C 26.99 389.028 0 323.869 0 256"
        fill="#80e29d"/>
    <path
        id="path_1"
        d="M 317.051 504.655 C 422.172 478.932 501.811 388.305 511.08 277.652 L 352.728 119.3 L 199.606 135.667 L 158.57 268.82 L 221.508 330.091 L 182.77 370.79 Z"
        fill="#4daf6e"/>
    <path
        id="path_2"
        d="M 234.09 177.3 L 228.62 209.36 L 251.71 208.27 C 278.01 207.02 304 214.89 323.02 233.1 C 359.7 268.22 362.82 326.17 330.12 365.02 C 311.1 387.62 283.23 400.29 254.32 400.29 C 247.96 400.29 241.55 399.68 235.17 398.42 L 233.14 398.02 C 213.9 394.23 196.48 384.81 182.77 370.79 C 169.36 357.07 160.44 339.91 156.91 321.08 L 215.55 316.35 C 220.1 328.88 231.02 338.49 244.36 341.12 L 246.39 341.52 C 261.04 344.41 276.12 339.1 285.74 327.67 C 298.8 312.16 297.56 289.02 282.91 274.99 C 275.31 267.71 264.93 263.84 254.43 264.32 L 158.57 268.82 L 185.65 119.3 L 352.728 119.3 L 352.728 177.3 L 234.09 177.3 Z"
        fill="#f8fffb"/>
    <path
        id="path_3"
        d="M 323.02 233.1 C 359.7 268.22 362.82 326.17 330.12 365.02 C 311.47 387.18 284.31 399.8 256 400.27 L 256 342.26 C 267.37 341.8 278.22 336.6 285.74 327.67 C 298.8 312.16 297.56 289.02 282.91 274.99 C 275.69 268.07 265.96 264.23 256 264.28 L 256 208.15 C 280.82 207.91 305.03 215.88 323.02 233.1 Z"
        fill="#d8d8d8"/>
    <path
        id="path_4"
        d="M 256 119.3 L 352.73 119.3 L 352.73 177.3 L 256 177.3 Z"
        fill="#d8d8d8"/>
</svg>
