<svg xmlns="http://www.w3.org/2000/svg" viewBox="0 0 207.69 207.59"><defs><style>.cls-1{fill:none;stroke:#000;stroke-miterlimit:10;}</style></defs><g id="Laag_2" data-name="Laag 2"><g id="Laag_1-2" data-name="Laag 1"><path d="M1.46,207.11V107.27l.13-.12a.2.2,0,0,1,.08,0c.2,0,.39,0,.58,0H99.46a1.34,1.34,0,0,1,.27.07l.07.08a.41.41,0,0,1,0,.09,1.37,1.37,0,0,1,.05.28v98.89c0,.16,0,.32-.05.54a5.19,5.19,0,0,1-.64.13c-.26,0-.52,0-.77,0H2.87C2.43,207.15,2,207.13,1.46,207.11Zm7.36-6.83c.53,0,.91.06,1.29.07l2.8.12c.81,0,1.61.11,2.42.08,2.16-.09,4.31-.24,6.47-.33,1.07,0,2.13,0,3.2,0a2.42,2.42,0,0,0,1.38-.38,63.71,63.71,0,0,0,6.45-4.51Q44.11,186,55.39,176.71a69.27,69.27,0,0,0,9.48-9c2.94-3.54,5.94-7,8.53-10.83a34,34,0,0,0,4.23-8.38,13.11,13.11,0,0,0,.64-6.11A20.08,20.08,0,0,0,72,130.3c-4.63-4.25-9.92-4.78-15.51-2.55a27.86,27.86,0,0,0-9.33,6.43c-2.62,2.62-5.16,5.33-7.82,7.92a27.42,27.42,0,0,1-3.84,3.14c-3.46,2.32-6.8,4.78-10,7.42-2.77,2.26-5.43,4.67-8.3,6.78a50.56,50.56,0,0,0-7.11,6.36,4.76,4.76,0,0,1-.55.55,2,2,0,0,0-.72,1.72q0,15.56,0,31.11ZM13.54,137h-.16c0,.95,0,1.9,0,2.85.07,3,.13,6,.22,9.05a4.7,4.7,0,0,0,.27,1.34,1.18,1.18,0,0,0,1.69.82,5.22,5.22,0,0,0,1.09-.63c1.1-.75,2.18-1.51,3.28-2.27s2.42-1.63,3.6-2.49,2.3-1.8,3.47-2.67c3.34-2.47,6.76-4.84,10-7.41a12.83,12.83,0,0,0,5-8.18,7.4,7.4,0,0,0-3.2-7.87,13.48,13.48,0,0,0-10.45-2.09,41.84,41.84,0,0,0-12.91,4.87,3.3,3.3,0,0,0-1.88,3.17c0,.19,0,.39,0,.59ZM74,114.76H72.79a9.61,9.61,0,0,0-5,1.3A4.17,4.17,0,0,0,66.27,122a5.14,5.14,0,0,0,1.79,1.77c.83.5,1.68,1,2.53,1.44a18.21,18.21,0,0,1,5.9,5,19.31,19.31,0,0,1,2.31,4.2,21,21,0,0,0,1.09,2.3,2.55,2.55,0,0,0,3,1.31,5.44,5.44,0,0,0,1.1-.36,11.1,11.1,0,0,0,3.31-2.19,9.75,9.75,0,0,0,3.1-7.38,10,10,0,0,0-1-4.27,15.68,15.68,0,0,0-10.23-8.52A18.43,18.43,0,0,0,74,114.76Zm11.79,60.47c0,.68,0,1.17,0,1.66a50.18,50.18,0,0,0-.17,7.56c.18,3,.26,6,.42,8.94a8.13,8.13,0,0,0,.67,3.15,1.36,1.36,0,0,0,1.24.94,1.28,1.28,0,0,0,1.23-.95,16.1,16.1,0,0,0,.66-2.25,31.71,31.71,0,0,0,.53-6.07c.07-3.51,0-7,0-10.53a6.35,6.35,0,0,1,.77-3.11,11.59,11.59,0,0,0,.76-1.59,9.58,9.58,0,0,0,.63-5.1,1.64,1.64,0,0,0-2.38-1.35,3.83,3.83,0,0,0-.79.38c-.9.57-1.83,1.12-2.67,1.77-1.28,1-2.48,2.09-3.76,3.09a11.77,11.77,0,0,0-2.47,2.61c-.45.63-.82,1.33-.32,2.08a1.62,1.62,0,0,0,2,.46,19.08,19.08,0,0,0,2.14-.91C84.74,175.79,85.18,175.53,85.74,175.23Zm3.44-28.87a4.71,4.71,0,0,1,1.13,3.46A13,13,0,0,1,89,154.23a3.16,3.16,0,0,1-.55.8c-.93,1-1.89,2-2.8,3a8.32,8.32,0,0,0-1.16,1.67,1.34,1.34,0,0,0,.25,1.64,1.38,1.38,0,0,0,1.52.34c.09,0,.19,0,.28-.08a9.65,9.65,0,0,0,3.66-2.5,12.8,12.8,0,0,0,3-10.41,11.73,11.73,0,0,0-1.84-4.93,4.14,4.14,0,0,0-2.48-1.57,1.35,1.35,0,0,0-1.5.45,5.59,5.59,0,0,0-.83,1.31c-.62,1.4-1.22,2.82-1.78,4.25a46.6,46.6,0,0,1-6.35,11.34c-1.19,1.55-2.47,3-3.7,4.54a10,10,0,0,0-1.66,2.77,2.55,2.55,0,0,0-.16,1.72,1.25,1.25,0,0,0,1.31,1,2.21,2.21,0,0,0,1.39-.61,10.19,10.19,0,0,0,2.1-2.43c.83-1.25,1.65-2.51,2.51-3.74A49,49,0,0,0,84,156.32c1.32-2.7,2.67-5.38,4-8.07C88.34,147.65,88.73,147.09,89.18,146.36ZM67.7,190.82a6.52,6.52,0,0,0,1.61,4.61,8.36,8.36,0,0,0,4.52,2.67,5.62,5.62,0,0,0,2.38,0,6.16,6.16,0,0,0,4.55-4.27,8.51,8.51,0,0,0-.17-6.14c-1.28-3.33-2.86-6.52-4.34-9.76a5.32,5.32,0,0,0-.53-.93c-.55-.74-1.16-.78-1.76-.06a10.41,10.41,0,0,0-1.1,1.61c-1.34,2.47-2.65,4.95-4,7.42A11.06,11.06,0,0,0,67.7,190.82Zm-6.42-1.73a12.11,12.11,0,0,0,5.15-3.56,6.33,6.33,0,0,0,1.36-3,4.3,4.3,0,0,0-2.91-4.85,3.27,3.27,0,0,0-1.61-.1,6,6,0,0,0-4.2,3.31,15,15,0,0,0-1.41,5.59,98.83,98.83,0,0,0,.06,12.29,1.31,1.31,0,0,0,.94,1.23,1.18,1.18,0,0,0,1.46-.44,3.74,3.74,0,0,0,.77-2c.1-1,.16-2,.2-2.94C61.17,192.8,61.22,191,61.28,189.09ZM50.67,195l0,.22a3,3,0,0,1-2.21.76,3.94,3.94,0,0,0-.77.05c-1.47.24-2.93.51-4.39.73-1.08.17-2.18.26-3.26.41a3.68,3.68,0,0,0-2,.83,1.05,1.05,0,0,0-.34,1.06,1,1,0,0,0,.79.78,3.16,3.16,0,0,0,.87.06c1-.1,2.1-.24,3.16-.32a40.7,40.7,0,0,0,6.41-.9,9.61,9.61,0,0,0,3.88-1.71,2.9,2.9,0,0,0,1.2-3,2.7,2.7,0,0,0-2.77-1.75c-1.15,0-2.3.21-3.45.31a4.12,4.12,0,0,1-.67,0,1.65,1.65,0,0,1,1-1.22,20.18,20.18,0,0,1,2.16-.85c.79-.27,1.62-.43,2.41-.7s1.32-.91,1.18-1.56a1.51,1.51,0,0,0-1.76-1,1.93,1.93,0,0,0-.48.08,13.16,13.16,0,0,0-1.72.64c-.87.43-1.71.91-2.54,1.42a6.69,6.69,0,0,0-2.64,2.81,2.05,2.05,0,0,0,.18,2.23,2,2,0,0,0,1.68.83c1,0,2.06-.05,3.09-.09Zm3.25-74.08c.61-.29,1.23-.55,1.84-.86a4.65,4.65,0,0,0,1.72-1.39,2.35,2.35,0,0,0-.18-3.14,3.44,3.44,0,0,0-2.6-1.12c-1.65,0-3.29.09-4.93.1a5.61,5.61,0,0,0-2.57.76,1.21,1.21,0,0,0-.59.71,5.69,5.69,0,0,0-.06,1.84c.26,1.69.58,3.36.94,5a16.62,16.62,0,0,0,.71,2.24c.15.42.65.77,1,.69a1.11,1.11,0,0,0,.87-.83,3.22,3.22,0,0,0,.11-1c-.06-1.41-.14-2.82-.24-4.22-.07-1-.19-1.94-.29-3a17,17,0,0,1,4.33,0c.39.05.89.17,1,.67s-.33.77-.69,1c-.78.39-1.57.74-2.37,1.07s-1,.84-.65,1.52a11.33,11.33,0,0,0,3.38,3.61,1,1,0,0,0,1.41,0c.38-.41.33-.94-.13-1.5-.08-.1-.18-.18-.27-.28C55.06,122.14,54.52,121.54,53.92,120.89Z"/><path d="M207.54,106.92c.16.83.2,98.88,0,100.14a8.41,8.41,0,0,1-.89.08c-1.23,0-2.46,0-3.69,0-1.58,0-3.16.14-4.74.19-.9,0-1.81,0-2.71,0-4.69-.06-9.37-.17-14.06-.18-8.07,0-16.15-.06-24.23,0-5,0-10-.27-15-.29-4.52,0-9,.14-13.56.23-.62,0-1.23,0-1.84,0H109.11c0-.46-.09-.84-.09-1.21q0-5.22,0-10.44c0-8.57,0-17.14,0-25.71,0-4.11.22-8.21.32-12.31a16,16,0,0,0-.3-4.31,4.83,4.83,0,0,1-.06-1.08q0-20,0-39.89c0-1.48,0-3,0-4.42a4.28,4.28,0,0,1,.09-.7l.12-.13a.16.16,0,0,1,.09,0,3.93,3.93,0,0,1,.48-.06h97.33C207.23,106.86,207.36,106.9,207.54,106.92ZM157.83,184c-.24-.33-.44-.63-.66-.9-2.12-2.7-4.21-5.41-6.36-8.07-4.47-5.54-8.69-11.27-12.88-17-1.62-2.21-3.35-4.34-5-6.5a4.82,4.82,0,0,0-.56-.54c-.26.16-.49.28-.7.44-2.17,1.65-4.37,3.27-6.5,5-2.43,1.95-4.79,4-7.2,6s-4.55,3.68-6.85,5.49a1.88,1.88,0,0,0-.78,1.67c0,3.25,0,6.5,0,9.75,0,5.62,0,11.23,0,16.84,0,2.83,0,5.65,0,8.47,0,.38,0,.76.06,1.14a2.6,2.6,0,0,0,.46.1H132a2.27,2.27,0,0,0,1.77-.61c.51-.5,1.08-.93,1.62-1.4,3.54-3,7.09-6,10.62-9,.94-.8,1.8-1.7,2.73-2.51,2.11-1.84,4.26-3.62,6.36-5.48C156,186,156.85,185,157.83,184Zm1.58-.29c0,1.24,0,2.49,0,3.74a2,2,0,0,1-.63,1.67c-4.11,3.66-8.19,7.34-12.28,11-1.76,1.59-3.49,3.22-5.23,4.84-.21.2-.55.36-.46.85,1,0,2-.06,3,0a3.54,3.54,0,0,0,2.43-.77,89.68,89.68,0,0,0,9.13-7.62c5.78-5.4,11.53-10.84,17.29-16.26a6.17,6.17,0,0,1,.58-.39l.23,1.33c.08.48.14,1,.26,1.44.21.83.51,1.63.68,2.46a7.93,7.93,0,0,0,1.42,3.09c1.8,2.53,3.56,5.09,5.38,7.6a9.38,9.38,0,0,0,1.75,1.81c1.36,1.08,1.47,1,2.87.06a21.53,21.53,0,0,0,4-3.93,48.45,48.45,0,0,0,6-8.25,9.79,9.79,0,0,0,1.22-3.6,15.88,15.88,0,0,0-1-7.54,6.75,6.75,0,0,0-2.23-3.16,4.1,4.1,0,0,1-.69-.69,5.29,5.29,0,0,0-2.41-1.59c-.7-.25-1.4-.5-2.11-.73a11.07,11.07,0,0,0-3.13-.61,11.93,11.93,0,0,1-1.61-.26c.61-.63,1.06-1.13,1.54-1.59a36.32,36.32,0,0,0,6.4-8.37,38.86,38.86,0,0,0,3-6.6,16.94,16.94,0,0,0,1.28-6.71c-.09-1.45-.17-2.89-.25-4.33-.06-1.21-.08-2.43-.19-3.63a14.15,14.15,0,0,0-1.26-4.63c-.79-1.73-1.69-3.4-2.59-5.07a17,17,0,0,0-5.11-5.7,3.2,3.2,0,0,0-.93-.53,14.73,14.73,0,0,1-3.2-1.6,11,11,0,0,0-4.21-1.41,37.22,37.22,0,0,0-9.66.29,21.86,21.86,0,0,0-9.27,3.48,34,34,0,0,0-2.87,2.15c-1.37,1.2-2.72,2.43-4.13,3.58-4.65,3.76-9.33,7.49-14,11.25-5.69,4.59-11.38,9.18-16.74,14.19-3.45,3.21-7.1,6.21-10.66,9.3a4.1,4.1,0,0,0-.56.54,1.36,1.36,0,0,0-.3,1.28,10,10,0,0,1,.13,1.46c0,.3.05.61.09,1.11.56-.43,1-.74,1.36-1.06,1.79-1.45,3.52-3,5.38-4.36,2.6-1.9,5.11-3.89,7.59-6s4.83-3.84,7.26-5.74c.45-.36.67-.37,1,0a28.38,28.38,0,0,1,2.71,2.66c2.22,2.77,4.38,5.6,6.52,8.44,1.45,1.93,2.77,4,4.23,5.89,4,5.21,8.06,10.35,11.75,15.78a5.41,5.41,0,0,0,.44.5"/><path d="M207.46,102.15H107.22a1.43,1.43,0,0,1-.13-.13.36.36,0,0,1,0-.09c0-.22-.06-.45-.06-.68q0-50.39,0-100.77a2.6,2.6,0,0,1,.09-.36,7.06,7.06,0,0,1,.71-.11c.32,0,.64,0,1,0h98.66a2.56,2.56,0,0,1,.14.57V101.64A2.31,2.31,0,0,1,207.46,102.15ZM108.51,1.5a3.91,3.91,0,0,0-.07.45q0,29.76,0,59.5a.11.11,0,0,0,0,.08l.09,0-.16-.16c.6-.5,1.19-1,1.8-1.49,1.06-.85,2.11-1.72,3.23-2.51,2.87-2,5.6-4.22,8.27-6.5a162.4,162.4,0,0,1,16.1-12.31,25.69,25.69,0,0,0,4.31-3.5c2.61-2.69,5.26-5.33,7.85-8a41.94,41.94,0,0,1,9.35-7.28,17.89,17.89,0,0,1,10-2.6,15.3,15.3,0,0,1,8.92,3.08,22.88,22.88,0,0,1,7.86,11.21,16.7,16.7,0,0,1,.65,9.49,29.81,29.81,0,0,1-2.4,6.32,51.74,51.74,0,0,1-6.1,9.34c-2.56,3.21-5.27,6.3-7.86,9.49a38.15,38.15,0,0,1-5.27,5.21q-13.61,11.34-27.25,22.62a82.73,82.73,0,0,1-8.7,6.58s0,.11-.07.18a1.38,1.38,0,0,0,.26.06h76.19a2.6,2.6,0,0,0,.39-.05s0,0,.08,0l.06-.07c.18-1.6.11-98.33-.08-99.09Zm46.94,55.12A2.32,2.32,0,0,0,157.39,55a1,1,0,0,0-1.16-1.18,2.26,2.26,0,0,0-1.67,1.47A.91.91,0,0,0,155.45,56.62Zm8.64-8.36c0-.7-.31-1.14-.74-1.23a1.15,1.15,0,0,0-1.12.76,9.93,9.93,0,0,0-.29,1.42.76.76,0,0,0,1.24.68A2,2,0,0,0,164.09,48.26ZM149.16,47a1.33,1.33,0,0,0-1.21.67,2.53,2.53,0,0,0-.73,1.55.72.72,0,0,0,.89.76,1.53,1.53,0,0,0,1.24-2.28A4.85,4.85,0,0,1,149.16,47Zm6.93-6.2a3.58,3.58,0,0,0-.51-.83.79.79,0,0,0-1,.09,2,2,0,0,0-.84,1.27,1.34,1.34,0,0,0,.6,1.34c.36.17.8,0,1.12-.51A12.31,12.31,0,0,0,156.09,40.78Z"/><path d="M.58.12H99.37c.2.79.24,99.44,0,100.56-.39,0-.79.06-1.2.06q-11.29,0-22.59,0H48c-7.19.53-14.4.18-21.6.24S12,101,4.79,101c-1.37,0-2.75-.21-4.2-.33,0-.34-.07-.66-.07-1,0-3,0-5.91,0-8.86,0-3.25,0-6.5-.06-9.75,0-.28.07-.59-.28-.77-.1,0-.16-.26-.18-.4A8.77,8.77,0,0,1,0,79q0-15.62,0-31.22c0-.57-.26-1.24.4-1.68.07,0,.06-.25.06-.37,0-.33,0-.66,0-1V1.61C.52,1.13.56.64.58.12ZM63.37,76.94c.09.35.17.57.2.79a8.21,8.21,0,0,0,1.26,3.38c.49.77,1,1.57,1.45,2.33,1.74,2.64,3.45,5.31,5.26,7.91.83,1.2,1.88,2.24,2.78,3.4a7.43,7.43,0,0,0,3.14,2.79.34.34,0,0,0,.15-.07,46.94,46.94,0,0,0,5.42-6c2-2.76,4.06-5.44,6.08-8.16a12.94,12.94,0,0,0,2.62-5.64c0-.1,0-.19.07-.29a9.64,9.64,0,0,0-.77-7c-.39-.75-.75-1.53-1.14-2.28a14.45,14.45,0,0,0-4.66-5.42,6.33,6.33,0,0,0-3.16-1.13c-.61-.05-1.22,0-1.84-.07a6.91,6.91,0,0,1-1.9-.2c0-.16.06-.27.12-.33a25.31,25.31,0,0,1,3-3.24A4,4,0,0,0,82,57.1a35.09,35.09,0,0,0,5.81-10.17c.85-2.54,1.51-5.15,2.25-7.73a2.53,2.53,0,0,0,.08-.48,19.82,19.82,0,0,0-1-9.6c-1.6-4.19-3.21-8.39-6.23-11.82l-.06-.09a11.47,11.47,0,0,0-3-3.14,28.14,28.14,0,0,0-6.56-4,32.36,32.36,0,0,0-6.49-1.58,14.89,14.89,0,0,0-3.27,0c-1.06.08-2.11.31-3.17.48a18.91,18.91,0,0,0-8.63,3.53c-2,1.55-4,3.21-5.93,4.92-2.59,2.32-5.09,4.75-7.65,7.1Q35.58,26.81,33,29c-1.15,1-2.43,1.85-3.55,2.88C24.35,36.54,18.93,40.73,13.58,45c-3.37,2.7-6.75,5.41-10.14,8.09a1.56,1.56,0,0,0-.67,1.4c0,2.37,0,4.73,0,7.09,0,1.28,0,2.56,0,3.84-.06,2.43-.13,4.86-.19,7.28l-.09,3.06c-.07,2.62-.22,5.25-.18,7.87,0,3,.29,6.09.38,9.14a37.15,37.15,0,0,0,.56,5.47c.11.6.24.76.81.74,1.84,0,3.68-.12,5.52-.16.84,0,1.68,0,2.52,0,1.51.06,3,.22,4.54.19,2.29-.06,4.58-.26,6.87-.39,1.35-.08,2.71-.1,4.06-.19,3.39-.24,6.77-.4,10.17-.34a17.24,17.24,0,0,0,2,0,2.29,2.29,0,0,0,1.51-.55c2.1-1.95,4.22-3.87,6.32-5.82s4.34-4,6.48-6.07C56.72,83.13,59.33,80.54,62,78c.26-.25.52-.5.8-.72A4.16,4.16,0,0,1,63.37,76.94Z"/><path d="M57.52,153.16a.65.65,0,0,1-.69-.75,2.26,2.26,0,0,1,1.8-1.81.7.7,0,0,1,.71.84A2.68,2.68,0,0,1,57.52,153.16Z"/><path d="M47.22,151.42a2.1,2.1,0,0,1-.37.62,6.25,6.25,0,0,1-1.09.8.55.55,0,0,1-.78-.09,1.08,1.08,0,0,1-.19-.71,2.42,2.42,0,0,1,1.52-1.52C46.83,150.43,47.22,150.76,47.22,151.42Z"/><path d="M51,146.54a.52.52,0,0,1-.49-.55,2.13,2.13,0,0,1,1.7-1.83.54.54,0,0,1,.58.52C52.84,145.31,51.69,146.54,51,146.54Z"/><path d="M50.7,159.05a.58.58,0,0,1-.58-.85,2.35,2.35,0,0,1,1.45-1.34.56.56,0,0,1,.76.6A2.17,2.17,0,0,1,50.7,159.05Z"/><path d="M18.51,141.3c-.06-.69-.13-1.13-.13-1.58,0-4,0-7.94,0-11.9a1.5,1.5,0,0,1,1-1.61c1.44-.59,2.85-1.24,4.3-1.78,1.69-.62,3.4-1.22,5.14-1.68a6.11,6.11,0,0,1,2.59-.06,4.31,4.31,0,0,1,3.24,5.77,5.56,5.56,0,0,1-1.35,2.25,18.13,18.13,0,0,1-2.18,1.93c-3.82,2.69-7.67,5.33-11.52,8C19.32,140.82,19,141,18.51,141.3Z"/><path d="M86.82,128.45A6.19,6.19,0,0,1,85.27,133a4.59,4.59,0,0,1-2,1.21c-.73.24-1.09.12-1.44-.57s-.72-1.69-1.11-2.51c-.64-1.32-1.23-2.67-2-3.93a11.34,11.34,0,0,0-5.14-4.47,9.88,9.88,0,0,1-2.89-1.56,1.55,1.55,0,0,1,.48-2.65,8.38,8.38,0,0,1,4.65-.41,12.34,12.34,0,0,1,6.3,3c.9.8,1.79,1.61,2.61,2.49A6.91,6.91,0,0,1,86.82,128.45Z"/><path d="M78.22,190.77c-.06.49-.09,1-.19,1.46a3.13,3.13,0,0,1-4.32,2.61,3.38,3.38,0,0,1-2.38-2.35,4.48,4.48,0,0,1,.8-4.49A3.16,3.16,0,0,1,75.78,187a3.23,3.23,0,0,1,2.36,3c0,.26,0,.52,0,.78Z"/><path d="M61.58,185.31c-.31-2.75.78-4.48,2.21-5.3a1.44,1.44,0,0,1,.76,2,5.7,5.7,0,0,1-.8,1.45A6.71,6.71,0,0,1,61.58,185.31Z"/><path d="M136.3,165.17a2.58,2.58,0,0,1,1.32-2,1.34,1.34,0,0,1,2,1.24,3,3,0,0,1-.38,1.19,4.68,4.68,0,0,1-.66.84,1.2,1.2,0,0,1-1.47.37,1.15,1.15,0,0,1-.78-1.2C136.32,165.49,136.31,165.39,136.3,165.17Z"/><path d="M142.51,173.47c-.11-1,.62-1.57,1.27-2.18a1,1,0,0,1,1.28,0,1.41,1.41,0,0,1,.76,1.27,2.57,2.57,0,0,1-2.27,2.14C142.69,174.69,142.47,174.45,142.51,173.47Z"/><path d="M168,177.09c-.26-.24-.6-.41-.84-.66-.69-.73-1.38-1.46-2-2.24-1.69-2.07-3.4-4.12-4.89-6.36-1.21-1.82-2.57-3.53-3.92-5.25-4.13-5.26-8.29-10.5-12.43-15.75-.22-.28-.48-.54-.7-.82a2.66,2.66,0,0,1-.61-1.82c.05-1,.15-2,.16-3a1.53,1.53,0,0,1,.65-1.32c2-1.66,4.08-3.33,6.08-5a23.79,23.79,0,0,0,3.94-4.2,20.77,20.77,0,0,1,5.27-4.89,38.06,38.06,0,0,1,6.06-3.67,15.47,15.47,0,0,1,8.31-1.44c.67.09,1.36.06,2,.16a19.83,19.83,0,0,1,16.64,15.05c.13.5.35,1,.53,1.46a4,4,0,0,1,.29.93,19.43,19.43,0,0,1,.2,2.74c-.11,2.69-.21,5.39-.49,8.06a14.87,14.87,0,0,1-1.05,3.57,45.77,45.77,0,0,1-3,6.37,22.07,22.07,0,0,1-3.33,4.33c-2.44,2.59-4.85,5.2-7.35,7.71-1.65,1.67-3.43,3.19-5.17,4.76-.72.66-1.49,1.26-2.23,1.89a1.45,1.45,0,0,0-.4.42m.16-5.34a2.26,2.26,0,0,0,.4-.12c1.89-1.64,3.78-3.28,5.65-4.94a4.6,4.6,0,0,0,.56-.68c.1-.12.2-.26.31-.38,1.21-1.22,2.43-2.43,3.64-3.66a91.56,91.56,0,0,0,7.05-8.88,9.19,9.19,0,0,0,1-1.77c.65-1.43,1.25-2.89,1.82-4.35a5,5,0,0,0,.22-1.23c.06-.52.07-1,.13-1.55.08-.75.24-1.49.29-2.24.06-.92,0-1.85.07-2.75a13.79,13.79,0,0,0-3.25-9.8c-.32-.41-.7-.78-1-1.18a13.35,13.35,0,0,0-3-2.89,23.73,23.73,0,0,0-7.05-3.19c-1.76-.41-3.55-.7-5.33-1a6,6,0,0,0-3.07.23c-1.25.44-2.48.92-3.71,1.41a21.49,21.49,0,0,0-3.77,2.4,45,45,0,0,0-7.53,6.17c-.25.26-.54.47-.8.72a1.44,1.44,0,0,0-.43.5,1.94,1.94,0,0,1-.83.93c-.4.28-.78.58-1.16.89l-5.79,4.77a3.15,3.15,0,0,0-.37.41c.15.22.28.44.44.63l3.76,4.25q4.43,5.09,8.49,10.49,6,8,12,15.89a4.93,4.93,0,0,0,.5.52"/><path d="M186.71,171.45c1.64-.08,3.32,1,4.91,2.29a13.61,13.61,0,0,1,1.31,1.32,7,7,0,0,1,1.49,7.65,17.19,17.19,0,0,1-1.48,3.2c-1.32,2.29-2.72,4.54-4.11,6.79a9.48,9.48,0,0,1-3.76,3.15,1.31,1.31,0,0,1-1.87-.3,11.61,11.61,0,0,1-1.85-2.22.83.83,0,0,0-.3-.38,4.83,4.83,0,0,1-1.58-1.95,36.67,36.67,0,0,1-3.07-6,2.58,2.58,0,0,1-.18-.46c-.2-1.22-.39-2.45-.56-3.67a.57.57,0,0,1,.15-.44,1.61,1.61,0,0,0,.46-1.25,7.74,7.74,0,0,1,5.21-6.73A13.77,13.77,0,0,1,186.71,171.45Zm-.17,16.22a6.41,6.41,0,0,0,5.26-3.09,20.84,20.84,0,0,0,1.37-2.81,4.63,4.63,0,0,0,.1-3.45,6.31,6.31,0,0,0-3.73-4.24,6.46,6.46,0,0,0-5.34-.1c-.21.1-.44.13-.64.24a5.19,5.19,0,0,0-1.06.65,7.87,7.87,0,0,0-2.08,8.78A6.17,6.17,0,0,0,186.54,187.67Zm-5.65-13.44a3.8,3.8,0,0,0-1.82,1.29,9.26,9.26,0,0,0-1.82,4.89,11,11,0,0,0,2,7c1.49,2.37,3,4.73,4.49,7.1.33.51.49.52,1.22,0-.24-.37-.5-.74-.73-1.13-.52-.86-1.06-1.72-1.54-2.6-.9-1.63-1.77-3.28-2.63-4.92a8.67,8.67,0,0,1-.86-1.86c-.79-3.14-.69-6.18,1.18-9C180.54,174.86,180.66,174.64,180.89,174.23Z"/><path d="M112.39,28.07V16.56c0-.33,0-.65,0-1a3.39,3.39,0,0,1,1.79-3,45.64,45.64,0,0,1,15.87-6,15.35,15.35,0,0,1,11.63,2.58,8.65,8.65,0,0,1,3.65,9,14.9,14.9,0,0,1-5.64,9.47c-3.45,2.76-7.08,5.28-10.63,7.9-1,.73-2,1.42-3,2.14a6.46,6.46,0,0,0-.93.7,18.69,18.69,0,0,1-3.61,2.64c-1.88,1.21-3.75,2.44-5.63,3.66a2.27,2.27,0,0,1-1.24.47A2.21,2.21,0,0,1,112.43,43c-.26-4.39-.29-8.79-.18-13.18,0-.59,0-1.19,0-1.78Zm5.71,7.23c.39-.29.6-.44.79-.6a113.53,113.53,0,0,1,10.31-8c1.05-.7,2.1-1.42,3.09-2.21s1.89-1.58,2.78-2.43a6.19,6.19,0,0,0,1.54-2.48c1-2.85-.45-6.61-4.6-6.69a9.36,9.36,0,0,0-3.33.51c-1.83.65-3.65,1.3-5.46,2a35.6,35.6,0,0,0-3.49,1.45c-1.5.77-1.44.47-1.45,2.38,0,3.51,0,7,0,10.53C118.27,31.53,118.17,33.3,118.1,35.3Z"/><path d="M182.2,3.61a24.51,24.51,0,0,1,6,.68,18.32,18.32,0,0,1,10.14,7.31,13.67,13.67,0,0,1,2.46,5.92,11.23,11.23,0,0,1-3.5,10.14,13.1,13.1,0,0,1-3.79,2.53l-.63.25a3.32,3.32,0,0,1-4.42-1.72,23.77,23.77,0,0,1-1.1-2.41,21.59,21.59,0,0,0-2.59-4.71A20.87,20.87,0,0,0,178,15.84c-1-.54-2-1.1-3-1.68A6.21,6.21,0,0,1,173,12.1a4.91,4.91,0,0,1,1.89-7C177.15,3.87,178.81,3.61,182.2,3.61Zm0,4a7.77,7.77,0,0,0-3.49.7,1.66,1.66,0,0,0-.41,2.72A5.6,5.6,0,0,0,180,12.08c.78.32,1.54.68,2.29,1.06a13.16,13.16,0,0,1,4.48,3.68,22.34,22.34,0,0,1,3.06,5.56c.39,1,.78,1.95,1.23,2.89s.79,1,1.73.66a5.14,5.14,0,0,0,2.7-2.13,7.34,7.34,0,0,0,1.06-4.71,8.37,8.37,0,0,0-2.5-5.3c-1.25-1.24-2.56-2.4-3.92-3.51A13.4,13.4,0,0,0,182.18,7.57Z"/><path d="M194.53,69.56l-1.14.53A12.63,12.63,0,0,1,190,71.3c-.13,0-.25.06-.38.07a1.91,1.91,0,0,1-1.93-.87,1.7,1.7,0,0,1,.12-1.94,12.07,12.07,0,0,1,2.85-3.07c1.38-1,2.71-2.12,4.14-3.07s3.21-2,4.83-2.9a3.48,3.48,0,0,1,1-.37,2,2,0,0,1,2.59,1.56,6.36,6.36,0,0,1,.14,1.95,12,12,0,0,1-1.87,5.83A9.56,9.56,0,0,0,200,73.6q-.1,2.5-.24,5a94.6,94.6,0,0,1-1.17,12.24,30.79,30.79,0,0,1-1,3.5,3.41,3.41,0,0,1-.55,1,1.55,1.55,0,0,1-2.72-.14,6.15,6.15,0,0,1-.62-1.84,12.17,12.17,0,0,1-.19-2.26c0-2.69-.06-5.38,0-8.07s.21-5.44.38-8.15c.08-1.28.31-2.54.46-3.81C194.44,70.66,194.47,70.2,194.53,69.56Z"/><path d="M195.76,37.05c-.38.77-.75,1.42-1,2.11-1.3,3.18-2.6,6.36-3.87,9.56A53.58,53.58,0,0,1,187.33,56c-.92,1.59-1.78,3.2-2.71,4.78a22.57,22.57,0,0,1-1.76,2.58,5,5,0,0,1-1.49,1.22,1.62,1.62,0,0,1-2.45-1.19,3.23,3.23,0,0,1,0-1.16,8.1,8.1,0,0,1,1.25-3.07c.71-1.1,1.45-2.17,2.22-3.23A54.68,54.68,0,0,0,189,44.31c.52-1.27,1-2.57,1.42-3.87.64-1.86,1.22-3.73,1.85-5.59A10.26,10.26,0,0,1,193,33,2.15,2.15,0,0,1,195.63,32a5.17,5.17,0,0,1,3.3,2.53,15,15,0,0,1-.83,17,11.23,11.23,0,0,1-3.95,3.1,2.41,2.41,0,0,1-1,.26,1.65,1.65,0,0,1-1.76-1.78,4,4,0,0,1,1-2.38c.75-1,1.45-1.94,2.28-2.81a9.1,9.1,0,0,0,2.28-5,14.82,14.82,0,0,0,.21-2.74A4.47,4.47,0,0,0,195.76,37.05Z"/><path d="M183.36,97.81a6.24,6.24,0,0,1-2.9-.64,10.88,10.88,0,0,1-3.55-2.33,8,8,0,0,1-2.36-6.23A13,13,0,0,1,176,83c1.54-2.81,3.06-5.63,4.61-8.43a17.09,17.09,0,0,1,1.47-2.19,1.36,1.36,0,0,1,2.46.1,7.11,7.11,0,0,1,.6,1.12c1.75,3.88,3.57,7.71,5.07,11.7a10,10,0,0,1,0,7.58,7.65,7.65,0,0,1-5.54,4.9,4,4,0,0,1-.48.07Zm3.7-9.13H187v-.89c0-2.47-2.57-3.85-4.33-3.67a3.33,3.33,0,0,0-2,.87,5.48,5.48,0,0,0-1.09,6.82,2,2,0,0,0,.36.46,4.5,4.5,0,0,0,1.86,1.2c2.66.87,4.46-.38,5.05-2.75A17.23,17.23,0,0,0,187.06,88.68Z"/><path d="M167.2,86.7c-.08,2.13-.13,4.19-.23,6.25-.08,1.38-.21,2.75-.37,4.12a4,4,0,0,1-.86,2.05,1.49,1.49,0,0,1-2,.6A1.71,1.71,0,0,1,162.59,98c0-3.48-.1-7-.15-10.43a28.84,28.84,0,0,1,1-8.37,11,11,0,0,1,1.75-3.7A7.83,7.83,0,0,1,168.72,73a4.24,4.24,0,0,1,4.19.74,5.07,5.07,0,0,1,2.15,4.94,6.11,6.11,0,0,1-1.22,3.17,13.2,13.2,0,0,1-1.68,1.9A13.37,13.37,0,0,1,167.2,86.7Zm.47-4.75a10.45,10.45,0,0,0,2.4-2.27A6.66,6.66,0,0,0,171,78a1.55,1.55,0,0,0-.78-2C168.42,76.8,167.35,79.26,167.67,82Z"/><path d="M150.25,90.51c.8-.11,1.46-.24,2.13-.29,1-.07,2-.13,3-.13a3.56,3.56,0,0,1,2.06.75,2.7,2.7,0,0,1,.91,3.4,5,5,0,0,1-2.42,2.45,15.19,15.19,0,0,1-4.57,1.52,45.89,45.89,0,0,1-7,.81,2.13,2.13,0,0,0-.67.09,8.78,8.78,0,0,1-3.26.28,2.48,2.48,0,0,1-.93-.22,1.28,1.28,0,0,1-.48-2,3.38,3.38,0,0,1,1.43-.93,14.31,14.31,0,0,1,3-.56,28.11,28.11,0,0,0,3.06-.39,31.14,31.14,0,0,1,5.85-.68,3.86,3.86,0,0,0,1.76-.75,6.22,6.22,0,0,0-2.15,0,8.07,8.07,0,0,1-3-.08,2.59,2.59,0,0,1-1.75-3.89,8.18,8.18,0,0,1,3.32-3.35c.86-.51,1.75-1,2.63-1.47a6.91,6.91,0,0,1,2.73-.92,3.35,3.35,0,0,1,1.51.19,1.48,1.48,0,0,1,.35,2.61,4.48,4.48,0,0,1-1.58.69A26.63,26.63,0,0,0,151.7,89C150.91,89.39,150.75,89.56,150.25,90.51Z"/><path d="M159.15,10.83c.72.81,1.4,1.56,2.06,2.32a2.6,2.6,0,0,1,.47.73,1.12,1.12,0,0,1-.26,1.19,1.14,1.14,0,0,1-1.23.36,2.18,2.18,0,0,1-.77-.4,14,14,0,0,1-3.64-3.9c-.59-1-.34-1.82.76-2.11a8.82,8.82,0,0,0,2.79-1.31,1.4,1.4,0,0,0,.6-.81c0-.42-.41-.54-.74-.65a14.25,14.25,0,0,0-5.09,0c.13,1.15.3,2.31.38,3.47.12,1.6.19,3.21.25,4.81a3,3,0,0,1-.22,1.15,1.24,1.24,0,0,1-1.09.86,1.2,1.2,0,0,1-1.16-.75,13.54,13.54,0,0,1-.79-2.21c-.41-1.85-.79-3.72-1.08-5.6a16.64,16.64,0,0,1-.08-2.74c0-.56.44-.82.88-1.06a7.14,7.14,0,0,1,3.43-.87c1.78,0,3.55-.08,5.32-.08a4.13,4.13,0,0,1,2.44.85,2.94,2.94,0,0,1,.44,4.6,7.5,7.5,0,0,1-2.58,1.69Z"/><path d="M23.32,44.06c.3.35.55.61.76.89,2.18,2.89,4.35,5.78,6.54,8.67C36.3,61.15,41.94,68.71,47.91,76c.39.48.77,1,1.13,1.47.49.67.45.7,0,1.35a40.69,40.69,0,0,1-6.84,6.79c-4.36,3.6-8.73,7.19-13.06,10.83a3.72,3.72,0,0,1-2.65.94c-2.81-.06-5.62-.1-8.42-.07-2.17,0-4.33.17-6.49.26-.32,0-.64,0-1,0-.9,0-1.8-.08-2.71-.08a6.54,6.54,0,0,0-3.35.44c-.41-.15-.43-.45-.43-.75-.06-2.56-.2-5.12-.16-7.68.06-4.59-.15-9.17-.13-13.76,0-3.54.08-7.09.12-10.63,0-1.61,0-3.22,0-4.83a1.54,1.54,0,0,1,.59-1.36c3.72-3,7.41-6.14,11.16-9.15,2.25-1.81,4.6-3.5,6.9-5.25C22.77,44.36,23,44.25,23.32,44.06Zm5.19,12a1.93,1.93,0,0,0-1.48.67,3.15,3.15,0,0,0-.69,1.79,1.72,1.72,0,0,0,.81,1.84,1.68,1.68,0,0,0,2-.11,3.14,3.14,0,0,0,1.17-1.53A1.78,1.78,0,0,0,28.51,56.07Zm6.91,8.59a1.69,1.69,0,0,0-1.52.88,6.84,6.84,0,0,0-.5,1.06,1.76,1.76,0,0,0,2,2.43,2.25,2.25,0,0,0,1.82-2.59A2.22,2.22,0,0,0,35.42,64.66Z"/><path d="M84,35.84a13.13,13.13,0,0,1-.44,4.1,7,7,0,0,1-.76,1.8c-.85,1.35-1.77,2.65-2.67,4-1.15,1.7-2.34,3.38-3.45,5.11a15.89,15.89,0,0,1-2.93,3.39c-2.77,2.37-5.56,4.71-8.34,7.05-.53.45-1.07.86-1,1.69a.8.8,0,0,1-.31.56c-.71.57-1.45,1.1-2.18,1.65a.58.58,0,0,1-.86-.08,1.8,1.8,0,0,1-.29-.39,23,23,0,0,0-2.79-3.77c-1.93-2.34-3.93-4.62-5.82-7-2.26-2.83-4.43-5.73-6.65-8.59Q42.82,41.79,40,38.27c-1.23-1.56-2.51-3.08-3.76-4.63-.6-.74-.55-.9.17-1.5,1.67-1.39,3.32-2.81,5-4.22a12,12,0,0,1,1-.74c.41-.27.85-.48,1-1a1,1,0,0,1,.3-.38c.93-.85,1.86-1.72,2.82-2.55,1.17-1,2.35-2,3.57-3S52.7,18.27,54,17.33a8.82,8.82,0,0,1,1.43-.82c1.34-.57,2.69-1.11,4-1.64a9.1,9.1,0,0,1,5.24-.36c1.14.23,2.28.47,3.42.73a25.88,25.88,0,0,1,7.56,3.21,14.88,14.88,0,0,1,3.6,3.26c.23.28.45.55.69.82a14.9,14.9,0,0,1,3.42,6.86A29.06,29.06,0,0,1,84,35.84Zm-3.93-.56c-.14-1-.26-2-.4-3A14.26,14.26,0,0,0,78.35,27c-.28-.48-.46-1-.78-1.46-.78-1.09-1.62-2.12-2.42-3.2A4,4,0,0,0,73.4,21a8.21,8.21,0,0,1-1.93-1.11,4.87,4.87,0,0,0-2-1c-.94-.22-1.89-.42-2.82-.67a6.27,6.27,0,0,0-2.79-.11c-.76.13-1.53.2-2.29.34a11.8,11.8,0,0,0-2.15.5,28.67,28.67,0,0,0-5.88,3.21A66.61,66.61,0,0,0,46.5,28a7.27,7.27,0,0,1-.73.64,18.54,18.54,0,0,0-2.07,2.18.82.82,0,0,0-.17.35,2.18,2.18,0,0,0,.27,2.22c1,1.37,1.94,2.78,2.88,4.19.38.57.7,1.18,1.06,1.76.2.34.41.69.86.72a1.48,1.48,0,0,1,1.1.71l2.16,2.79c3.13,4.09,6.52,8,9.47,12.21A16,16,0,0,0,63,57.68c.41.42.54.44,1,.07Q65.73,56.39,67.4,55c.76-.66,1.46-1.39,2.23-2A31.29,31.29,0,0,0,79.1,38.55a4.19,4.19,0,0,1,.37-1A4.47,4.47,0,0,0,80.1,35.28ZM53.15,52.69l.19,0A2.23,2.23,0,0,0,55,50.25c-.16-.66-1-1.23-1.56-1A2.4,2.4,0,0,0,52,51,1.37,1.37,0,0,0,53.15,52.69ZM44.2,41.15a1.64,1.64,0,0,0,1.69,1.72,1.52,1.52,0,0,0,1.4-1.57c.07-1.11-.71-1.49-1.77-1.61C44.75,39.59,44.21,40.26,44.2,41.15Z"/><path d="M87.89,74.17a6.49,6.49,0,0,1-1.08,5.1c-1.31,2-2.63,4-4,6a22.81,22.81,0,0,1-2,2.39,7.3,7.3,0,0,1-2.66,1.75,2.88,2.88,0,0,1-3.28-1c-1.14-1.58-2.26-3.19-3.46-4.73a19,19,0,0,1-2.68-5.42,14.67,14.67,0,0,1-.48-2.3,2,2,0,0,1,0-.59c.09-.61.22-1.22.28-1.84A8.46,8.46,0,0,1,72.4,67a6.94,6.94,0,0,1,2.35-1.1c1-.24,1.91-.58,2.86-.88a2.31,2.31,0,0,1,1.51.09,13.14,13.14,0,0,0,1.77.46c.94.21,1.9.35,2.83.62a2.66,2.66,0,0,1,1.24.71A9.57,9.57,0,0,1,87.56,71a9.75,9.75,0,0,1,.33,3.15ZM78,88.86a2.2,2.2,0,0,0,.48-.27c.87-.91,1.77-1.81,2.6-2.77,1.62-1.86,2.83-4,4.43-5.94a2.23,2.23,0,0,0,.2-.33c1.41-2.74,2.2-7.87-1-11.14a3.74,3.74,0,0,0-2-1.27c-1.11-.2-2.23-.36-3.34-.55a6.6,6.6,0,0,0-2.69.14,9.06,9.06,0,0,0-3.52,1.76,7,7,0,0,0-2.63,5.36,18.61,18.61,0,0,0,.59,4.47,2.42,2.42,0,0,0,.76,1.32,7.29,7.29,0,0,1,1.39,1.75c1.1,1.78,2.18,3.57,3.28,5.34C77,87.44,77.51,88.13,78,88.86Z"/><path d="M34.5,34.43a10.1,10.1,0,0,1,.87.86q3.65,4.6,7.27,9.22c.35.43.75.81,1.1,1.24.85,1,1.7,2.06,2.52,3.11q6.57,8.47,13.11,17a2.34,2.34,0,0,1,.58,1.9,16.87,16.87,0,0,0,0,2c-.23-.08-.38-.08-.44-.16C58.31,68.29,57.07,67,56,65.67c-1.65-2-3.25-4.08-4.81-6.17-1-1.3-1.83-2.7-2.76-4-.47-.67-1-1.3-1.48-1.94-1.78-2.3-3.55-4.6-5.34-6.88-1.48-1.91-3-3.79-4.48-5.69-.55-.69-1-1.42-1.62-2.09a6.7,6.7,0,0,1-1.21-3,5.44,5.44,0,0,1,0-1.34Z"/><path d="M61.82,71.48a9.55,9.55,0,0,1-.08-3,1.42,1.42,0,0,1,.55-.78c.9-.79,1.83-1.55,2.74-2.34a31.77,31.77,0,0,0,3.37-2.95C71.52,58.87,75,55.7,77.9,52c.84-1.08,1.78-2.08,2.58-3.19S82.13,46.29,83,45a1.28,1.28,0,0,1,.58-.51,8.94,8.94,0,0,1-.34,1.4c-.75,1.82-1.49,3.64-2.34,5.4a18.05,18.05,0,0,1-3.13,4.48c-1.77,1.92-3.5,3.87-5.24,5.81a66.29,66.29,0,0,1-5.18,4.88l-4.25,3.88Z"/><path d="M49.66,80.3c.06,1,.17,1.94.16,2.91a1.58,1.58,0,0,1-.54.87c-.72.7-1.49,1.36-2.24,2q-3.42,3-6.86,6.08c-1,.86-2,1.67-3,2.51-.72.6-1.46,1.18-2.16,1.82a2.2,2.2,0,0,1-1.56.66c-.77,0-1.54.07-2.32.08a5.67,5.67,0,0,1-.87-.09,5.54,5.54,0,0,1,.48-.59c2.09-1.76,4.19-3.5,6.27-5.26.7-.59,1.35-1.22,2-1.83l5-4.51,4.83-4.38c.16-.14.35-.26.52-.39Z"/><path d="M185.65,134.26c.2.78.41,1.61.63,2.42a22.21,22.21,0,0,1,.66,7.12,15.35,15.35,0,0,1-2.52,8,44.64,44.64,0,0,1-4.93,6.19q-2.38,2.44-4.84,4.82a21.93,21.93,0,0,1-2,1.65.67.67,0,0,1-.89.06,6.7,6.7,0,0,1-1.41-1.16c-1.86-2.44-3.79-4.82-5.67-7.24-2.95-3.78-5.86-7.58-8.82-11.36-1.2-1.53-2.46-3-3.71-4.53a.7.7,0,0,1-.15-.8,5.5,5.5,0,0,1,.68-1.18,41,41,0,0,1,3.17-3.15c1.64-1.53,3.22-3.12,4.83-4.68a4.38,4.38,0,0,1,.83-.66c1.58-1,3.18-1.9,4.77-2.83a7,7,0,0,1,3.35-.82,23.77,23.77,0,0,1,5.76.69,19.82,19.82,0,0,1,5.35,2,5.81,5.81,0,0,1,1.66,1.44c.82,1,1.48,2.05,2.27,3.05A9.63,9.63,0,0,0,185.65,134.26Zm-7-.77a2,2,0,0,0-1.58-1.16,4.92,4.92,0,0,1-2.25-.83,2,2,0,0,0-1.29-.33,4,4,0,0,1-1.42-.09,2.69,2.69,0,0,0-1.61-.07c-1.06.29-2.11.61-3.18.87a8.71,8.71,0,0,0-3,1.4c-.61.43-1.19.9-1.77,1.36-2.52,2-4.74,4.33-7.18,6.41-.09.09-.17.2-.33.39.21.28.36.53.55.75.69.78,1.41,1.52,2.08,2.32,1.32,1.58,2.63,3.16,3.89,4.78q5,6.38,9.86,12.78c.21.28.45.53.57.68.82-.74,1.57-1.4,2.3-2.09,1.25-1.18,2.44-2.44,3.76-3.54a13.37,13.37,0,0,0,2-2.08c.37-.46.74-.91,1.12-1.36a9.63,9.63,0,0,0,2.26-4.19,33.1,33.1,0,0,0,.46-3.6,11.59,11.59,0,0,0-.56-4.46,30.77,30.77,0,0,0-1.63-4,18.38,18.38,0,0,0-1.53-2.61"/><path d="M153.1,148.07a2.87,2.87,0,0,1,.27-.88c.68-1.09,1.39-.9,2.24-.2a.44.44,0,0,1,.12.15,1.6,1.6,0,0,1-.37,1.63c-.34.47-.7,1-1.41.78S153.12,149.06,153.1,148.07Z"/><path d="M163,157a1.89,1.89,0,0,1-1.45,1.74.78.78,0,0,1-.88-.44c-.19-.35-.42-.7-.13-1.09a2.3,2.3,0,0,1,1.57-1.05A.72.72,0,0,1,163,157Z"/><path d="M185.92,185c-2.25-.06-3.41-1.49-3.42-3.67a4.76,4.76,0,0,1,2.72-4.53,2.32,2.32,0,0,1,1.49-.25,7,7,0,0,1,2.73.9,2.77,2.77,0,0,1,1.29,2.2A4.87,4.87,0,0,1,185.92,185Zm.94-6.77a2,2,0,0,0-2.57,1.19,3.6,3.6,0,0,0,.13,3.2,1,1,0,0,0,1.69.36,5.57,5.57,0,0,0,1.31-2.58,2.36,2.36,0,0,0-.36-1.68Z"/><path d="M77.35,39.36c0-.75,0-1.31,0-1.86a8.36,8.36,0,0,0-.68-3.35c-.76-1.66-1.5-3.34-2.31-5a6.67,6.67,0,0,0-1.23-1.62c-.84-.86-1.76-1.65-2.62-2.49a5.54,5.54,0,0,0-2-1.29,14.94,14.94,0,0,0-1.56-.51,8.38,8.38,0,0,0-1.72-.18c-.77,0-1.54.16-2.32.21a6.72,6.72,0,0,0-3.33,1.2,47.88,47.88,0,0,0-6,4.51c-1.86,1.73-3.72,3.46-5.56,5.2-.4.37-.76.79-1.12,1.18a7.52,7.52,0,0,1-2.38-3l1.26-1.14,2.07-1.91c1.41-1.3,2.89-2.53,4.23-3.89a25.61,25.61,0,0,1,4.29-3.36,15.11,15.11,0,0,1,7.39-2.36,11.22,11.22,0,0,1,4.91.86A10.86,10.86,0,0,1,72.71,23a13,13,0,0,1,3.38,5.42c.13.49.27.93.86,1.07.19.05.38.34.47.57a14.22,14.22,0,0,1,.89,6.65A6.27,6.27,0,0,1,77.35,39.36Z"/><path d="M79,82.11a6.57,6.57,0,0,1-6.82-5.38,8,8,0,0,1,2.35-7.81A3.67,3.67,0,0,1,76.13,68a2.53,2.53,0,0,0,.55-.18c2.33-1.08,4.53-.45,6.57.72A6.39,6.39,0,0,1,86,72.43,4.69,4.69,0,0,1,85.87,76c-.48,1-.92,2-1.44,2.89A6.29,6.29,0,0,1,79,82.11Zm-4.57-6.54a2.66,2.66,0,0,0,1.14,2.72,3.23,3.23,0,0,1,.44.39,3.15,3.15,0,0,0,2.47.92,4.11,4.11,0,0,0,3.17-1.41,6.6,6.6,0,0,0,1.37-2.78,3.61,3.61,0,0,0-1.88-4.28,3.55,3.55,0,0,1-.43-.23,3.73,3.73,0,0,0-5.28,1.56,3.49,3.49,0,0,1-.4.67A3.4,3.4,0,0,0,74.46,75.57Z"/><path d="M81.43,75a2.86,2.86,0,0,1-3.86,2.78,2.43,2.43,0,0,1-1.13-1,3.13,3.13,0,0,1,1.61-4.42C80.07,71.74,81.49,72.81,81.43,75Z"/><rect class="cls-1" x="108.74" y="107.03" width="98.45" height="100.06"/></g></g></svg>