<svg
    xmlns="http://www.w3.org/2000/svg"
    viewBox="0 0 512 512"
    id="vector">
    <path
        id="path"
        d="M 256 256 M 0 256 C 0 188.131 26.99 122.972 74.981 74.981 C 122.972 26.99 188.131 0 256 0 C 323.869 0 389.028 26.99 437.019 74.981 C 485.01 122.972 512 188.131 512 256 C 512 323.869 485.01 389.028 437.019 437.019 C 389.028 485.01 323.869 512 256 512 C 188.131 512 122.972 485.01 74.981 437.019 C 26.99 389.028 0 323.869 0 256"
        fill="#80e29d"/>
    <path
        id="path_1"
        d="M 504.052 319.522 L 335.443 150.912 C 335.443 150.912 207.808 112.159 187.377 206.865 C 166.946 301.571 187.377 368.625 187.377 368.625 L 322.115 503.363 C 411.223 479.606 481.207 408.998 504.052 319.522 Z"
        fill="#4daf6e"/>
    <path
        id="path_2"
        d="M 257.642 395.709 C 199.809 395.709 152.757 348.658 152.757 290.824 L 152.757 221.178 C 152.757 163.344 199.808 116.293 257.642 116.293 C 315.476 116.293 362.527 163.344 362.527 221.178 L 362.527 290.824 C 362.527 348.658 315.476 395.709 257.642 395.709 Z M 257.642 174.293 C 231.79 174.293 210.757 195.325 210.757 221.178 L 210.757 290.824 C 210.757 316.677 231.789 337.709 257.642 337.709 C 283.495 337.709 304.527 316.677 304.527 290.824 L 304.527 221.178 C 304.527 195.325 283.495 174.293 257.642 174.293 Z"
        fill="#f8fffb"/>
    <path
        id="path_3"
        d="M 257.647 116.29 L 257.647 174.29 C 283.497 174.29 304.527 195.32 304.527 221.18 L 304.527 290.82 C 304.527 316.68 283.497 337.71 257.647 337.71 L 257.647 395.71 C 315.477 395.71 362.527 348.66 362.527 290.82 L 362.527 221.18 C 362.527 163.34 315.477 116.29 257.647 116.29 Z"
        fill="#d8d8d8"/>
</svg>
