<svg id="vector" xmlns="http://www.w3.org/2000/svg" viewBox="0 0 411.61 512"><defs><style>.cls-1{fill:none;}.cls-2{fill:#f9c5ac;}.cls-3{fill:#efb29a;}.cls-4{fill:#dd9f8a;}.cls-5{fill:#fff;}.cls-6{fill:#f6f9f9;}.cls-7{fill:#27353d;}.cls-8{fill:#000f17;}.cls-9{fill:#75cef9;}.cls-10{fill:#5ea5ec;}</style></defs><path id="path_1" data-name="path 1" class="cls-1" d="M398.41,468.76a254.55,254.55,0,0,1-68.83,32.5c-1.12.34-2.25.67-3.38,1a257.72,257.72,0,0,1-140.4,0q-10.86-3.09-21.33-7.12l-1.29-.49c-3.51-1.36-7-2.81-10.41-4.32a254.76,254.76,0,0,1-39.19-21.58,126,126,0,0,1,39.19-35.32,124.22,124.22,0,0,1,33-13.15q2.72-.66,5.48-1.19,5.21-1,10.57-1.57c1-.11,2.05-.21,3.09-.29q5.07-.42,10.26-.42h81.59a127.72,127.72,0,0,1,13.35.7c3.57.37,7.09.9,10.57,1.56q2.09.4,4.14.87c.45.12.91.21,1.35.33q5.22,1.26,10.26,2.94a124.07,124.07,0,0,1,22.77,10.22A126.14,126.14,0,0,1,398.41,468.76Z" transform="translate(-50.19)"/><path id="path_2" data-name="path 2" class="cls-1" d="M215.2,416.81c-29.36,0-49.26,42.43-50.73,78.33l-1.29-.49c-3.51-1.36-7-2.81-10.41-4.32a254.76,254.76,0,0,1-39.19-21.58,126,126,0,0,1,39.19-35.32,124.22,124.22,0,0,1,33-13.15q2.72-.66,5.48-1.19,5.21-1,10.57-1.57c1-.11,2.05-.21,3.09-.29Q210,416.81,215.2,416.81Z" transform="translate(-50.19)"/><path id="path_3" data-name="path 3" class="cls-2" d="M320.71,419.07v4.34a64.72,64.72,0,0,1-129.43,0v-4.32q5.21-1,10.57-1.57c1-.11,2.05-.21,3.09-.29q5.07-.42,10.26-.42h81.59a127.72,127.72,0,0,1,13.35.7C313.71,417.88,317.23,418.41,320.71,419.07Z" transform="translate(-50.19)"/><path id="path_4" data-name="path 4" class="cls-3" d="M204.94,417.23c-1,.08-2.06.18-3.09.29q-5.35.56-10.57,1.57v4.32c0,1.24,0,2.48.11,3.71,6.91-6.42,14.93-10.31,23.81-10.31Q210,416.81,204.94,417.23Z" transform="translate(-50.19)"/><path id="path_5" data-name="path 5" class="cls-3" d="M300.71,368.54v54.87a44.72,44.72,0,0,1-89.43,0V368.54Z" transform="translate(-50.19)"/><path id="path_6" data-name="path 6" class="cls-2" d="M300.71,419.93v3.48a44.71,44.71,0,0,1-31.49,42.7,44.7,44.7,0,0,1-31.13-36.88q4.49.27,9,.27a153.89,153.89,0,0,0,24.83-2A151.89,151.89,0,0,0,300.71,419.93Z" transform="translate(-50.19)"/><path id="path_7" data-name="path 7" class="cls-2" d="M132.54,278.15A41.16,41.16,0,1,1,98,237.51,41.17,41.17,0,0,1,132.54,278.15Z" transform="translate(-50.19)"/><path id="path_8" data-name="path 8" class="cls-3" d="M132.54,278.15A41.17,41.17,0,0,1,98,318.8a154,154,0,0,1,0-81.29A41.17,41.17,0,0,1,132.54,278.15Z" transform="translate(-50.19)"/><path id="path_9" data-name="path 9" class="cls-3" d="M76.65,278.15A14.72,14.72,0,1,1,81,288.56a14.71,14.71,0,0,1-4.31-10.41" transform="translate(-50.19)"/><path id="path_10" data-name="path 10" class="cls-2" d="M379.45,278.15A41.16,41.16,0,1,0,414,237.51,41.17,41.17,0,0,0,379.45,278.15Z" transform="translate(-50.19)"/><path id="path_11" data-name="path 11" class="cls-3" d="M379.45,278.15A41.17,41.17,0,0,0,414,318.8a154,154,0,0,0,0-81.29A41.17,41.17,0,0,0,379.45,278.15Z" transform="translate(-50.19)"/><path id="path_12" data-name="path 12" class="cls-3" d="M405.91,278.15a14.72,14.72,0,1,1,4.31,10.41,14.71,14.71,0,0,1-4.31-10.41" transform="translate(-50.19)"/><path id="path_13" data-name="path 13" class="cls-1" d="M256,431.21c-46.5,0-90.37-18.47-123.52-52A175.59,175.59,0,0,1,81.29,255.12V192.34C81.29,96,159.66,17.64,256,17.64S430.7,96,430.7,192.34v64.17a174.65,174.65,0,0,1-173.95,174.7Z" transform="translate(-50.19)"/><path id="path_14" data-name="path 14" class="cls-2" d="M410.7,256.51A154.73,154.73,0,0,1,280.82,409.22a152.54,152.54,0,0,1-24.16,2c-85.45.36-155.37-70.64-155.37-156.09V192.34a154.71,154.71,0,0,1,309.41,0v64.17Z" transform="translate(-50.19)"/><path id="path_15" data-name="path 15" class="cls-3" d="M285.43,408.4c-1.53.3-3.07.57-4.61.82a152.64,152.64,0,0,1-24.16,2c-85.45.36-155.37-70.64-155.37-156.09V192.34a154.82,154.82,0,0,1,184-151.93A154.74,154.74,0,0,0,159.82,192.34v62.78C159.82,330.4,214.08,394.47,285.43,408.4Z" transform="translate(-50.19)"/><path id="path_16" data-name="path 16" class="cls-4" d="M256,337.93a78.2,78.2,0,0,1-37.71-9.74,6.88,6.88,0,1,1,6.63-12.06,64.22,64.22,0,0,0,62.17,0,6.88,6.88,0,1,1,6.63,12.06A78.21,78.21,0,0,1,256,337.93Z" transform="translate(-50.19)"/><path id="path_17" data-name="path 17" class="cls-3" d="M281.34,249.16a31.08,31.08,0,1,0,62.16,0" transform="translate(-50.19)"/><path id="path_18" data-name="path 18" class="cls-1" d="M290.13,249.16a22.26,22.26,0,1,1,4.23,13.14,22.4,22.4,0,0,1-4.23-13.14" transform="translate(-50.19)"/><path id="path_19" data-name="path 19" class="cls-5" d="M312.16,245.23a9.54,9.54,0,1,1,1.81,5.63,9.57,9.57,0,0,1-1.81-5.63" transform="translate(-50.19)"/><path id="path_20" data-name="path 20" class="cls-3" d="M168.49,249.16a31.08,31.08,0,0,0,62.16,0" transform="translate(-50.19)"/><path id="path_21" data-name="path 21" class="cls-1" d="M177.28,249.16a22.29,22.29,0,1,1,6.53,15.76,22.29,22.29,0,0,1-6.53-15.76" transform="translate(-50.19)"/><path id="path_22" data-name="path 22" class="cls-1" d="M204.78,270.83a21.86,21.86,0,0,1-5.21.62,22.29,22.29,0,0,1,0-44.58,21.86,21.86,0,0,1,5.21.62,22.29,22.29,0,0,0,0,43.34Z" transform="translate(-50.19)"/><path id="path_23" data-name="path 23" class="cls-1" d="M317.63,270.83a21.86,21.86,0,0,1-5.21.62,22.29,22.29,0,0,1,0-44.58,21.86,21.86,0,0,1,5.21.62,22.29,22.29,0,0,0,0,43.34Z" transform="translate(-50.19)"/><path id="path_24" data-name="path 24" class="cls-5" d="M199.31,245.23a9.54,9.54,0,0,1,6.6-9.08,9.55,9.55,0,0,1,5.9,18.16,9.55,9.55,0,0,1-12.5-9.08" transform="translate(-50.19)"/><path id="path_25" data-name="path 25" class="cls-3" d="M273.54,291.69H238.45a7.57,7.57,0,1,1,0-15.14h35.09a7.57,7.57,0,1,1,0,15.14Z" transform="translate(-50.19)"/><path id="path_26" data-name="path 26" class="cls-1" d="M283.64,0H228.35A151.88,151.88,0,0,0,76.47,151.88v64.74h359V151.88A151.88,151.88,0,0,0,283.64,0Z" transform="translate(-50.19)"/><path id="path_27" data-name="path 27" class="cls-1" d="M291.91.23A151.88,151.88,0,0,0,148.3,151.88v64.74H76.47V151.88A151.88,151.88,0,0,1,228.35,0h55.29C286.41,0,289.17.07,291.91.23Z" transform="translate(-50.19)"/><path id="path_28" data-name="path 28" class="cls-1" d="M140.1,125.34a24.43,24.43,0,1,1,4.64,14.4,24.52,24.52,0,0,1-4.64-14.4" transform="translate(-50.19)"/><path id="path_29" data-name="path 29" class="cls-1" d="M170.53,149a24.44,24.44,0,1,1,0-47.4,24.44,24.44,0,0,0,0,47.4Z" transform="translate(-50.19)"/><path id="path_30" data-name="path 30" class="cls-1" d="M323,125.34a24.45,24.45,0,1,1,7.16,17.28A24.49,24.49,0,0,1,323,125.34" transform="translate(-50.19)"/><path id="path_31" data-name="path 31" class="cls-1" d="M341.45,149a24.77,24.77,0,0,0,6,.74,24.44,24.44,0,0,0,0-48.88,24.77,24.77,0,0,0-6,.74,24.44,24.44,0,0,1,0,47.4Z" transform="translate(-50.19)"/><path id="path_32" data-name="path 32" class="cls-5" d="M256,74.62a43,43,0,0,0-24.6,78.28v9.29a8.2,8.2,0,1,0,16.4,0,8.21,8.21,0,0,0,16.41,0,8.2,8.2,0,1,0,16.4,0V152.9A43,43,0,0,0,256,74.62Zm-21.94,66.07a13.3,13.3,0,1,1,13.3-13.3A13.3,13.3,0,0,1,234.05,140.69Zm43.89,0a13.3,13.3,0,1,1,13.3-13.3A13.31,13.31,0,0,1,277.94,140.69Z" transform="translate(-50.19)"/><path id="path_33" data-name="path 33" class="cls-6" d="M417.83,90.19l18-6.17a6,6,0,0,0,0-11.33l-18-6.17a6,6,0,0,1-3.72-3.72l-6.17-18a6,6,0,0,0-11.34,0l-6.17,18a6,6,0,0,1-3.72,3.72l-18,6.17a6,6,0,0,0,0,11.33l18,6.17a6,6,0,0,1,3.72,3.72l6.17,18a6,6,0,0,0,11.34,0l6.17-18A6,6,0,0,1,417.83,90.19Z" transform="translate(-50.19)"/><path id="path_35" data-name="path 35" class="cls-7" d="M398.41,468.76a254.55,254.55,0,0,1-68.83,32.5c-1.12.34-2.25.67-3.38,1a257.72,257.72,0,0,1-140.4,0q-10.86-3.09-21.33-7.12l-1.29-.49c-3.51-1.36-7-2.81-10.41-4.32a254.76,254.76,0,0,1-39.19-21.58,126,126,0,0,1,39.19-35.32,124.22,124.22,0,0,1,33-13.15q2.72-.66,5.48-1.19,5.21-1,10.57-1.57c1-.11,2.05-.21,3.09-.29q5.07-.42,10.26-.42h81.59a127.72,127.72,0,0,1,13.35.7c3.57.37,7.09.9,10.57,1.56q2.09.4,4.14.87c.45.12.91.21,1.35.33q5.22,1.26,10.26,2.94a124.07,124.07,0,0,1,22.77,10.22A126.14,126.14,0,0,1,398.41,468.76Z" transform="translate(-50.19)"/><path id="path_36" data-name="path 36" class="cls-8" d="M215.2,416.81c-29.36,0-49.26,42.43-50.73,78.33l-1.29-.49c-3.51-1.36-7-2.81-10.41-4.32a254.76,254.76,0,0,1-39.19-21.58,126,126,0,0,1,39.19-35.32,124.22,124.22,0,0,1,33-13.15q2.72-.66,5.48-1.19,5.21-1,10.57-1.57c1-.11,2.05-.21,3.09-.29Q210,416.81,215.2,416.81Z" transform="translate(-50.19)"/><path id="path_37" data-name="path 37" class="cls-2" d="M320.71,419.07v4.34a64.72,64.72,0,0,1-129.43,0v-4.32q5.21-1,10.57-1.57c1-.11,2.05-.21,3.09-.29q5.07-.42,10.26-.42h81.59a127.72,127.72,0,0,1,13.35.7C313.71,417.88,317.23,418.41,320.71,419.07Z" transform="translate(-50.19)"/><path id="path_38" data-name="path 38" class="cls-3" d="M204.94,417.23c-1,.08-2.06.18-3.09.29q-5.35.56-10.57,1.57v4.32c0,1.24,0,2.48.11,3.71,6.91-6.42,14.93-10.31,23.81-10.31Q210,416.81,204.94,417.23Z" transform="translate(-50.19)"/><path id="path_39" data-name="path 39" class="cls-3" d="M300.71,368.54v54.87a44.72,44.72,0,0,1-89.43,0V368.54Z" transform="translate(-50.19)"/><path id="path_40" data-name="path 40" class="cls-2" d="M300.71,419.93v3.48a44.71,44.71,0,0,1-31.49,42.7,44.7,44.7,0,0,1-31.13-36.88q4.49.27,9,.27a153.89,153.89,0,0,0,24.83-2A151.89,151.89,0,0,0,300.71,419.93Z" transform="translate(-50.19)"/><path id="path_41" data-name="path 41" class="cls-2" d="M132.54,278.15A41.16,41.16,0,1,1,98,237.51,41.17,41.17,0,0,1,132.54,278.15Z" transform="translate(-50.19)"/><path id="path_42" data-name="path 42" class="cls-3" d="M132.54,278.15A41.17,41.17,0,0,1,98,318.8a154,154,0,0,1,0-81.29A41.17,41.17,0,0,1,132.54,278.15Z" transform="translate(-50.19)"/><path id="path_43" data-name="path 43" class="cls-3" d="M76.65,278.15A14.72,14.72,0,1,1,81,288.56a14.71,14.71,0,0,1-4.31-10.41" transform="translate(-50.19)"/><path id="path_44" data-name="path 44" class="cls-2" d="M379.45,278.15A41.16,41.16,0,1,0,414,237.51,41.17,41.17,0,0,0,379.45,278.15Z" transform="translate(-50.19)"/><path id="path_45" data-name="path 45" class="cls-3" d="M379.45,278.15A41.17,41.17,0,0,0,414,318.8a154,154,0,0,0,0-81.29A41.17,41.17,0,0,0,379.45,278.15Z" transform="translate(-50.19)"/><path id="path_46" data-name="path 46" class="cls-3" d="M405.91,278.15a14.72,14.72,0,1,1,4.31,10.41,14.71,14.71,0,0,1-4.31-10.41" transform="translate(-50.19)"/><path id="path_47" data-name="path 47" class="cls-7" d="M256,431.21c-46.5,0-90.37-18.47-123.52-52A175.59,175.59,0,0,1,81.29,255.12V192.34C81.29,96,159.66,17.64,256,17.64S430.7,96,430.7,192.34v64.17a174.65,174.65,0,0,1-173.95,174.7Z" transform="translate(-50.19)"/><path id="path_48" data-name="path 48" class="cls-2" d="M410.7,256.51A154.73,154.73,0,0,1,280.82,409.22a152.54,152.54,0,0,1-24.16,2c-85.45.36-155.37-70.64-155.37-156.09V192.34a154.71,154.71,0,0,1,309.41,0v64.17Z" transform="translate(-50.19)"/><path id="path_49" data-name="path 49" class="cls-3" d="M285.43,408.4c-1.53.3-3.07.57-4.61.82a152.64,152.64,0,0,1-24.16,2c-85.45.36-155.37-70.64-155.37-156.09V192.34a154.82,154.82,0,0,1,184-151.93A154.74,154.74,0,0,0,159.82,192.34v62.78C159.82,330.4,214.08,394.47,285.43,408.4Z" transform="translate(-50.19)"/><path id="path_50" data-name="path 50" class="cls-4" d="M256,337.93a78.2,78.2,0,0,1-37.71-9.74,6.88,6.88,0,1,1,6.63-12.06,64.22,64.22,0,0,0,62.17,0,6.88,6.88,0,1,1,6.63,12.06A78.21,78.21,0,0,1,256,337.93Z" transform="translate(-50.19)"/><path id="path_51" data-name="path 51" class="cls-3" d="M281.34,249.16a31.08,31.08,0,1,0,62.16,0" transform="translate(-50.19)"/><path id="path_52" data-name="path 52" class="cls-7" d="M290.13,249.16a22.26,22.26,0,1,1,4.23,13.14,22.4,22.4,0,0,1-4.23-13.14" transform="translate(-50.19)"/><path id="path_53" data-name="path 53" class="cls-5" d="M312.16,245.23a9.54,9.54,0,1,1,1.81,5.63,9.57,9.57,0,0,1-1.81-5.63" transform="translate(-50.19)"/><path id="path_54" data-name="path 54" class="cls-3" d="M168.49,249.16a31.08,31.08,0,0,0,62.16,0" transform="translate(-50.19)"/><path id="path_55" data-name="path 55" class="cls-7" d="M177.28,249.16a22.29,22.29,0,1,1,6.53,15.76,22.29,22.29,0,0,1-6.53-15.76" transform="translate(-50.19)"/><path id="path_56" data-name="path 56" class="cls-8" d="M204.78,270.83a21.86,21.86,0,0,1-5.21.62,22.29,22.29,0,0,1,0-44.58,21.86,21.86,0,0,1,5.21.62,22.29,22.29,0,0,0,0,43.34Z" transform="translate(-50.19)"/><path id="path_57" data-name="path 57" class="cls-8" d="M317.63,270.83a21.86,21.86,0,0,1-5.21.62,22.29,22.29,0,0,1,0-44.58,21.86,21.86,0,0,1,5.21.62,22.29,22.29,0,0,0,0,43.34Z" transform="translate(-50.19)"/><path id="path_58" data-name="path 58" class="cls-5" d="M199.31,245.23a9.54,9.54,0,0,1,6.6-9.08,9.55,9.55,0,0,1,5.9,18.16,9.55,9.55,0,0,1-12.5-9.08" transform="translate(-50.19)"/><path id="path_59" data-name="path 59" class="cls-3" d="M273.54,291.69H238.45a7.57,7.57,0,1,1,0-15.14h35.09a7.57,7.57,0,1,1,0,15.14Z" transform="translate(-50.19)"/><path id="path_60" data-name="path 60" class="cls-9" d="M283.64,0H228.35A151.88,151.88,0,0,0,76.47,151.88v64.74h359V151.88A151.88,151.88,0,0,0,283.64,0Z" transform="translate(-50.19)"/><path id="path_61" data-name="path 61" class="cls-10" d="M291.91.23A151.88,151.88,0,0,0,148.3,151.88v64.74H76.47V151.88A151.88,151.88,0,0,1,228.35,0h55.29C286.41,0,289.17.07,291.91.23Z" transform="translate(-50.19)"/><path id="path_62" data-name="path 62" class="cls-7" d="M140.1,125.34a24.43,24.43,0,1,1,4.64,14.4,24.52,24.52,0,0,1-4.64-14.4" transform="translate(-50.19)"/><path id="path_63" data-name="path 63" class="cls-10" d="M170.53,149a24.44,24.44,0,1,1,0-47.4,24.44,24.44,0,0,0,0,47.4Z" transform="translate(-50.19)"/><path id="path_64" data-name="path 64" class="cls-7" d="M323,125.34a24.45,24.45,0,1,1,7.16,17.28A24.49,24.49,0,0,1,323,125.34" transform="translate(-50.19)"/><path id="path_65" data-name="path 65" class="cls-10" d="M341.45,149a24.77,24.77,0,0,0,6,.74,24.44,24.44,0,0,0,0-48.88,24.77,24.77,0,0,0-6,.74,24.44,24.44,0,0,1,0,47.4Z" transform="translate(-50.19)"/><path id="path_66" data-name="path 66" class="cls-5" d="M256,74.62a43,43,0,0,0-24.6,78.28v9.29a8.2,8.2,0,1,0,16.4,0,8.21,8.21,0,0,0,16.41,0,8.2,8.2,0,1,0,16.4,0V152.9A43,43,0,0,0,256,74.62Zm-21.94,66.07a13.3,13.3,0,1,1,13.3-13.3A13.3,13.3,0,0,1,234.05,140.69Zm43.89,0a13.3,13.3,0,1,1,13.3-13.3A13.31,13.31,0,0,1,277.94,140.69Z" transform="translate(-50.19)"/><path id="path_69" data-name="path 69" class="cls-7" d="M398.41,468.76a254.55,254.55,0,0,1-68.83,32.5c-1.12.34-2.25.67-3.38,1a257.72,257.72,0,0,1-140.4,0q-10.86-3.09-21.33-7.12l-1.29-.49c-3.51-1.36-7-2.81-10.41-4.32a254.76,254.76,0,0,1-39.19-21.58,126,126,0,0,1,39.19-35.32,124.22,124.22,0,0,1,33-13.15q2.72-.66,5.48-1.19,5.21-1,10.57-1.57c1-.11,2.05-.21,3.09-.29q5.07-.42,10.26-.42h81.59a127.72,127.72,0,0,1,13.35.7c3.57.37,7.09.9,10.57,1.56q2.09.4,4.14.87c.45.12.91.21,1.35.33q5.22,1.26,10.26,2.94a124.07,124.07,0,0,1,22.77,10.22A126.14,126.14,0,0,1,398.41,468.76Z" transform="translate(-50.19)"/><path id="path_70" data-name="path 70" class="cls-8" d="M215.2,416.81c-29.36,0-49.26,42.43-50.73,78.33l-1.29-.49c-3.51-1.36-7-2.81-10.41-4.32a254.76,254.76,0,0,1-39.19-21.58,126,126,0,0,1,39.19-35.32,124.22,124.22,0,0,1,33-13.15q2.72-.66,5.48-1.19,5.21-1,10.57-1.57c1-.11,2.05-.21,3.09-.29Q210,416.81,215.2,416.81Z" transform="translate(-50.19)"/><path id="path_71" data-name="path 71" class="cls-2" d="M320.71,419.07v4.34a64.72,64.72,0,0,1-129.43,0v-4.32q5.21-1,10.57-1.57c1-.11,2.05-.21,3.09-.29q5.07-.42,10.26-.42h81.59a127.72,127.72,0,0,1,13.35.7C313.71,417.88,317.23,418.41,320.71,419.07Z" transform="translate(-50.19)"/><path id="path_72" data-name="path 72" class="cls-3" d="M204.94,417.23c-1,.08-2.06.18-3.09.29q-5.35.56-10.57,1.57v4.32c0,1.24,0,2.48.11,3.71,6.91-6.42,14.93-10.31,23.81-10.31Q210,416.81,204.94,417.23Z" transform="translate(-50.19)"/><path id="path_73" data-name="path 73" class="cls-3" d="M300.71,368.54v54.87a44.72,44.72,0,0,1-89.43,0V368.54Z" transform="translate(-50.19)"/><path id="path_74" data-name="path 74" class="cls-2" d="M300.71,419.93v3.48a44.71,44.71,0,0,1-31.49,42.7,44.7,44.7,0,0,1-31.13-36.88q4.49.27,9,.27a153.89,153.89,0,0,0,24.83-2A151.89,151.89,0,0,0,300.71,419.93Z" transform="translate(-50.19)"/><path id="path_75" data-name="path 75" class="cls-2" d="M132.54,278.15A41.16,41.16,0,1,1,98,237.51,41.17,41.17,0,0,1,132.54,278.15Z" transform="translate(-50.19)"/><path id="path_76" data-name="path 76" class="cls-3" d="M132.54,278.15A41.17,41.17,0,0,1,98,318.8a154,154,0,0,1,0-81.29A41.17,41.17,0,0,1,132.54,278.15Z" transform="translate(-50.19)"/><path id="path_77" data-name="path 77" class="cls-3" d="M76.65,278.15A14.72,14.72,0,1,1,81,288.56a14.71,14.71,0,0,1-4.31-10.41" transform="translate(-50.19)"/><path id="path_78" data-name="path 78" class="cls-2" d="M379.45,278.15A41.16,41.16,0,1,0,414,237.51,41.17,41.17,0,0,0,379.45,278.15Z" transform="translate(-50.19)"/><path id="path_79" data-name="path 79" class="cls-3" d="M379.45,278.15A41.17,41.17,0,0,0,414,318.8a154,154,0,0,0,0-81.29A41.17,41.17,0,0,0,379.45,278.15Z" transform="translate(-50.19)"/><path id="path_80" data-name="path 80" class="cls-3" d="M405.91,278.15a14.72,14.72,0,1,1,4.31,10.41,14.71,14.71,0,0,1-4.31-10.41" transform="translate(-50.19)"/><path id="path_81" data-name="path 81" class="cls-7" d="M256,431.21c-46.5,0-90.37-18.47-123.52-52A175.59,175.59,0,0,1,81.29,255.12V192.34C81.29,96,159.66,17.64,256,17.64S430.7,96,430.7,192.34v64.17a174.65,174.65,0,0,1-173.95,174.7Z" transform="translate(-50.19)"/><path id="path_82" data-name="path 82" class="cls-2" d="M410.7,256.51A154.73,154.73,0,0,1,280.82,409.22a152.54,152.54,0,0,1-24.16,2c-85.45.36-155.37-70.64-155.37-156.09V192.34a154.71,154.71,0,0,1,309.41,0v64.17Z" transform="translate(-50.19)"/><path id="path_83" data-name="path 83" class="cls-3" d="M285.43,408.4c-1.53.3-3.07.57-4.61.82a152.64,152.64,0,0,1-24.16,2c-85.45.36-155.37-70.64-155.37-156.09V192.34a154.82,154.82,0,0,1,184-151.93A154.74,154.74,0,0,0,159.82,192.34v62.78C159.82,330.4,214.08,394.47,285.43,408.4Z" transform="translate(-50.19)"/><path id="path_84" data-name="path 84" class="cls-4" d="M256,337.93a78.2,78.2,0,0,1-37.71-9.74,6.88,6.88,0,1,1,6.63-12.06,64.22,64.22,0,0,0,62.17,0,6.88,6.88,0,1,1,6.63,12.06A78.21,78.21,0,0,1,256,337.93Z" transform="translate(-50.19)"/><path id="path_85" data-name="path 85" class="cls-3" d="M281.34,249.16a31.08,31.08,0,1,0,62.16,0" transform="translate(-50.19)"/><path id="path_86" data-name="path 86" class="cls-7" d="M290.13,249.16a22.26,22.26,0,1,1,4.23,13.14,22.4,22.4,0,0,1-4.23-13.14" transform="translate(-50.19)"/><path id="path_87" data-name="path 87" class="cls-5" d="M312.16,245.23a9.54,9.54,0,1,1,1.81,5.63,9.57,9.57,0,0,1-1.81-5.63" transform="translate(-50.19)"/><path id="path_88" data-name="path 88" class="cls-3" d="M168.49,249.16a31.08,31.08,0,0,0,62.16,0" transform="translate(-50.19)"/><path id="path_89" data-name="path 89" class="cls-7" d="M177.28,249.16a22.29,22.29,0,1,1,6.53,15.76,22.29,22.29,0,0,1-6.53-15.76" transform="translate(-50.19)"/><path id="path_90" data-name="path 90" class="cls-8" d="M204.78,270.83a21.86,21.86,0,0,1-5.21.62,22.29,22.29,0,0,1,0-44.58,21.86,21.86,0,0,1,5.21.62,22.29,22.29,0,0,0,0,43.34Z" transform="translate(-50.19)"/><path id="path_91" data-name="path 91" class="cls-8" d="M317.63,270.83a21.86,21.86,0,0,1-5.21.62,22.29,22.29,0,0,1,0-44.58,21.86,21.86,0,0,1,5.21.62,22.29,22.29,0,0,0,0,43.34Z" transform="translate(-50.19)"/><path id="path_92" data-name="path 92" class="cls-5" d="M199.31,245.23a9.54,9.54,0,0,1,6.6-9.08,9.55,9.55,0,0,1,5.9,18.16,9.55,9.55,0,0,1-12.5-9.08" transform="translate(-50.19)"/><path id="path_93" data-name="path 93" class="cls-3" d="M273.54,291.69H238.45a7.57,7.57,0,1,1,0-15.14h35.09a7.57,7.57,0,1,1,0,15.14Z" transform="translate(-50.19)"/><path id="path_94" data-name="path 94" class="cls-9" d="M283.64,0H228.35A151.88,151.88,0,0,0,76.47,151.88v64.74h359V151.88A151.88,151.88,0,0,0,283.64,0Z" transform="translate(-50.19)"/><path id="path_95" data-name="path 95" class="cls-10" d="M291.91.23A151.88,151.88,0,0,0,148.3,151.88v64.74H76.47V151.88A151.88,151.88,0,0,1,228.35,0h55.29C286.41,0,289.17.07,291.91.23Z" transform="translate(-50.19)"/><path id="path_96" data-name="path 96" class="cls-7" d="M140.1,125.34a24.43,24.43,0,1,1,4.64,14.4,24.52,24.52,0,0,1-4.64-14.4" transform="translate(-50.19)"/><path id="path_97" data-name="path 97" class="cls-10" d="M170.53,149a24.44,24.44,0,1,1,0-47.4,24.44,24.44,0,0,0,0,47.4Z" transform="translate(-50.19)"/><path id="path_98" data-name="path 98" class="cls-7" d="M323,125.34a24.45,24.45,0,1,1,7.16,17.28A24.49,24.49,0,0,1,323,125.34" transform="translate(-50.19)"/><path id="path_99" data-name="path 99" class="cls-10" d="M341.45,149a24.77,24.77,0,0,0,6,.74,24.44,24.44,0,0,0,0-48.88,24.77,24.77,0,0,0-6,.74,24.44,24.44,0,0,1,0,47.4Z" transform="translate(-50.19)"/><path id="path_100" data-name="path 100" class="cls-5" d="M256,74.62a43,43,0,0,0-24.6,78.28v9.29a8.2,8.2,0,1,0,16.4,0,8.21,8.21,0,0,0,16.41,0,8.2,8.2,0,1,0,16.4,0V152.9A43,43,0,0,0,256,74.62Zm-21.94,66.07a13.3,13.3,0,1,1,13.3-13.3A13.3,13.3,0,0,1,234.05,140.69Zm43.89,0a13.3,13.3,0,1,1,13.3-13.3A13.31,13.31,0,0,1,277.94,140.69Z" transform="translate(-50.19)"/></svg>