<svg
    xmlns="http://www.w3.org/2000/svg"
    viewBox="0 0 512 512"
    id="vector">
    <path
        id="path"
        d="M 256 256 M 0 256 C 0 188.131 26.99 122.972 74.981 74.981 C 122.972 26.99 188.131 0 256 0 C 323.869 0 389.028 26.99 437.019 74.981 C 485.01 122.972 512 188.131 512 256 C 512 323.869 485.01 389.028 437.019 437.019 C 389.028 485.01 323.869 512 256 512 C 188.131 512 122.972 485.01 74.981 437.019 C 26.99 389.028 0 323.869 0 256"
        fill="#80e29d"/>
    <path
        id="path_1"
        d="M 508.838 296.268 L 331.87 119.3 L 153.45 324.03 L 330.419 500.999 C 423.039 472.901 493.437 393.735 508.838 296.268 Z"
        fill="#4daf6e"/>
    <path
        id="path_2"
        d="M 331.87 266.03 L 331.87 119.3 L 256.55 119.3 L 153.45 267.21 L 153.45 324.03 L 273.87 324.03 L 273.87 392.7 L 331.87 392.7 L 331.87 324.03 L 368.94 324.03 L 368.94 266.03 Z M 273.87 266.03 L 224.97 266.03 L 273.87 195.89 Z"
        fill="#f8fffb"/>
    <path
        id="path_3"
        d="M 331.87 266.03 L 331.87 119.3 L 256.55 119.3 L 256 120.09 L 256 221.52 L 273.87 195.89 L 273.87 266.03 L 256 266.03 L 256 324.03 L 273.87 324.03 L 273.87 392.7 L 331.87 392.7 L 331.87 324.03 L 368.94 324.03 L 368.94 266.03 Z"
        fill="#d8d8d8"/>
</svg>
