<svg
    xmlns="http://www.w3.org/2000/svg"
    viewBox="0 0 512 512"
    id="vector">
    <path
        id="path"
        d="M 256 256 M 0 256 C 0 188.131 26.99 122.972 74.981 74.981 C 122.972 26.99 188.131 0 256 0 C 323.869 0 389.028 26.99 437.019 74.981 C 485.01 122.972 512 188.131 512 256 C 512 323.869 485.01 389.028 437.019 437.019 C 389.028 485.01 323.869 512 256 512 C 188.131 512 122.972 485.01 74.981 437.019 C 26.99 389.028 0 323.869 0 256"
        fill="none"/>
    <path
        id="path_1"
        d="M 398.41 468.76 C 386.07 477.04 372.97 484.28 359.23 490.33 C 349.64 494.56 339.74 498.23 329.58 501.26 C 328.46 501.6 327.33 501.93 326.2 502.25 C 303.9 508.6 280.35 512 256 512 C 231.66 512 208.11 508.6 185.8 502.26 C 178.56 500.2 171.44 497.82 164.47 495.14 C 164.04 494.98 163.61 494.82 163.18 494.65 C 159.67 493.29 156.2 491.84 152.77 490.33 C 139.03 484.27 125.93 477.04 113.58 468.75 C 123.97 454.38 137.34 442.32 152.77 433.43 C 162.97 427.56 174.07 423.09 185.8 420.28 C 187.61 419.84 189.44 419.44 191.28 419.09 C 194.75 418.41 198.28 417.89 201.85 417.52 C 202.88 417.41 203.9 417.31 204.94 417.23 C 208.32 416.95 211.74 416.81 215.2 416.81 L 296.79 416.81 C 301.31 416.81 305.76 417.05 310.14 417.51 C 313.71 417.88 317.23 418.41 320.71 419.07 C 322.1 419.34 323.48 419.63 324.85 419.94 C 325.3 420.06 325.76 420.15 326.2 420.27 C 329.68 421.11 333.1 422.09 336.46 423.21 C 344.44 425.86 352.05 429.3 359.23 433.43 C 374.66 442.33 388.02 454.39 398.41 468.76 Z"
        fill="none"/>
    <path
        id="path_2"
        d="M 215.2 416.81 C 185.84 416.81 165.94 459.24 164.47 495.14 C 164.04 494.98 163.61 494.82 163.18 494.65 C 159.67 493.29 156.2 491.84 152.77 490.33 C 139.03 484.27 125.93 477.04 113.58 468.75 C 123.97 454.38 137.34 442.32 152.77 433.43 C 162.97 427.56 174.07 423.09 185.8 420.28 C 187.61 419.84 189.44 419.44 191.28 419.09 C 194.75 418.41 198.28 417.89 201.85 417.52 C 202.88 417.41 203.9 417.31 204.94 417.23 C 208.32 416.95 211.74 416.81 215.2 416.81 Z"
        fill="none"/>
    <path
        id="path_3"
        d="M 320.71 419.07 L 320.71 423.41 C 320.71 451.95 302.39 476.79 275.12 485.22 C 268.95 487.14 262.51 488.11 255.99 488.11 C 220.31 488.11 191.28 459.08 191.28 423.41 L 191.28 419.09 C 194.75 418.41 198.28 417.89 201.85 417.52 C 202.88 417.41 203.9 417.31 204.94 417.23 C 208.32 416.95 211.74 416.81 215.2 416.81 L 296.79 416.81 C 301.31 416.81 305.76 417.05 310.14 417.51 C 313.71 417.88 317.23 418.41 320.71 419.07 Z"
        fill="#f9c5ac"/>
    <path
        id="path_4"
        d="M 204.94 417.23 C 203.9 417.31 202.88 417.41 201.85 417.52 C 198.28 417.89 194.75 418.41 191.28 419.09 L 191.28 423.41 C 191.28 424.655 191.324 425.889 191.394 427.116 C 198.298 420.701 206.315 416.81 215.2 416.81 C 211.74 416.81 208.32 416.95 204.94 417.23 Z"
        fill="#efb29a"/>
    <path
        id="path_5"
        d="M 300.706 368.538 L 300.706 423.407 C 300.706 443.495 287.461 460.474 269.217 466.114 C 265.041 467.41 260.59 468.111 255.987 468.111 C 231.296 468.111 211.284 448.099 211.284 423.408 L 211.284 368.539 L 300.706 368.539 Z"
        fill="#efb29a"/>
    <path
        id="path_6"
        d="M 300.706 419.932 L 300.706 423.407 C 300.706 443.495 287.461 460.474 269.217 466.114 C 252.756 461.054 240.38 446.742 238.094 429.23 C 241.081 429.413 244.084 429.504 247.102 429.504 C 255.561 429.504 263.852 428.833 271.93 427.507 C 281.883 425.907 291.5 423.346 300.706 419.932 Z"
        fill="#f9c5ac"/>
    <path
        id="path_7"
        d="M 132.54 278.154 C 132.54 298.651 117.567 315.646 97.961 318.8 C 95.818 319.147 93.614 319.328 91.365 319.328 C 68.619 319.328 50.19 300.899 50.19 278.153 C 50.19 255.407 68.619 236.978 91.365 236.978 C 93.614 236.978 95.818 237.159 97.961 237.506 C 117.567 240.662 132.54 257.657 132.54 278.154 Z"
        fill="#f9c5ac"/>
    <path
        id="path_8"
        d="M 132.54 278.154 C 132.54 298.651 117.567 315.646 97.961 318.8 C 94.399 305.85 92.497 292.221 92.497 278.154 C 92.497 264.087 94.399 250.458 97.961 237.508 C 117.567 240.662 132.54 257.657 132.54 278.154 Z"
        fill="#efb29a"/>
    <path
        id="path_9"
        d="M 91.365 278.154 M 76.649 278.154 C 76.649 274.253 78.2 270.507 80.959 267.748 C 83.718 264.989 87.464 263.438 91.365 263.438 C 95.266 263.438 99.012 264.989 101.771 267.748 C 104.53 270.507 106.081 274.253 106.081 278.154 C 106.081 282.055 104.53 285.801 101.771 288.56 C 99.012 291.319 95.266 292.87 91.365 292.87 C 87.464 292.87 83.718 291.319 80.959 288.56 C 78.2 285.801 76.649 282.055 76.649 278.154"
        fill="#efb29a"/>
    <path
        id="path_10"
        d="M 379.45 278.154 C 379.45 298.651 394.423 315.646 414.029 318.8 C 416.172 319.147 418.376 319.328 420.625 319.328 C 443.371 319.328 461.8 300.899 461.8 278.153 C 461.8 255.407 443.371 236.978 420.625 236.978 C 418.376 236.978 416.172 237.159 414.029 237.506 C 394.422 240.662 379.45 257.657 379.45 278.154 Z"
        fill="#f9c5ac"/>
    <path
        id="path_11"
        d="M 379.45 278.154 C 379.45 298.651 394.423 315.646 414.029 318.8 C 417.591 305.85 419.493 292.221 419.493 278.154 C 419.493 264.087 417.591 250.458 414.029 237.508 C 394.422 240.662 379.45 257.657 379.45 278.154 Z"
        fill="#efb29a"/>
    <path
        id="path_12"
        d="M 420.624 278.154 M 405.908 278.154 C 405.908 274.253 407.459 270.507 410.218 267.748 C 412.977 264.989 416.723 263.438 420.624 263.438 C 424.525 263.438 428.271 264.989 431.03 267.748 C 433.789 270.507 435.34 274.253 435.34 278.154 C 435.34 282.055 433.789 285.801 431.03 288.56 C 428.271 291.319 424.525 292.87 420.624 292.87 C 416.723 292.87 412.977 291.319 410.218 288.56 C 407.459 285.801 405.908 282.055 405.908 278.154"
        fill="#efb29a"/>
    <path
        id="path_13"
        d="M 256.021 431.213 C 209.521 431.213 165.652 412.737 132.497 379.188 C 99.478 345.778 81.294 301.715 81.294 255.116 L 81.294 192.338 C 81.294 96.007 159.665 17.637 255.995 17.637 C 352.326 17.637 430.697 96.008 430.697 192.338 L 430.697 256.511 C 430.697 298.27 415.726 338.689 388.541 370.322 C 361.652 401.611 324.527 422.436 284.004 428.962 C 275.166 430.413 265.976 431.173 256.749 431.212 Z"
        fill="none"/>
    <path
        id="path_14"
        d="M 410.696 256.511 C 410.696 333.496 354.455 397.358 280.823 409.216 C 272.958 410.507 264.891 411.177 256.663 411.211 C 171.209 411.569 101.293 340.57 101.293 255.116 L 101.293 192.338 C 101.293 106.899 170.555 37.637 255.994 37.637 C 341.433 37.637 410.695 106.899 410.695 192.338 L 410.695 256.511 Z"
        fill="#f9c5ac"/>
    <path
        id="path_15"
        d="M 285.433 408.4 C 283.903 408.7 282.363 408.97 280.823 409.22 C 272.953 410.51 264.893 411.18 256.663 411.21 C 171.213 411.57 101.293 340.57 101.293 255.12 L 101.293 192.34 C 101.293 106.9 170.553 37.64 255.993 37.64 C 266.003 37.64 275.783 38.59 285.263 40.41 C 213.813 54.08 159.823 116.91 159.823 192.34 L 159.823 255.12 C 159.823 330.4 214.083 394.47 285.433 408.4 Z"
        fill="#efb29a"/>
    <path
        id="path_16"
        d="M 255.995 337.931 C 243.041 337.931 230.087 334.685 218.279 328.194 C 214.948 326.363 213.732 322.179 215.564 318.848 C 217.395 315.517 221.58 314.303 224.91 316.133 C 244.375 326.834 267.617 326.833 287.08 316.133 C 290.409 314.302 294.594 315.517 296.426 318.848 C 298.257 322.179 297.042 326.363 293.711 328.194 C 281.903 334.685 268.949 337.931 255.995 337.931 Z"
        fill="#dd9f8a"/>
    <path
        id="path_17"
        d="M 281.34 249.161 C 281.34 266.326 295.255 280.241 312.42 280.241 C 329.585 280.241 343.5 266.326 343.5 249.161"
        fill="#efb29a"/>
    <path
        id="path_18"
        d="M 312.42 249.161 M 290.133 249.161 C 290.118 244.446 291.6 239.845 294.365 236.025 C 297.129 232.205 301.036 229.359 305.519 227.899 C 310.003 226.439 314.837 226.439 319.321 227.899 C 323.804 229.359 327.711 232.205 330.475 236.025 C 333.24 239.845 334.722 244.446 334.707 249.161 C 334.722 253.876 333.24 258.477 330.475 262.297 C 327.711 266.117 323.804 268.963 319.321 270.423 C 314.837 271.883 310.003 271.883 305.519 270.423 C 301.036 268.963 297.129 266.117 294.365 262.297 C 291.6 258.477 290.118 253.876 290.133 249.161"
        fill="none"/>
    <path
        id="path_19"
        d="M 321.708 245.228 M 312.158 245.228 C 312.152 243.207 312.787 241.236 313.971 239.599 C 315.156 237.962 316.83 236.743 318.751 236.117 C 320.672 235.491 322.744 235.491 324.665 236.117 C 326.586 236.743 328.26 237.962 329.445 239.599 C 330.629 241.236 331.264 243.207 331.258 245.228 C 331.264 247.249 330.629 249.22 329.445 250.857 C 328.26 252.494 326.586 253.713 324.665 254.339 C 322.744 254.965 320.672 254.965 318.751 254.339 C 316.83 253.713 315.156 252.494 313.971 250.857 C 312.787 249.22 312.152 247.249 312.158 245.228"
        fill="#ffffff"/>
    <path
        id="path_20"
        d="M 168.49 249.161 C 168.49 266.326 182.405 280.241 199.57 280.241 C 216.735 280.241 230.65 266.326 230.65 249.161"
        fill="#efb29a"/>
    <path
        id="path_21"
        d="M 199.57 249.161 M 177.283 249.161 C 177.283 244.455 178.773 239.868 181.539 236.061 C 184.305 232.254 188.207 229.419 192.683 227.965 C 197.158 226.511 201.982 226.511 206.457 227.965 C 210.933 229.419 214.835 232.254 217.601 236.061 C 220.367 239.868 221.857 244.455 221.857 249.161 C 221.857 255.07 219.507 260.742 215.329 264.92 C 211.151 269.098 205.479 271.448 199.57 271.448 C 193.661 271.448 187.989 269.098 183.811 264.92 C 179.633 260.742 177.283 255.07 177.283 249.161"
        fill="none"/>
    <path
        id="path_22"
        d="M 204.782 270.831 C 203.112 271.241 201.362 271.451 199.572 271.451 C 187.262 271.451 177.282 261.471 177.282 249.161 C 177.282 236.851 187.262 226.871 199.572 226.871 C 201.362 226.871 203.112 227.081 204.782 227.491 C 194.982 229.831 187.712 238.651 187.712 249.161 C 187.712 259.671 194.982 268.491 204.782 270.831 Z"
        fill="none"/>
    <path
        id="path_23"
        d="M 317.633 270.831 C 315.963 271.241 314.213 271.451 312.423 271.451 C 300.113 271.451 290.133 261.471 290.133 249.161 C 290.133 236.851 300.113 226.871 312.423 226.871 C 314.213 226.871 315.963 227.081 317.633 227.491 C 307.833 229.831 300.563 238.651 300.563 249.161 C 300.563 259.671 307.832 268.491 317.633 270.831 Z"
        fill="none"/>
    <path
        id="path_24"
        d="M 208.858 245.228 M 199.308 245.228 C 199.308 243.212 199.947 241.246 201.132 239.615 C 202.317 237.983 203.989 236.769 205.907 236.145 C 207.825 235.522 209.891 235.522 211.809 236.145 C 213.727 236.769 215.399 237.983 216.584 239.615 C 217.769 241.246 218.408 243.212 218.408 245.228 C 218.408 247.244 217.769 249.21 216.584 250.841 C 215.399 252.473 213.727 253.687 211.809 254.311 C 209.891 254.934 207.825 254.934 205.907 254.311 C 203.989 253.687 202.317 252.473 201.132 250.841 C 199.947 249.21 199.308 247.244 199.308 245.228"
        fill="#ffffff"/>
    <path
        id="path_25"
        d="M 273.544 291.694 L 238.446 291.694 C 234.265 291.694 230.876 288.305 230.876 284.124 C 230.876 279.943 234.265 276.554 238.446 276.554 L 273.544 276.554 C 277.725 276.554 281.114 279.943 281.114 284.124 C 281.114 288.305 277.725 291.694 273.544 291.694 Z"
        fill="#efb29a"/>
    <path
        id="path_26"
        d="M 283.639 0 L 228.35 0 C 144.47 0 76.472 67.999 76.472 151.879 L 76.472 216.62 L 435.518 216.62 L 435.518 151.879 C 435.518 67.999 367.519 0 283.639 0 Z"
        fill="none"/>
    <path
        id="path_27"
        d="M 291.912 0.23 C 211.882 4.52 148.302 70.77 148.302 151.88 L 148.302 216.62 L 76.472 216.62 L 76.472 151.88 C 76.472 68 144.472 0 228.352 0 L 283.642 0 C 286.412 0 289.172 0.07 291.912 0.23 Z"
        fill="none"/>
    <path
        id="path_28"
        d="M 164.546 125.337 M 140.104 125.337 C 140.088 120.166 141.713 115.12 144.745 110.931 C 147.776 106.741 152.061 103.62 156.978 102.019 C 161.896 100.417 167.196 100.417 172.114 102.019 C 177.031 103.62 181.316 106.741 184.347 110.931 C 187.379 115.12 189.004 120.166 188.988 125.337 C 189.004 130.508 187.379 135.554 184.347 139.743 C 181.316 143.933 177.031 147.054 172.114 148.655 C 167.196 150.257 161.896 150.257 156.978 148.655 C 152.061 147.054 147.776 143.933 144.745 139.743 C 141.713 135.554 140.088 130.508 140.104 125.337"
        fill="none"/>
    <path
        id="path_29"
        d="M 170.534 149.037 C 168.614 149.517 166.614 149.777 164.544 149.777 C 151.044 149.777 140.104 138.837 140.104 125.337 C 140.104 111.837 151.044 100.897 164.544 100.897 C 166.614 100.897 168.614 101.157 170.534 101.637 C 159.924 104.297 152.074 113.897 152.074 125.337 C 152.074 136.777 159.924 146.378 170.534 149.037 Z"
        fill="none"/>
    <path
        id="path_30"
        d="M 347.444 125.337 M 323.002 125.337 C 323.002 118.857 325.579 112.636 330.161 108.054 C 334.743 103.472 340.964 100.895 347.444 100.895 C 353.924 100.895 360.145 103.472 364.727 108.054 C 369.309 112.636 371.886 118.857 371.886 125.337 C 371.886 131.817 369.309 138.038 364.727 142.62 C 360.145 147.202 353.924 149.779 347.444 149.779 C 340.964 149.779 334.743 147.202 330.161 142.62 C 325.579 138.038 323.002 131.817 323.002 125.337"
        fill="none"/>
    <path
        id="path_31"
        d="M 341.455 149.037 C 343.375 149.517 345.375 149.777 347.445 149.777 C 360.945 149.777 371.885 138.837 371.885 125.337 C 371.885 111.837 360.945 100.897 347.445 100.897 C 345.375 100.897 343.375 101.157 341.455 101.637 C 352.065 104.297 359.915 113.897 359.915 125.337 C 359.915 136.777 352.065 146.378 341.455 149.037 Z"
        fill="none"/>
    <path
        id="path_32"
        d="M 255.99 74.62 C 232.24 74.62 212.99 93.88 212.99 117.63 C 212.99 132.23 220.27 145.12 231.39 152.9 L 231.39 162.19 C 231.39 166.72 235.06 170.4 239.59 170.4 C 244.12 170.4 247.79 166.72 247.79 162.19 C 247.79 166.72 251.46 170.4 255.99 170.4 C 258.26 170.4 260.31 169.48 261.79 167.99 C 263.28 166.51 264.2 164.46 264.2 162.19 C 264.2 166.72 267.87 170.4 272.4 170.4 C 276.93 170.4 280.6 166.72 280.6 162.19 L 280.6 152.9 C 291.72 145.12 299 132.23 299 117.63 C 299 93.88 279.75 74.62 255.99 74.62 Z M 234.05 140.69 C 226.7 140.69 220.75 134.73 220.75 127.39 C 220.75 120.04 226.7 114.09 234.05 114.09 C 241.39 114.09 247.35 120.04 247.35 127.39 C 247.35 134.73 241.39 140.69 234.05 140.69 Z M 277.94 140.69 C 270.6 140.69 264.64 134.73 264.64 127.39 C 264.64 120.04 270.6 114.09 277.94 114.09 C 285.29 114.09 291.24 120.04 291.24 127.39 C 291.24 134.73 285.29 140.69 277.94 140.69 Z"
        fill="#ffffff"/>
    <path
        id="path_33"
        d="M 417.829 90.193 L 435.787 84.022 C 441.18 82.169 441.18 74.541 435.787 72.687 L 417.829 66.516 C 416.082 65.916 414.71 64.543 414.109 62.796 L 407.938 44.838 C 406.085 39.445 398.457 39.445 396.603 44.838 L 390.432 62.796 C 389.832 64.543 388.459 65.915 386.712 66.516 L 368.754 72.687 C 363.361 74.54 363.361 82.168 368.754 84.022 L 386.712 90.193 C 388.459 90.793 389.831 92.166 390.432 93.913 L 396.603 111.871 C 398.456 117.264 406.084 117.264 407.938 111.871 L 414.109 93.913 C 414.709 92.165 416.082 90.793 417.829 90.193 Z"
        fill="#f6f9f9"/>
    <path
        id="path_34"
        d="M 256 256 M 0 256 C 0 188.131 26.99 122.972 74.981 74.981 C 122.972 26.99 188.131 0 256 0 C 323.869 0 389.028 26.99 437.019 74.981 C 485.01 122.972 512 188.131 512 256 C 512 323.869 485.01 389.028 437.019 437.019 C 389.028 485.01 323.869 512 256 512 C 188.131 512 122.972 485.01 74.981 437.019 C 26.99 389.028 0 323.869 0 256"
        fill="none"/>
    <path
        id="path_35"
        d="M 398.41 468.76 C 386.07 477.04 372.97 484.28 359.23 490.33 C 349.64 494.56 339.74 498.23 329.58 501.26 C 328.46 501.6 327.33 501.93 326.2 502.25 C 303.9 508.6 280.35 512 256 512 C 231.66 512 208.11 508.6 185.8 502.26 C 178.56 500.2 171.44 497.82 164.47 495.14 C 164.04 494.98 163.61 494.82 163.18 494.65 C 159.67 493.29 156.2 491.84 152.77 490.33 C 139.03 484.27 125.93 477.04 113.58 468.75 C 123.97 454.38 137.34 442.32 152.77 433.43 C 162.97 427.56 174.07 423.09 185.8 420.28 C 187.61 419.84 189.44 419.44 191.28 419.09 C 194.75 418.41 198.28 417.89 201.85 417.52 C 202.88 417.41 203.9 417.31 204.94 417.23 C 208.32 416.95 211.74 416.81 215.2 416.81 L 296.79 416.81 C 301.31 416.81 305.76 417.05 310.14 417.51 C 313.71 417.88 317.23 418.41 320.71 419.07 C 322.1 419.34 323.48 419.63 324.85 419.94 C 325.3 420.06 325.76 420.15 326.2 420.27 C 329.68 421.11 333.1 422.09 336.46 423.21 C 344.44 425.86 352.05 429.3 359.23 433.43 C 374.66 442.33 388.02 454.39 398.41 468.76 Z"
        fill="#27353d"/>
    <path
        id="path_36"
        d="M 215.2 416.81 C 185.84 416.81 165.94 459.24 164.47 495.14 C 164.04 494.98 163.61 494.82 163.18 494.65 C 159.67 493.29 156.2 491.84 152.77 490.33 C 139.03 484.27 125.93 477.04 113.58 468.75 C 123.97 454.38 137.34 442.32 152.77 433.43 C 162.97 427.56 174.07 423.09 185.8 420.28 C 187.61 419.84 189.44 419.44 191.28 419.09 C 194.75 418.41 198.28 417.89 201.85 417.52 C 202.88 417.41 203.9 417.31 204.94 417.23 C 208.32 416.95 211.74 416.81 215.2 416.81 Z"
        fill="#000f17"/>
    <path
        id="path_37"
        d="M 320.71 419.07 L 320.71 423.41 C 320.71 451.95 302.39 476.79 275.12 485.22 C 268.95 487.14 262.51 488.11 255.99 488.11 C 220.31 488.11 191.28 459.08 191.28 423.41 L 191.28 419.09 C 194.75 418.41 198.28 417.89 201.85 417.52 C 202.88 417.41 203.9 417.31 204.94 417.23 C 208.32 416.95 211.74 416.81 215.2 416.81 L 296.79 416.81 C 301.31 416.81 305.76 417.05 310.14 417.51 C 313.71 417.88 317.23 418.41 320.71 419.07 Z"
        fill="#f9c5ac"/>
    <path
        id="path_38"
        d="M 204.94 417.23 C 203.9 417.31 202.88 417.41 201.85 417.52 C 198.28 417.89 194.75 418.41 191.28 419.09 L 191.28 423.41 C 191.28 424.655 191.324 425.889 191.394 427.116 C 198.298 420.701 206.315 416.81 215.2 416.81 C 211.74 416.81 208.32 416.95 204.94 417.23 Z"
        fill="#efb29a"/>
    <path
        id="path_39"
        d="M 300.706 368.538 L 300.706 423.407 C 300.706 443.495 287.461 460.474 269.217 466.114 C 265.041 467.41 260.59 468.111 255.987 468.111 C 231.296 468.111 211.284 448.099 211.284 423.408 L 211.284 368.539 L 300.706 368.539 Z"
        fill="#efb29a"/>
    <path
        id="path_40"
        d="M 300.706 419.932 L 300.706 423.407 C 300.706 443.495 287.461 460.474 269.217 466.114 C 252.756 461.054 240.38 446.742 238.094 429.23 C 241.081 429.413 244.084 429.504 247.102 429.504 C 255.561 429.504 263.852 428.833 271.93 427.507 C 281.883 425.907 291.5 423.346 300.706 419.932 Z"
        fill="#f9c5ac"/>
    <path
        id="path_41"
        d="M 132.54 278.154 C 132.54 298.651 117.567 315.646 97.961 318.8 C 95.818 319.147 93.614 319.328 91.365 319.328 C 68.619 319.328 50.19 300.899 50.19 278.153 C 50.19 255.407 68.619 236.978 91.365 236.978 C 93.614 236.978 95.818 237.159 97.961 237.506 C 117.567 240.662 132.54 257.657 132.54 278.154 Z"
        fill="#f9c5ac"/>
    <path
        id="path_42"
        d="M 132.54 278.154 C 132.54 298.651 117.567 315.646 97.961 318.8 C 94.399 305.85 92.497 292.221 92.497 278.154 C 92.497 264.087 94.399 250.458 97.961 237.508 C 117.567 240.662 132.54 257.657 132.54 278.154 Z"
        fill="#efb29a"/>
    <path
        id="path_43"
        d="M 91.365 278.154 M 76.649 278.154 C 76.649 274.253 78.2 270.507 80.959 267.748 C 83.718 264.989 87.464 263.438 91.365 263.438 C 95.266 263.438 99.012 264.989 101.771 267.748 C 104.53 270.507 106.081 274.253 106.081 278.154 C 106.081 282.055 104.53 285.801 101.771 288.56 C 99.012 291.319 95.266 292.87 91.365 292.87 C 87.464 292.87 83.718 291.319 80.959 288.56 C 78.2 285.801 76.649 282.055 76.649 278.154"
        fill="#efb29a"/>
    <path
        id="path_44"
        d="M 379.45 278.154 C 379.45 298.651 394.423 315.646 414.029 318.8 C 416.172 319.147 418.376 319.328 420.625 319.328 C 443.371 319.328 461.8 300.899 461.8 278.153 C 461.8 255.407 443.371 236.978 420.625 236.978 C 418.376 236.978 416.172 237.159 414.029 237.506 C 394.422 240.662 379.45 257.657 379.45 278.154 Z"
        fill="#f9c5ac"/>
    <path
        id="path_45"
        d="M 379.45 278.154 C 379.45 298.651 394.423 315.646 414.029 318.8 C 417.591 305.85 419.493 292.221 419.493 278.154 C 419.493 264.087 417.591 250.458 414.029 237.508 C 394.422 240.662 379.45 257.657 379.45 278.154 Z"
        fill="#efb29a"/>
    <path
        id="path_46"
        d="M 420.624 278.154 M 405.908 278.154 C 405.908 274.253 407.459 270.507 410.218 267.748 C 412.977 264.989 416.723 263.438 420.624 263.438 C 424.525 263.438 428.271 264.989 431.03 267.748 C 433.789 270.507 435.34 274.253 435.34 278.154 C 435.34 282.055 433.789 285.801 431.03 288.56 C 428.271 291.319 424.525 292.87 420.624 292.87 C 416.723 292.87 412.977 291.319 410.218 288.56 C 407.459 285.801 405.908 282.055 405.908 278.154"
        fill="#efb29a"/>
    <path
        id="path_47"
        d="M 256.021 431.213 C 209.521 431.213 165.652 412.737 132.497 379.188 C 99.478 345.778 81.294 301.715 81.294 255.116 L 81.294 192.338 C 81.294 96.007 159.665 17.637 255.995 17.637 C 352.326 17.637 430.697 96.008 430.697 192.338 L 430.697 256.511 C 430.697 298.27 415.726 338.689 388.541 370.322 C 361.652 401.611 324.527 422.436 284.004 428.962 C 275.166 430.413 265.976 431.173 256.749 431.212 Z"
        fill="#27353d"/>
    <path
        id="path_48"
        d="M 410.696 256.511 C 410.696 333.496 354.455 397.358 280.823 409.216 C 272.958 410.507 264.891 411.177 256.663 411.211 C 171.209 411.569 101.293 340.57 101.293 255.116 L 101.293 192.338 C 101.293 106.899 170.555 37.637 255.994 37.637 C 341.433 37.637 410.695 106.899 410.695 192.338 L 410.695 256.511 Z"
        fill="#f9c5ac"/>
    <path
        id="path_49"
        d="M 285.433 408.4 C 283.903 408.7 282.363 408.97 280.823 409.22 C 272.953 410.51 264.893 411.18 256.663 411.21 C 171.213 411.57 101.293 340.57 101.293 255.12 L 101.293 192.34 C 101.293 106.9 170.553 37.64 255.993 37.64 C 266.003 37.64 275.783 38.59 285.263 40.41 C 213.813 54.08 159.823 116.91 159.823 192.34 L 159.823 255.12 C 159.823 330.4 214.083 394.47 285.433 408.4 Z"
        fill="#efb29a"/>
    <path
        id="path_50"
        d="M 255.995 337.931 C 243.041 337.931 230.087 334.685 218.279 328.194 C 214.948 326.363 213.732 322.179 215.564 318.848 C 217.395 315.517 221.58 314.303 224.91 316.133 C 244.375 326.834 267.617 326.833 287.08 316.133 C 290.409 314.302 294.594 315.517 296.426 318.848 C 298.257 322.179 297.042 326.363 293.711 328.194 C 281.903 334.685 268.949 337.931 255.995 337.931 Z"
        fill="#dd9f8a"/>
    <path
        id="path_51"
        d="M 281.34 249.161 C 281.34 266.326 295.255 280.241 312.42 280.241 C 329.585 280.241 343.5 266.326 343.5 249.161"
        fill="#efb29a"/>
    <path
        id="path_52"
        d="M 312.42 249.161 M 290.133 249.161 C 290.118 244.446 291.6 239.845 294.365 236.025 C 297.129 232.205 301.036 229.359 305.519 227.899 C 310.003 226.439 314.837 226.439 319.321 227.899 C 323.804 229.359 327.711 232.205 330.475 236.025 C 333.24 239.845 334.722 244.446 334.707 249.161 C 334.722 253.876 333.24 258.477 330.475 262.297 C 327.711 266.117 323.804 268.963 319.321 270.423 C 314.837 271.883 310.003 271.883 305.519 270.423 C 301.036 268.963 297.129 266.117 294.365 262.297 C 291.6 258.477 290.118 253.876 290.133 249.161"
        fill="#27353d"/>
    <path
        id="path_53"
        d="M 321.708 245.228 M 312.158 245.228 C 312.152 243.207 312.787 241.236 313.971 239.599 C 315.156 237.962 316.83 236.743 318.751 236.117 C 320.672 235.491 322.744 235.491 324.665 236.117 C 326.586 236.743 328.26 237.962 329.445 239.599 C 330.629 241.236 331.264 243.207 331.258 245.228 C 331.264 247.249 330.629 249.22 329.445 250.857 C 328.26 252.494 326.586 253.713 324.665 254.339 C 322.744 254.965 320.672 254.965 318.751 254.339 C 316.83 253.713 315.156 252.494 313.971 250.857 C 312.787 249.22 312.152 247.249 312.158 245.228"
        fill="#ffffff"/>
    <path
        id="path_54"
        d="M 168.49 249.161 C 168.49 266.326 182.405 280.241 199.57 280.241 C 216.735 280.241 230.65 266.326 230.65 249.161"
        fill="#efb29a"/>
    <path
        id="path_55"
        d="M 199.57 249.161 M 177.283 249.161 C 177.283 244.455 178.773 239.868 181.539 236.061 C 184.305 232.254 188.207 229.419 192.683 227.965 C 197.158 226.511 201.982 226.511 206.457 227.965 C 210.933 229.419 214.835 232.254 217.601 236.061 C 220.367 239.868 221.857 244.455 221.857 249.161 C 221.857 255.07 219.507 260.742 215.329 264.92 C 211.151 269.098 205.479 271.448 199.57 271.448 C 193.661 271.448 187.989 269.098 183.811 264.92 C 179.633 260.742 177.283 255.07 177.283 249.161"
        fill="#27353d"/>
    <path
        id="path_56"
        d="M 204.782 270.831 C 203.112 271.241 201.362 271.451 199.572 271.451 C 187.262 271.451 177.282 261.471 177.282 249.161 C 177.282 236.851 187.262 226.871 199.572 226.871 C 201.362 226.871 203.112 227.081 204.782 227.491 C 194.982 229.831 187.712 238.651 187.712 249.161 C 187.712 259.671 194.982 268.491 204.782 270.831 Z"
        fill="#000f17"/>
    <path
        id="path_57"
        d="M 317.633 270.831 C 315.963 271.241 314.213 271.451 312.423 271.451 C 300.113 271.451 290.133 261.471 290.133 249.161 C 290.133 236.851 300.113 226.871 312.423 226.871 C 314.213 226.871 315.963 227.081 317.633 227.491 C 307.833 229.831 300.563 238.651 300.563 249.161 C 300.563 259.671 307.832 268.491 317.633 270.831 Z"
        fill="#000f17"/>
    <path
        id="path_58"
        d="M 208.858 245.228 M 199.308 245.228 C 199.308 243.212 199.947 241.246 201.132 239.615 C 202.317 237.983 203.989 236.769 205.907 236.145 C 207.825 235.522 209.891 235.522 211.809 236.145 C 213.727 236.769 215.399 237.983 216.584 239.615 C 217.769 241.246 218.408 243.212 218.408 245.228 C 218.408 247.244 217.769 249.21 216.584 250.841 C 215.399 252.473 213.727 253.687 211.809 254.311 C 209.891 254.934 207.825 254.934 205.907 254.311 C 203.989 253.687 202.317 252.473 201.132 250.841 C 199.947 249.21 199.308 247.244 199.308 245.228"
        fill="#ffffff"/>
    <path
        id="path_59"
        d="M 273.544 291.694 L 238.446 291.694 C 234.265 291.694 230.876 288.305 230.876 284.124 C 230.876 279.943 234.265 276.554 238.446 276.554 L 273.544 276.554 C 277.725 276.554 281.114 279.943 281.114 284.124 C 281.114 288.305 277.725 291.694 273.544 291.694 Z"
        fill="#efb29a"/>
    <path
        id="path_60"
        d="M 283.639 0 L 228.35 0 C 144.47 0 76.472 67.999 76.472 151.879 L 76.472 216.62 L 435.518 216.62 L 435.518 151.879 C 435.518 67.999 367.519 0 283.639 0 Z"
        fill="#75cef9"/>
    <path
        id="path_61"
        d="M 291.912 0.23 C 211.882 4.52 148.302 70.77 148.302 151.88 L 148.302 216.62 L 76.472 216.62 L 76.472 151.88 C 76.472 68 144.472 0 228.352 0 L 283.642 0 C 286.412 0 289.172 0.07 291.912 0.23 Z"
        fill="#5ea5ec"/>
    <path
        id="path_62"
        d="M 164.546 125.337 M 140.104 125.337 C 140.088 120.166 141.713 115.12 144.745 110.931 C 147.776 106.741 152.061 103.62 156.978 102.019 C 161.896 100.417 167.196 100.417 172.114 102.019 C 177.031 103.62 181.316 106.741 184.347 110.931 C 187.379 115.12 189.004 120.166 188.988 125.337 C 189.004 130.508 187.379 135.554 184.347 139.743 C 181.316 143.933 177.031 147.054 172.114 148.655 C 167.196 150.257 161.896 150.257 156.978 148.655 C 152.061 147.054 147.776 143.933 144.745 139.743 C 141.713 135.554 140.088 130.508 140.104 125.337"
        fill="#27353d"/>
    <path
        id="path_63"
        d="M 170.534 149.037 C 168.614 149.517 166.614 149.777 164.544 149.777 C 151.044 149.777 140.104 138.837 140.104 125.337 C 140.104 111.837 151.044 100.897 164.544 100.897 C 166.614 100.897 168.614 101.157 170.534 101.637 C 159.924 104.297 152.074 113.897 152.074 125.337 C 152.074 136.777 159.924 146.378 170.534 149.037 Z"
        fill="#5ea5ec"/>
    <path
        id="path_64"
        d="M 347.444 125.337 M 323.002 125.337 C 323.002 118.857 325.579 112.636 330.161 108.054 C 334.743 103.472 340.964 100.895 347.444 100.895 C 353.924 100.895 360.145 103.472 364.727 108.054 C 369.309 112.636 371.886 118.857 371.886 125.337 C 371.886 131.817 369.309 138.038 364.727 142.62 C 360.145 147.202 353.924 149.779 347.444 149.779 C 340.964 149.779 334.743 147.202 330.161 142.62 C 325.579 138.038 323.002 131.817 323.002 125.337"
        fill="#27353d"/>
    <path
        id="path_65"
        d="M 341.455 149.037 C 343.375 149.517 345.375 149.777 347.445 149.777 C 360.945 149.777 371.885 138.837 371.885 125.337 C 371.885 111.837 360.945 100.897 347.445 100.897 C 345.375 100.897 343.375 101.157 341.455 101.637 C 352.065 104.297 359.915 113.897 359.915 125.337 C 359.915 136.777 352.065 146.378 341.455 149.037 Z"
        fill="#5ea5ec"/>
    <path
        id="path_66"
        d="M 255.99 74.62 C 232.24 74.62 212.99 93.88 212.99 117.63 C 212.99 132.23 220.27 145.12 231.39 152.9 L 231.39 162.19 C 231.39 166.72 235.06 170.4 239.59 170.4 C 244.12 170.4 247.79 166.72 247.79 162.19 C 247.79 166.72 251.46 170.4 255.99 170.4 C 258.26 170.4 260.31 169.48 261.79 167.99 C 263.28 166.51 264.2 164.46 264.2 162.19 C 264.2 166.72 267.87 170.4 272.4 170.4 C 276.93 170.4 280.6 166.72 280.6 162.19 L 280.6 152.9 C 291.72 145.12 299 132.23 299 117.63 C 299 93.88 279.75 74.62 255.99 74.62 Z M 234.05 140.69 C 226.7 140.69 220.75 134.73 220.75 127.39 C 220.75 120.04 226.7 114.09 234.05 114.09 C 241.39 114.09 247.35 120.04 247.35 127.39 C 247.35 134.73 241.39 140.69 234.05 140.69 Z M 277.94 140.69 C 270.6 140.69 264.64 134.73 264.64 127.39 C 264.64 120.04 270.6 114.09 277.94 114.09 C 285.29 114.09 291.24 120.04 291.24 127.39 C 291.24 134.73 285.29 140.69 277.94 140.69 Z"
        fill="#ffffff"/>
    <path
        id="path_67"
        d="M 417.829 90.193 L 435.787 84.022 C 441.18 82.169 441.18 74.541 435.787 72.687 L 417.829 66.516 C 416.082 65.916 414.71 64.543 414.109 62.796 L 407.938 44.838 C 406.085 39.445 398.457 39.445 396.603 44.838 L 390.432 62.796 C 389.832 64.543 388.459 65.915 386.712 66.516 L 368.754 72.687 C 363.361 74.54 363.361 82.168 368.754 84.022 L 386.712 90.193 C 388.459 90.793 389.831 92.166 390.432 93.913 L 396.603 111.871 C 398.456 117.264 406.084 117.264 407.938 111.871 L 414.109 93.913 C 414.709 92.165 416.082 90.793 417.829 90.193 Z"
        fill="#f6f9f9"/>
    <path
        id="path_68"
        d="M 256 256 M 0 256 C 0 188.131 26.99 122.972 74.981 74.981 C 122.972 26.99 188.131 0 256 0 C 323.869 0 389.028 26.99 437.019 74.981 C 485.01 122.972 512 188.131 512 256 C 512 323.869 485.01 389.028 437.019 437.019 C 389.028 485.01 323.869 512 256 512 C 188.131 512 122.972 485.01 74.981 437.019 C 26.99 389.028 0 323.869 0 256"
        fill="#80e29d"/>
    <path
        id="path_69"
        d="M 398.41 468.76 C 386.07 477.04 372.97 484.28 359.23 490.33 C 349.64 494.56 339.74 498.23 329.58 501.26 C 328.46 501.6 327.33 501.93 326.2 502.25 C 303.9 508.6 280.35 512 256 512 C 231.66 512 208.11 508.6 185.8 502.26 C 178.56 500.2 171.44 497.82 164.47 495.14 C 164.04 494.98 163.61 494.82 163.18 494.65 C 159.67 493.29 156.2 491.84 152.77 490.33 C 139.03 484.27 125.93 477.04 113.58 468.75 C 123.97 454.38 137.34 442.32 152.77 433.43 C 162.97 427.56 174.07 423.09 185.8 420.28 C 187.61 419.84 189.44 419.44 191.28 419.09 C 194.75 418.41 198.28 417.89 201.85 417.52 C 202.88 417.41 203.9 417.31 204.94 417.23 C 208.32 416.95 211.74 416.81 215.2 416.81 L 296.79 416.81 C 301.31 416.81 305.76 417.05 310.14 417.51 C 313.71 417.88 317.23 418.41 320.71 419.07 C 322.1 419.34 323.48 419.63 324.85 419.94 C 325.3 420.06 325.76 420.15 326.2 420.27 C 329.68 421.11 333.1 422.09 336.46 423.21 C 344.44 425.86 352.05 429.3 359.23 433.43 C 374.66 442.33 388.02 454.39 398.41 468.76 Z"
        fill="#27353d"/>
    <path
        id="path_70"
        d="M 215.2 416.81 C 185.84 416.81 165.94 459.24 164.47 495.14 C 164.04 494.98 163.61 494.82 163.18 494.65 C 159.67 493.29 156.2 491.84 152.77 490.33 C 139.03 484.27 125.93 477.04 113.58 468.75 C 123.97 454.38 137.34 442.32 152.77 433.43 C 162.97 427.56 174.07 423.09 185.8 420.28 C 187.61 419.84 189.44 419.44 191.28 419.09 C 194.75 418.41 198.28 417.89 201.85 417.52 C 202.88 417.41 203.9 417.31 204.94 417.23 C 208.32 416.95 211.74 416.81 215.2 416.81 Z"
        fill="#000f17"/>
    <path
        id="path_71"
        d="M 320.71 419.07 L 320.71 423.41 C 320.71 451.95 302.39 476.79 275.12 485.22 C 268.95 487.14 262.51 488.11 255.99 488.11 C 220.31 488.11 191.28 459.08 191.28 423.41 L 191.28 419.09 C 194.75 418.41 198.28 417.89 201.85 417.52 C 202.88 417.41 203.9 417.31 204.94 417.23 C 208.32 416.95 211.74 416.81 215.2 416.81 L 296.79 416.81 C 301.31 416.81 305.76 417.05 310.14 417.51 C 313.71 417.88 317.23 418.41 320.71 419.07 Z"
        fill="#f9c5ac"/>
    <path
        id="path_72"
        d="M 204.94 417.23 C 203.9 417.31 202.88 417.41 201.85 417.52 C 198.28 417.89 194.75 418.41 191.28 419.09 L 191.28 423.41 C 191.28 424.655 191.324 425.889 191.394 427.116 C 198.298 420.701 206.315 416.81 215.2 416.81 C 211.74 416.81 208.32 416.95 204.94 417.23 Z"
        fill="#efb29a"/>
    <path
        id="path_73"
        d="M 300.706 368.538 L 300.706 423.407 C 300.706 443.495 287.461 460.474 269.217 466.114 C 265.041 467.41 260.59 468.111 255.987 468.111 C 231.296 468.111 211.284 448.099 211.284 423.408 L 211.284 368.539 L 300.706 368.539 Z"
        fill="#efb29a"/>
    <path
        id="path_74"
        d="M 300.706 419.932 L 300.706 423.407 C 300.706 443.495 287.461 460.474 269.217 466.114 C 252.756 461.054 240.38 446.742 238.094 429.23 C 241.081 429.413 244.084 429.504 247.102 429.504 C 255.561 429.504 263.852 428.833 271.93 427.507 C 281.883 425.907 291.5 423.346 300.706 419.932 Z"
        fill="#f9c5ac"/>
    <path
        id="path_75"
        d="M 132.54 278.154 C 132.54 298.651 117.567 315.646 97.961 318.8 C 95.818 319.147 93.614 319.328 91.365 319.328 C 68.619 319.328 50.19 300.899 50.19 278.153 C 50.19 255.407 68.619 236.978 91.365 236.978 C 93.614 236.978 95.818 237.159 97.961 237.506 C 117.567 240.662 132.54 257.657 132.54 278.154 Z"
        fill="#f9c5ac"/>
    <path
        id="path_76"
        d="M 132.54 278.154 C 132.54 298.651 117.567 315.646 97.961 318.8 C 94.399 305.85 92.497 292.221 92.497 278.154 C 92.497 264.087 94.399 250.458 97.961 237.508 C 117.567 240.662 132.54 257.657 132.54 278.154 Z"
        fill="#efb29a"/>
    <path
        id="path_77"
        d="M 91.365 278.154 M 76.649 278.154 C 76.649 274.253 78.2 270.507 80.959 267.748 C 83.718 264.989 87.464 263.438 91.365 263.438 C 95.266 263.438 99.012 264.989 101.771 267.748 C 104.53 270.507 106.081 274.253 106.081 278.154 C 106.081 282.055 104.53 285.801 101.771 288.56 C 99.012 291.319 95.266 292.87 91.365 292.87 C 87.464 292.87 83.718 291.319 80.959 288.56 C 78.2 285.801 76.649 282.055 76.649 278.154"
        fill="#efb29a"/>
    <path
        id="path_78"
        d="M 379.45 278.154 C 379.45 298.651 394.423 315.646 414.029 318.8 C 416.172 319.147 418.376 319.328 420.625 319.328 C 443.371 319.328 461.8 300.899 461.8 278.153 C 461.8 255.407 443.371 236.978 420.625 236.978 C 418.376 236.978 416.172 237.159 414.029 237.506 C 394.422 240.662 379.45 257.657 379.45 278.154 Z"
        fill="#f9c5ac"/>
    <path
        id="path_79"
        d="M 379.45 278.154 C 379.45 298.651 394.423 315.646 414.029 318.8 C 417.591 305.85 419.493 292.221 419.493 278.154 C 419.493 264.087 417.591 250.458 414.029 237.508 C 394.422 240.662 379.45 257.657 379.45 278.154 Z"
        fill="#efb29a"/>
    <path
        id="path_80"
        d="M 420.624 278.154 M 405.908 278.154 C 405.908 274.253 407.459 270.507 410.218 267.748 C 412.977 264.989 416.723 263.438 420.624 263.438 C 424.525 263.438 428.271 264.989 431.03 267.748 C 433.789 270.507 435.34 274.253 435.34 278.154 C 435.34 282.055 433.789 285.801 431.03 288.56 C 428.271 291.319 424.525 292.87 420.624 292.87 C 416.723 292.87 412.977 291.319 410.218 288.56 C 407.459 285.801 405.908 282.055 405.908 278.154"
        fill="#efb29a"/>
    <path
        id="path_81"
        d="M 256.021 431.213 C 209.521 431.213 165.652 412.737 132.497 379.188 C 99.478 345.778 81.294 301.715 81.294 255.116 L 81.294 192.338 C 81.294 96.007 159.665 17.637 255.995 17.637 C 352.326 17.637 430.697 96.008 430.697 192.338 L 430.697 256.511 C 430.697 298.27 415.726 338.689 388.541 370.322 C 361.652 401.611 324.527 422.436 284.004 428.962 C 275.166 430.413 265.976 431.173 256.749 431.212 Z"
        fill="#27353d"/>
    <path
        id="path_82"
        d="M 410.696 256.511 C 410.696 333.496 354.455 397.358 280.823 409.216 C 272.958 410.507 264.891 411.177 256.663 411.211 C 171.209 411.569 101.293 340.57 101.293 255.116 L 101.293 192.338 C 101.293 106.899 170.555 37.637 255.994 37.637 C 341.433 37.637 410.695 106.899 410.695 192.338 L 410.695 256.511 Z"
        fill="#f9c5ac"/>
    <path
        id="path_83"
        d="M 285.433 408.4 C 283.903 408.7 282.363 408.97 280.823 409.22 C 272.953 410.51 264.893 411.18 256.663 411.21 C 171.213 411.57 101.293 340.57 101.293 255.12 L 101.293 192.34 C 101.293 106.9 170.553 37.64 255.993 37.64 C 266.003 37.64 275.783 38.59 285.263 40.41 C 213.813 54.08 159.823 116.91 159.823 192.34 L 159.823 255.12 C 159.823 330.4 214.083 394.47 285.433 408.4 Z"
        fill="#efb29a"/>
    <path
        id="path_84"
        d="M 255.995 337.931 C 243.041 337.931 230.087 334.685 218.279 328.194 C 214.948 326.363 213.732 322.179 215.564 318.848 C 217.395 315.517 221.58 314.303 224.91 316.133 C 244.375 326.834 267.617 326.833 287.08 316.133 C 290.409 314.302 294.594 315.517 296.426 318.848 C 298.257 322.179 297.042 326.363 293.711 328.194 C 281.903 334.685 268.949 337.931 255.995 337.931 Z"
        fill="#dd9f8a"/>
    <path
        id="path_85"
        d="M 281.34 249.161 C 281.34 266.326 295.255 280.241 312.42 280.241 C 329.585 280.241 343.5 266.326 343.5 249.161"
        fill="#efb29a"/>
    <path
        id="path_86"
        d="M 312.42 249.161 M 290.133 249.161 C 290.118 244.446 291.6 239.845 294.365 236.025 C 297.129 232.205 301.036 229.359 305.519 227.899 C 310.003 226.439 314.837 226.439 319.321 227.899 C 323.804 229.359 327.711 232.205 330.475 236.025 C 333.24 239.845 334.722 244.446 334.707 249.161 C 334.722 253.876 333.24 258.477 330.475 262.297 C 327.711 266.117 323.804 268.963 319.321 270.423 C 314.837 271.883 310.003 271.883 305.519 270.423 C 301.036 268.963 297.129 266.117 294.365 262.297 C 291.6 258.477 290.118 253.876 290.133 249.161"
        fill="#27353d"/>
    <path
        id="path_87"
        d="M 321.708 245.228 M 312.158 245.228 C 312.152 243.207 312.787 241.236 313.971 239.599 C 315.156 237.962 316.83 236.743 318.751 236.117 C 320.672 235.491 322.744 235.491 324.665 236.117 C 326.586 236.743 328.26 237.962 329.445 239.599 C 330.629 241.236 331.264 243.207 331.258 245.228 C 331.264 247.249 330.629 249.22 329.445 250.857 C 328.26 252.494 326.586 253.713 324.665 254.339 C 322.744 254.965 320.672 254.965 318.751 254.339 C 316.83 253.713 315.156 252.494 313.971 250.857 C 312.787 249.22 312.152 247.249 312.158 245.228"
        fill="#ffffff"/>
    <path
        id="path_88"
        d="M 168.49 249.161 C 168.49 266.326 182.405 280.241 199.57 280.241 C 216.735 280.241 230.65 266.326 230.65 249.161"
        fill="#efb29a"/>
    <path
        id="path_89"
        d="M 199.57 249.161 M 177.283 249.161 C 177.283 244.455 178.773 239.868 181.539 236.061 C 184.305 232.254 188.207 229.419 192.683 227.965 C 197.158 226.511 201.982 226.511 206.457 227.965 C 210.933 229.419 214.835 232.254 217.601 236.061 C 220.367 239.868 221.857 244.455 221.857 249.161 C 221.857 255.07 219.507 260.742 215.329 264.92 C 211.151 269.098 205.479 271.448 199.57 271.448 C 193.661 271.448 187.989 269.098 183.811 264.92 C 179.633 260.742 177.283 255.07 177.283 249.161"
        fill="#27353d"/>
    <path
        id="path_90"
        d="M 204.782 270.831 C 203.112 271.241 201.362 271.451 199.572 271.451 C 187.262 271.451 177.282 261.471 177.282 249.161 C 177.282 236.851 187.262 226.871 199.572 226.871 C 201.362 226.871 203.112 227.081 204.782 227.491 C 194.982 229.831 187.712 238.651 187.712 249.161 C 187.712 259.671 194.982 268.491 204.782 270.831 Z"
        fill="#000f17"/>
    <path
        id="path_91"
        d="M 317.633 270.831 C 315.963 271.241 314.213 271.451 312.423 271.451 C 300.113 271.451 290.133 261.471 290.133 249.161 C 290.133 236.851 300.113 226.871 312.423 226.871 C 314.213 226.871 315.963 227.081 317.633 227.491 C 307.833 229.831 300.563 238.651 300.563 249.161 C 300.563 259.671 307.832 268.491 317.633 270.831 Z"
        fill="#000f17"/>
    <path
        id="path_92"
        d="M 208.858 245.228 M 199.308 245.228 C 199.308 243.212 199.947 241.246 201.132 239.615 C 202.317 237.983 203.989 236.769 205.907 236.145 C 207.825 235.522 209.891 235.522 211.809 236.145 C 213.727 236.769 215.399 237.983 216.584 239.615 C 217.769 241.246 218.408 243.212 218.408 245.228 C 218.408 247.244 217.769 249.21 216.584 250.841 C 215.399 252.473 213.727 253.687 211.809 254.311 C 209.891 254.934 207.825 254.934 205.907 254.311 C 203.989 253.687 202.317 252.473 201.132 250.841 C 199.947 249.21 199.308 247.244 199.308 245.228"
        fill="#ffffff"/>
    <path
        id="path_93"
        d="M 273.544 291.694 L 238.446 291.694 C 234.265 291.694 230.876 288.305 230.876 284.124 C 230.876 279.943 234.265 276.554 238.446 276.554 L 273.544 276.554 C 277.725 276.554 281.114 279.943 281.114 284.124 C 281.114 288.305 277.725 291.694 273.544 291.694 Z"
        fill="#efb29a"/>
    <path
        id="path_94"
        d="M 283.639 0 L 228.35 0 C 144.47 0 76.472 67.999 76.472 151.879 L 76.472 216.62 L 435.518 216.62 L 435.518 151.879 C 435.518 67.999 367.519 0 283.639 0 Z"
        fill="#75cef9"/>
    <path
        id="path_95"
        d="M 291.912 0.23 C 211.882 4.52 148.302 70.77 148.302 151.88 L 148.302 216.62 L 76.472 216.62 L 76.472 151.88 C 76.472 68 144.472 0 228.352 0 L 283.642 0 C 286.412 0 289.172 0.07 291.912 0.23 Z"
        fill="#5ea5ec"/>
    <path
        id="path_96"
        d="M 164.546 125.337 M 140.104 125.337 C 140.088 120.166 141.713 115.12 144.745 110.931 C 147.776 106.741 152.061 103.62 156.978 102.019 C 161.896 100.417 167.196 100.417 172.114 102.019 C 177.031 103.62 181.316 106.741 184.347 110.931 C 187.379 115.12 189.004 120.166 188.988 125.337 C 189.004 130.508 187.379 135.554 184.347 139.743 C 181.316 143.933 177.031 147.054 172.114 148.655 C 167.196 150.257 161.896 150.257 156.978 148.655 C 152.061 147.054 147.776 143.933 144.745 139.743 C 141.713 135.554 140.088 130.508 140.104 125.337"
        fill="#27353d"/>
    <path
        id="path_97"
        d="M 170.534 149.037 C 168.614 149.517 166.614 149.777 164.544 149.777 C 151.044 149.777 140.104 138.837 140.104 125.337 C 140.104 111.837 151.044 100.897 164.544 100.897 C 166.614 100.897 168.614 101.157 170.534 101.637 C 159.924 104.297 152.074 113.897 152.074 125.337 C 152.074 136.777 159.924 146.378 170.534 149.037 Z"
        fill="#5ea5ec"/>
    <path
        id="path_98"
        d="M 347.444 125.337 M 323.002 125.337 C 323.002 118.857 325.579 112.636 330.161 108.054 C 334.743 103.472 340.964 100.895 347.444 100.895 C 353.924 100.895 360.145 103.472 364.727 108.054 C 369.309 112.636 371.886 118.857 371.886 125.337 C 371.886 131.817 369.309 138.038 364.727 142.62 C 360.145 147.202 353.924 149.779 347.444 149.779 C 340.964 149.779 334.743 147.202 330.161 142.62 C 325.579 138.038 323.002 131.817 323.002 125.337"
        fill="#27353d"/>
    <path
        id="path_99"
        d="M 341.455 149.037 C 343.375 149.517 345.375 149.777 347.445 149.777 C 360.945 149.777 371.885 138.837 371.885 125.337 C 371.885 111.837 360.945 100.897 347.445 100.897 C 345.375 100.897 343.375 101.157 341.455 101.637 C 352.065 104.297 359.915 113.897 359.915 125.337 C 359.915 136.777 352.065 146.378 341.455 149.037 Z"
        fill="#5ea5ec"/>
    <path
        id="path_100"
        d="M 255.99 74.62 C 232.24 74.62 212.99 93.88 212.99 117.63 C 212.99 132.23 220.27 145.12 231.39 152.9 L 231.39 162.19 C 231.39 166.72 235.06 170.4 239.59 170.4 C 244.12 170.4 247.79 166.72 247.79 162.19 C 247.79 166.72 251.46 170.4 255.99 170.4 C 258.26 170.4 260.31 169.48 261.79 167.99 C 263.28 166.51 264.2 164.46 264.2 162.19 C 264.2 166.72 267.87 170.4 272.4 170.4 C 276.93 170.4 280.6 166.72 280.6 162.19 L 280.6 152.9 C 291.72 145.12 299 132.23 299 117.63 C 299 93.88 279.75 74.62 255.99 74.62 Z M 234.05 140.69 C 226.7 140.69 220.75 134.73 220.75 127.39 C 220.75 120.04 226.7 114.09 234.05 114.09 C 241.39 114.09 247.35 120.04 247.35 127.39 C 247.35 134.73 241.39 140.69 234.05 140.69 Z M 277.94 140.69 C 270.6 140.69 264.64 134.73 264.64 127.39 C 264.64 120.04 270.6 114.09 277.94 114.09 C 285.29 114.09 291.24 120.04 291.24 127.39 C 291.24 134.73 285.29 140.69 277.94 140.69 Z"
        fill="#ffffff"/>
    <path
        id="path_101"
        d="M 417.829 90.193 L 435.787 84.022 C 441.18 82.169 441.18 74.541 435.787 72.687 L 417.829 66.516 C 416.082 65.916 414.71 64.543 414.109 62.796 L 407.938 44.838 C 406.085 39.445 398.457 39.445 396.603 44.838 L 390.432 62.796 C 389.832 64.543 388.459 65.915 386.712 66.516 L 368.754 72.687 C 363.361 74.54 363.361 82.168 368.754 84.022 L 386.712 90.193 C 388.459 90.793 389.831 92.166 390.432 93.913 L 396.603 111.871 C 398.456 117.264 406.084 117.264 407.938 111.871 L 414.109 93.913 C 414.709 92.165 416.082 90.793 417.829 90.193 Z"
        fill="#f6f9f9"/>
</svg>
