<svg xmlns="http://www.w3.org/2000/svg" viewBox="0 0 203.41 203.7"><defs><style>.cls-1{fill:#27353e;}</style></defs><g id="Laag_2" data-name="Laag 2"><g id="Laag_1-2" data-name="Laag 1"><path class="cls-1" d="M.05,203.65v-99l.12-.11a.18.18,0,0,1,.09,0,5.67,5.67,0,0,1,.58-.05h98a1.28,1.28,0,0,1,.28.07l.07.08a.35.35,0,0,1,0,.08,1.47,1.47,0,0,1,.05.29v98a4.22,4.22,0,0,1-.06.54c-.21,0-.42.1-.63.12s-.53,0-.79,0H1.47C1,203.7.58,203.67.05,203.65Zm7.41-6.76,1.3.07,2.83.11c.81,0,1.62.11,2.43.08,2.18-.09,4.35-.24,6.53-.33,1.07,0,2.15,0,3.22,0a2.44,2.44,0,0,0,1.39-.37,64.09,64.09,0,0,0,6.5-4.48Q43,182.76,54.39,173.52A69.36,69.36,0,0,0,64,164.63c2.95-3.51,6-7,8.59-10.74a32.93,32.93,0,0,0,4.26-8.3,12.77,12.77,0,0,0,.65-6.06,19.8,19.8,0,0,0-6.32-12c-4.67-4.21-10-4.74-15.64-2.52a28.24,28.24,0,0,0-9.4,6.36c-2.63,2.61-5.2,5.29-7.87,7.86a27,27,0,0,1-3.88,3.11c-3.48,2.3-6.85,4.74-10.1,7.35-2.78,2.24-5.47,4.63-8.36,6.73a50.56,50.56,0,0,0-7.17,6.29,4.15,4.15,0,0,1-.55.56A1.92,1.92,0,0,0,7.44,165q0,15.42,0,30.84Zm4.76-62.73h-.16c0,1,0,1.89,0,2.83.07,3,.13,6,.22,9a4.63,4.63,0,0,0,.27,1.33,1.2,1.2,0,0,0,1.7.81,5.44,5.44,0,0,0,1.1-.62c1.11-.74,2.2-1.51,3.31-2.26s2.44-1.61,3.63-2.46,2.31-1.79,3.5-2.65c3.36-2.45,6.8-4.8,10.1-7.34a12.76,12.76,0,0,0,5-8.12,7.32,7.32,0,0,0-3.23-7.8,13.79,13.79,0,0,0-10.53-2.07,42.9,42.9,0,0,0-13,4.83,3.25,3.25,0,0,0-1.9,3.14c0,.2,0,.39,0,.59Zm60.89-22H71.94a9.9,9.9,0,0,0-5,1.28,4.11,4.11,0,0,0-1.54,5.87,5.28,5.28,0,0,0,1.8,1.75c.85.5,1.7,1,2.56,1.43a18.37,18.37,0,0,1,6,5A19.53,19.53,0,0,1,78,131.57a19.06,19.06,0,0,0,1.09,2.28,2.57,2.57,0,0,0,3,1.29,4.78,4.78,0,0,0,1.11-.35,11.08,11.08,0,0,0,3.34-2.18,9.58,9.58,0,0,0,3.13-7.3,9.7,9.7,0,0,0-1-4.24,15.77,15.77,0,0,0-10.3-8.45A19.12,19.12,0,0,0,73.11,112.12ZM85,172.06c0,.67,0,1.16,0,1.64a48,48,0,0,0-.17,7.49c.17,2.95.26,5.91.42,8.86a8,8,0,0,0,.67,3.13,1.39,1.39,0,0,0,1.26.93,1.27,1.27,0,0,0,1.23-1,15.49,15.49,0,0,0,.67-2.23,31.11,31.11,0,0,0,.54-6c.07-3.48,0-7,0-10.44a6.14,6.14,0,0,1,.78-3.08,10,10,0,0,0,.76-1.58,9.2,9.2,0,0,0,.64-5,1.66,1.66,0,0,0-2.4-1.34,4.38,4.38,0,0,0-.79.37c-.91.58-1.84,1.11-2.7,1.76-1.29,1-2.5,2.08-3.79,3.06a12.23,12.23,0,0,0-2.49,2.59c-.45.63-.82,1.32-.32,2.06a1.65,1.65,0,0,0,2,.46,17.53,17.53,0,0,0,2.15-.91C84,172.61,84.42,172.35,85,172.06Zm3.46-28.62a4.62,4.62,0,0,1,1.15,3.43,12.82,12.82,0,0,1-1.29,4.37,3.39,3.39,0,0,1-.56.8c-.94,1-1.91,2-2.82,3a7.66,7.66,0,0,0-1.17,1.66,1.32,1.32,0,0,0,.25,1.62,1.44,1.44,0,0,0,1.53.34c.09,0,.19,0,.28-.08a9.86,9.86,0,0,0,3.69-2.48,12.56,12.56,0,0,0,3-10.32,11.49,11.49,0,0,0-1.85-4.88,4.21,4.21,0,0,0-2.51-1.57,1.4,1.4,0,0,0-1.51.45,5.74,5.74,0,0,0-.83,1.3c-.63,1.39-1.23,2.8-1.8,4.21a45.83,45.83,0,0,1-6.4,11.24c-1.2,1.54-2.49,3-3.73,4.51a9.73,9.73,0,0,0-1.67,2.74,2.46,2.46,0,0,0-.16,1.71,1.27,1.27,0,0,0,1.31.94,2.32,2.32,0,0,0,1.41-.61,9.92,9.92,0,0,0,2.11-2.41c.84-1.23,1.66-2.48,2.53-3.7a47,47,0,0,0,3.79-6.36q2-4,4.06-8C87.61,144.72,88,144.17,88.45,143.44ZM66.81,187.51a6.36,6.36,0,0,0,1.62,4.56A8.35,8.35,0,0,0,73,194.72a5.76,5.76,0,0,0,2.41,0A6.16,6.16,0,0,0,80,190.52a8.28,8.28,0,0,0-.17-6.09c-1.29-3.3-2.88-6.46-4.38-9.67a4.68,4.68,0,0,0-.53-.92c-.56-.74-1.17-.77-1.77-.06a9.73,9.73,0,0,0-1.11,1.6c-1.35,2.44-2.67,4.9-4,7.35A10.73,10.73,0,0,0,66.81,187.51Zm-6.48-1.71a12.23,12.23,0,0,0,5.19-3.54,6.25,6.25,0,0,0,1.38-3A4.27,4.27,0,0,0,64,174.48a3.43,3.43,0,0,0-1.62-.1,6,6,0,0,0-4.24,3.29,15,15,0,0,0-1.42,5.53,99,99,0,0,0,.07,12.18,1.31,1.31,0,0,0,.94,1.23,1.21,1.21,0,0,0,1.48-.44,3.6,3.6,0,0,0,.77-2c.1-1,.16-1.94.21-2.92C60.22,189.47,60.27,187.65,60.33,185.8Zm-10.69,5.82,0,.22a3.11,3.11,0,0,1-2.24.75,4.09,4.09,0,0,0-.78,0c-1.47.24-2.94.51-4.42.73-1.09.16-2.19.25-3.28.4a3.77,3.77,0,0,0-2.05.82,1,1,0,0,0-.35,1.06,1,1,0,0,0,.8.76,2.82,2.82,0,0,0,.87.06c1.06-.09,2.12-.23,3.19-.31a40.18,40.18,0,0,0,6.46-.9,9.59,9.59,0,0,0,3.9-1.69,2.81,2.81,0,0,0,1.21-3,2.68,2.68,0,0,0-2.78-1.73c-1.16,0-2.32.2-3.49.31a6.06,6.06,0,0,1-.67-.05,1.61,1.61,0,0,1,1-1.2,21.38,21.38,0,0,1,2.18-.85c.8-.26,1.63-.43,2.43-.69s1.33-.91,1.18-1.55-.84-1.09-1.77-1a1.93,1.93,0,0,0-.48.08,14.87,14.87,0,0,0-1.73.63c-.88.43-1.73.91-2.57,1.41a6.79,6.79,0,0,0-2.66,2.78,2.09,2.09,0,0,0,1.88,3c1,0,2.08-.06,3.12-.09Zm3.27-73.43c.62-.28,1.25-.54,1.86-.84A4.79,4.79,0,0,0,56.51,116a2.29,2.29,0,0,0-.19-3.1,3.43,3.43,0,0,0-2.62-1.11c-1.65,0-3.31.08-5,.09a5.69,5.69,0,0,0-2.59.76,1.19,1.19,0,0,0-.59.7,5.63,5.63,0,0,0-.06,1.83c.26,1.66.59,3.32.95,5a15.92,15.92,0,0,0,.71,2.22,1,1,0,0,0,1,.68,1.09,1.09,0,0,0,.88-.82,3.18,3.18,0,0,0,.11-1c-.06-1.39-.14-2.78-.24-4.18-.07-1-.19-1.91-.3-2.93a16.83,16.83,0,0,1,4.37,0c.4,0,.89.16,1,.65s-.33.77-.7,1c-.78.39-1.58.73-2.39,1.06s-1,.83-.65,1.51a11.26,11.26,0,0,0,3.4,3.57,1,1,0,0,0,1.42,0c.38-.41.34-.93-.12-1.48-.09-.1-.19-.18-.27-.28Z"/><path class="cls-1" d="M203.27,104.56c.16.81.2,97.61,0,98.85a8.37,8.37,0,0,1-.9.08c-1.24,0-2.47,0-3.7,0-1.59,0-3.18.14-4.77.19-.91,0-1.82,0-2.73,0-4.71-.06-9.42-.16-14.13-.18-8.12,0-16.24-.06-24.36,0-5,0-10.06-.26-15.09-.28-4.54,0-9.09.14-13.63.22-.62,0-1.24,0-1.86,0H104.31c0-.46-.09-.83-.09-1.21V192c0-8.46,0-16.92,0-25.38,0-4.05.21-8.1.32-12.15a15.64,15.64,0,0,0-.3-4.26,4.18,4.18,0,0,1-.07-1.06q0-19.69,0-39.39c0-1.45,0-2.91,0-4.36a6,6,0,0,1,.08-.69l.13-.13a.14.14,0,0,1,.09,0,3.91,3.91,0,0,1,.48-.05h97.84A2.84,2.84,0,0,1,203.27,104.56Zm-50,76.07c-.24-.33-.44-.62-.66-.89-2.13-2.66-4.23-5.34-6.4-8-4.49-5.46-8.73-11.12-12.95-16.79-1.62-2.19-3.36-4.29-5.05-6.43a5.77,5.77,0,0,0-.56-.53,8,8,0,0,0-.7.43c-2.19,1.63-4.4,3.23-6.54,4.91-2.45,1.93-4.82,3.95-7.24,5.9s-4.58,3.64-6.89,5.42a1.86,1.86,0,0,0-.78,1.66c0,3.21,0,6.41,0,9.62,0,5.54,0,11.09,0,16.63,0,2.78,0,5.57,0,8.36,0,.37,0,.75.06,1.13a3.34,3.34,0,0,0,.47.09h21.24a2.35,2.35,0,0,0,1.78-.6c.5-.5,1.08-.93,1.63-1.38,3.56-3,7.13-5.94,10.67-8.93,1-.79,1.81-1.68,2.74-2.48,2.13-1.81,4.29-3.57,6.39-5.4C151.47,182.57,152.31,181.62,153.29,180.63Zm1.59-.29c0,1.23,0,2.46,0,3.69a2,2,0,0,1-.63,1.66q-6.19,5.42-12.34,10.87c-1.77,1.58-3.52,3.18-5.26,4.78-.22.2-.55.36-.46.84,1,0,2-.06,3,0a3.63,3.63,0,0,0,2.44-.76,88.23,88.23,0,0,0,9.18-7.52c5.81-5.33,11.59-10.7,17.38-16a4.67,4.67,0,0,1,.58-.39l.23,1.31c.09.48.14,1,.26,1.43.22.81.52,1.6.69,2.43a7.71,7.71,0,0,0,1.43,3.05c1.81,2.49,3.57,5,5.41,7.49A9,9,0,0,0,178.6,195c1.36,1.07,1.47,1,2.88.06a21.75,21.75,0,0,0,4.08-3.88,48.16,48.16,0,0,0,6-8.14,9.62,9.62,0,0,0,1.23-3.56,15.5,15.5,0,0,0-1-7.44,6.57,6.57,0,0,0-2.23-3.12,4.09,4.09,0,0,1-.7-.68,5.36,5.36,0,0,0-2.42-1.57c-.7-.24-1.41-.49-2.12-.72a11.19,11.19,0,0,0-3.15-.6,13.9,13.9,0,0,1-1.62-.26c.61-.62,1.06-1.11,1.55-1.57a36.1,36.1,0,0,0,6.44-8.26,39.27,39.27,0,0,0,3-6.52,16.22,16.22,0,0,0,1.28-6.63l-.24-4.26c-.07-1.2-.08-2.4-.19-3.59a14,14,0,0,0-1.27-4.58c-.79-1.7-1.7-3.35-2.61-5a16.8,16.8,0,0,0-5.13-5.64,3.26,3.26,0,0,0-.93-.51,14.7,14.7,0,0,1-3.23-1.59,11.24,11.24,0,0,0-4.22-1.39,38,38,0,0,0-9.71.29,22.13,22.13,0,0,0-9.33,3.44,31.51,31.51,0,0,0-2.89,2.12c-1.38,1.18-2.73,2.4-4.15,3.53-4.67,3.72-9.38,7.39-14.06,11.1-5.72,4.54-11.44,9.07-16.83,14-3.47,3.18-7.14,6.13-10.72,9.19a7,7,0,0,0-.56.53,1.33,1.33,0,0,0-.3,1.26,9.76,9.76,0,0,1,.13,1.44c0,.3,0,.61.1,1.1l1.36-1c1.8-1.44,3.54-3,5.41-4.31,2.61-1.87,5.14-3.85,7.63-5.88s4.86-3.79,7.3-5.67c.45-.35.67-.37,1,0a28.19,28.19,0,0,1,2.72,2.63c2.24,2.73,4.41,5.52,6.56,8.33,1.46,1.91,2.79,3.91,4.26,5.81,4,5.15,8.1,10.22,11.81,15.58a3.5,3.5,0,0,0,.44.5"/><path class="cls-1" d="M203.29,99.21H104.43c-.09-.08-.12-.1-.13-.13a.12.12,0,0,1,0-.08c0-.22-.06-.44-.06-.67q0-48.93,0-97.86a1.48,1.48,0,0,1,.09-.35A4.74,4.74,0,0,1,105,0c.32,0,.64,0,1,0h97.31a2.44,2.44,0,0,1,.14.55V98.71A2.24,2.24,0,0,1,203.29,99.21ZM105.7,1.46a2.61,2.61,0,0,0-.08.44q0,28.89,0,57.78a.12.12,0,0,0,0,.08.25.25,0,0,0,.09,0l-.16-.16c.59-.48,1.17-1,1.77-1.44,1.05-.83,2.09-1.68,3.18-2.44,2.84-2,5.53-4.1,8.17-6.32a158,158,0,0,1,15.88-11.95,24.7,24.7,0,0,0,4.24-3.4c2.58-2.61,5.2-5.18,7.75-7.81a40.89,40.89,0,0,1,9.22-7.07,18,18,0,0,1,9.84-2.53,15.34,15.34,0,0,1,8.81,3,22.2,22.2,0,0,1,7.74,10.9,16,16,0,0,1,.65,9.21,29.32,29.32,0,0,1-2.37,6.14,50.48,50.48,0,0,1-6,9.07c-2.53,3.12-5.19,6.12-7.75,9.22a37.68,37.68,0,0,1-5.2,5.06q-13.41,11-26.88,22a80,80,0,0,1-8.58,6.4s0,.1-.07.17a1.38,1.38,0,0,0,.26.06H201.4a2.32,2.32,0,0,0,.38,0s.05,0,.08,0l.07-.06c.17-1.56.1-95.5-.09-96.24ZM152,55a2.27,2.27,0,0,0,1.9-1.61,1,1,0,0,0-1.13-1.15,2.23,2.23,0,0,0-1.66,1.43A.89.89,0,0,0,152,55Zm8.51-8.12c0-.68-.3-1.11-.72-1.19a1.1,1.1,0,0,0-1.1.73,8.17,8.17,0,0,0-.29,1.39.68.68,0,0,0,.34.72.74.74,0,0,0,.88-.07A1.92,1.92,0,0,0,160.51,46.87Zm-14.72-1.25a1.33,1.33,0,0,0-1.19.66,2.34,2.34,0,0,0-.72,1.51.7.7,0,0,0,.87.73A1.48,1.48,0,0,0,146,46.3,4.32,4.32,0,0,1,145.79,45.62Zm6.83-6a3,3,0,0,0-.5-.81.79.79,0,0,0-1,.09,2,2,0,0,0-.84,1.23,1.3,1.3,0,0,0,.6,1.3c.36.17.78,0,1.11-.5A11.42,11.42,0,0,0,152.62,39.61Z"/><path class="cls-1" d="M54.85,151.45a.65.65,0,0,1-.7-.74A2.28,2.28,0,0,1,56,148.92a.69.69,0,0,1,.71.84A2.65,2.65,0,0,1,54.85,151.45Z"/><path class="cls-1" d="M44.47,149.74a2.35,2.35,0,0,1-.37.61,7.32,7.32,0,0,1-1.1.79.56.56,0,0,1-.79-.09,1.06,1.06,0,0,1-.19-.71,2.42,2.42,0,0,1,1.54-1.5C44.08,148.75,44.47,149.07,44.47,149.74Z"/><path class="cls-1" d="M48.26,144.89a.5.5,0,0,1-.49-.54,2.12,2.12,0,0,1,1.71-1.82.56.56,0,0,1,.59.52C50.14,143.67,49,144.9,48.26,144.89Z"/><path class="cls-1" d="M48,157.29a.58.58,0,0,1-.59-.84,2.38,2.38,0,0,1,1.46-1.33.57.57,0,0,1,.77.6A2.15,2.15,0,0,1,48,157.29Z"/><path class="cls-1" d="M15.54,139.7c-.06-.68-.13-1.12-.13-1.57,0-3.93,0-7.86,0-11.79a1.49,1.49,0,0,1,1-1.59c1.44-.59,2.86-1.24,4.32-1.77,1.71-.61,3.43-1.21,5.19-1.66a6.2,6.2,0,0,1,2.61-.06A4.25,4.25,0,0,1,31.8,127a5.34,5.34,0,0,1-1.36,2.23,16.72,16.72,0,0,1-2.2,1.92c-3.85,2.66-7.73,5.28-11.6,7.91C16.35,139.22,16,139.39,15.54,139.7Z"/><path class="cls-1" d="M84.38,127a6.06,6.06,0,0,1-1.56,4.49,4.51,4.51,0,0,1-2,1.2c-.74.24-1.1.13-1.46-.56s-.72-1.67-1.12-2.49c-.64-1.31-1.24-2.65-2-3.89a11.3,11.3,0,0,0-5.18-4.43,10.2,10.2,0,0,1-2.91-1.55,1.53,1.53,0,0,1,.48-2.63,8.6,8.6,0,0,1,4.69-.4,12.45,12.45,0,0,1,6.35,3,36.07,36.07,0,0,1,2.63,2.47A6.79,6.79,0,0,1,84.38,127Z"/><path class="cls-1" d="M75.72,188.73c-.06.49-.09,1-.19,1.45a3.17,3.17,0,0,1-4.37,2.59,3.42,3.42,0,0,1-2.39-2.33,4.37,4.37,0,0,1,.81-4.45,3.45,3.45,0,0,1,6.06,2c0,.26,0,.52,0,.78Z"/><path class="cls-1" d="M59,183.32c-.32-2.72.78-4.44,2.22-5.25a1.41,1.41,0,0,1,.76,1.93,5.35,5.35,0,0,1-.8,1.44A6.7,6.7,0,0,1,59,183.32Z"/><path class="cls-1" d="M131.65,164.16a2.57,2.57,0,0,1,1.32-2,1.34,1.34,0,0,1,2,1.22,3.13,3.13,0,0,1-.37,1.18,4.72,4.72,0,0,1-.67.82,1.2,1.2,0,0,1-1.47.37,1.13,1.13,0,0,1-.8-1.19C131.67,164.47,131.66,164.38,131.65,164.16Z"/><path class="cls-1" d="M137.89,172.36c-.11-1,.63-1.56,1.28-2.16a1.08,1.08,0,0,1,1.28,0,1.42,1.42,0,0,1,.77,1.26,2.56,2.56,0,0,1-2.28,2.11C138.08,173.56,137.85,173.32,137.89,172.36Z"/><path class="cls-1" d="M163.55,175.93c-.27-.24-.6-.4-.85-.65-.69-.72-1.39-1.44-2-2.21-1.7-2-3.41-4.07-4.91-6.28-1.22-1.8-2.59-3.49-4-5.19q-6.23-7.78-12.49-15.54c-.23-.28-.48-.53-.7-.81a2.64,2.64,0,0,1-.62-1.8c.05-1,.16-2,.16-3a1.57,1.57,0,0,1,.65-1.31c2.06-1.63,4.11-3.28,6.12-5a24,24,0,0,0,4-4.15,20.46,20.46,0,0,1,5.3-4.82,38.84,38.84,0,0,1,6.09-3.63,15.83,15.83,0,0,1,8.36-1.42c.67.09,1.36.06,2,.16a20.19,20.19,0,0,1,13.21,7.54,19.61,19.61,0,0,1,3.52,7.31,14.83,14.83,0,0,0,.54,1.45,4.28,4.28,0,0,1,.29.92,17.64,17.64,0,0,1,.19,2.71c-.11,2.65-.2,5.31-.49,7.95a14,14,0,0,1-1.05,3.52,45.08,45.08,0,0,1-3,6.3,22,22,0,0,1-3.35,4.27c-2.45,2.55-4.87,5.13-7.38,7.61-1.66,1.64-3.45,3.15-5.2,4.7-.72.64-1.5,1.24-2.24,1.86a1.6,1.6,0,0,0-.41.41m.17-5.26a2.26,2.26,0,0,0,.4-.12c1.9-1.62,3.8-3.25,5.68-4.88a4.52,4.52,0,0,0,.56-.67c.11-.12.2-.26.31-.37,1.22-1.21,2.45-2.4,3.66-3.62a90.56,90.56,0,0,0,7.09-8.77,8.79,8.79,0,0,0,1-1.75c.65-1.41,1.25-2.84,1.83-4.28a5,5,0,0,0,.22-1.22c.06-.51.07-1,.13-1.54.08-.73.24-1.46.29-2.2.06-.91-.05-1.83.07-2.72a13.42,13.42,0,0,0-3.27-9.67c-.32-.41-.7-.77-1-1.16a13.31,13.31,0,0,0-3-2.86,24,24,0,0,0-7.09-3.15c-1.77-.41-3.57-.69-5.36-1a6.08,6.08,0,0,0-3.08.22c-1.26.43-2.5.9-3.73,1.4a20.89,20.89,0,0,0-3.79,2.36,45.3,45.3,0,0,0-7.57,6.09c-.25.26-.54.46-.8.71a1.37,1.37,0,0,0-.44.5,1.89,1.89,0,0,1-.83.91c-.4.28-.79.58-1.17.88l-5.82,4.71a3,3,0,0,0-.37.4,5.35,5.35,0,0,0,.44.63c1.26,1.4,2.53,2.79,3.78,4.2,3,3.34,5.83,6.79,8.54,10.35q6,7.86,12,15.69a4.1,4.1,0,0,0,.51.51"/><path class="cls-1" d="M182.33,170.37c1.65-.09,3.34,1,4.94,2.25a14.61,14.61,0,0,1,1.31,1.3,6.87,6.87,0,0,1,1.5,7.56,17.54,17.54,0,0,1-1.49,3.16c-1.33,2.26-2.74,4.48-4.13,6.7a9.53,9.53,0,0,1-3.78,3.11,1.33,1.33,0,0,1-1.88-.3,10.85,10.85,0,0,1-1.86-2.19.94.94,0,0,0-.3-.38,4.77,4.77,0,0,1-1.59-1.92,36,36,0,0,1-3.09-5.94,4.22,4.22,0,0,1-.18-.45q-.3-1.82-.57-3.63a.55.55,0,0,1,.16-.43,1.59,1.59,0,0,0,.46-1.24c.33-3.33,2.24-5.42,5.24-6.64A13.92,13.92,0,0,1,182.33,170.37Zm-.17,16a6.5,6.5,0,0,0,5.28-3.06,20.43,20.43,0,0,0,1.38-2.77,4.58,4.58,0,0,0,.11-3.41,6.31,6.31,0,0,0-3.75-4.18,6.63,6.63,0,0,0-5.38-.1c-.2.1-.44.13-.64.23a5.76,5.76,0,0,0-1.07.65,7.69,7.69,0,0,0-2.09,8.67A6.24,6.24,0,0,0,182.16,186.38Zm-5.68-13.27a3.76,3.76,0,0,0-1.83,1.27,9.09,9.09,0,0,0-1.84,4.83,10.84,10.84,0,0,0,2,6.94l4.53,7c.32.5.48.51,1.22,0-.25-.37-.5-.74-.73-1.12-.53-.85-1.07-1.7-1.56-2.57-.9-1.61-1.77-3.23-2.64-4.86a8.75,8.75,0,0,1-.87-1.83c-.79-3.1-.69-6.1,1.19-8.85C176.12,173.73,176.24,173.51,176.48,173.11Z"/><path class="cls-1" d="M109.28,27.27V16.08c0-.31,0-.63,0-.95a3.29,3.29,0,0,1,1.76-2.87,45.33,45.33,0,0,1,15.66-5.8A15.31,15.31,0,0,1,138.21,9a8.35,8.35,0,0,1,3.6,8.75,14.46,14.46,0,0,1-5.56,9.19c-3.4,2.68-7,5.13-10.49,7.67-1,.71-2,1.38-3,2.08a6.22,6.22,0,0,0-.91.69,19.14,19.14,0,0,1-3.56,2.56c-1.86,1.17-3.7,2.36-5.55,3.55a2.34,2.34,0,0,1-1.23.46,2.15,2.15,0,0,1-2.2-2.12c-.27-4.27-.29-8.53-.19-12.8,0-.58,0-1.15,0-1.72Zm5.64,7c.38-.28.58-.42.77-.58a112.92,112.92,0,0,1,10.18-7.76c1-.68,2.06-1.38,3-2.14s1.87-1.54,2.75-2.37a5.91,5.91,0,0,0,1.51-2.4,4.74,4.74,0,0,0-4.54-6.5,9.11,9.11,0,0,0-3.28.5c-1.8.63-3.6,1.26-5.39,1.93a34.46,34.46,0,0,0-3.44,1.41c-1.48.74-1.42.45-1.42,2.3,0,3.41,0,6.82,0,10.23C115.08,30.62,115,32.34,114.92,34.28Z"/><path class="cls-1" d="M178.14,3.5a24.29,24.29,0,0,1,5.89.67,18,18,0,0,1,10,7.1A13.15,13.15,0,0,1,196.45,17,10.81,10.81,0,0,1,193,26.87a13.15,13.15,0,0,1-3.74,2.45,6.62,6.62,0,0,1-.62.24,3.29,3.29,0,0,1-4.36-1.67,24.78,24.78,0,0,1-1.08-2.34A21.3,21.3,0,0,0,180.65,21a20.42,20.42,0,0,0-6.7-5.59c-1-.53-1.95-1.07-2.91-1.64a5.92,5.92,0,0,1-2-2A4.72,4.72,0,0,1,170.88,5C173.16,3.76,174.79,3.51,178.14,3.5Zm0,3.86a7.53,7.53,0,0,0-3.44.67,1.6,1.6,0,0,0-.41,2.64A5.53,5.53,0,0,0,176,11.73c.76.31,1.51.66,2.25,1a13,13,0,0,1,4.43,3.56,22.07,22.07,0,0,1,3,5.41c.38.94.77,1.89,1.22,2.8s.77,1,1.71.64a5,5,0,0,0,2.66-2.07,7,7,0,0,0,1-4.57,8,8,0,0,0-2.47-5.14A48,48,0,0,0,186,10,13.29,13.29,0,0,0,178.12,7.36Z"/><path class="cls-1" d="M190.3,67.55l-1.12.52a12.27,12.27,0,0,1-3.32,1.17c-.13,0-.25.07-.37.08a1.92,1.92,0,0,1-1.91-.85,1.64,1.64,0,0,1,.12-1.89,11.67,11.67,0,0,1,2.81-3c1.36-1,2.68-2.07,4.09-3s3.16-1.9,4.76-2.82a3.59,3.59,0,0,1,1-.36A2,2,0,0,1,198.89,59a6,6,0,0,1,.14,1.89,11.53,11.53,0,0,1-1.85,5.67,9.26,9.26,0,0,0-1.49,5c-.07,1.62-.15,3.24-.23,4.87a87.52,87.52,0,0,1-1.16,11.88,28.56,28.56,0,0,1-1,3.4,3.46,3.46,0,0,1-.54,1,1.54,1.54,0,0,1-2.69-.13,5.93,5.93,0,0,1-.61-1.79,13.4,13.4,0,0,1-.19-2.19c0-2.61,0-5.23,0-7.84s.2-5.29.36-7.92c.08-1.24.31-2.47.46-3.7C190.21,68.62,190.24,68.18,190.3,67.55Z"/><path class="cls-1" d="M191.51,36c-.37.75-.73,1.39-1,2.06q-1.94,4.62-3.82,9.27a52.09,52.09,0,0,1-3.48,7.12c-.91,1.54-1.75,3.11-2.67,4.64a21.85,21.85,0,0,1-1.74,2.5,4.85,4.85,0,0,1-1.47,1.19,1.6,1.6,0,0,1-2.42-1.15,3.07,3.07,0,0,1,0-1.13,7.62,7.62,0,0,1,1.23-3c.69-1.06,1.43-2.11,2.19-3.13A53.52,53.52,0,0,0,184.82,43c.51-1.23,1-2.49,1.4-3.75.62-1.81,1.2-3.63,1.82-5.44a10.41,10.41,0,0,1,.73-1.75,2.12,2.12,0,0,1,2.61-1,5.08,5.08,0,0,1,3.26,2.46A14.42,14.42,0,0,1,193.82,50a11.25,11.25,0,0,1-3.9,3,2.43,2.43,0,0,1-1,.25,1.62,1.62,0,0,1-1.73-1.73,3.93,3.93,0,0,1,1-2.31,33,33,0,0,1,2.25-2.73,8.89,8.89,0,0,0,2.25-4.86,14.76,14.76,0,0,0,.2-2.66A4.29,4.29,0,0,0,191.51,36Z"/><path class="cls-1" d="M179.28,95a6.25,6.25,0,0,1-2.85-.63,10.68,10.68,0,0,1-3.51-2.26,7.69,7.69,0,0,1-2.33-6,12.43,12.43,0,0,1,1.47-5.49c1.51-2.73,3-5.47,4.54-8.18a14.8,14.8,0,0,1,1.45-2.13,1.35,1.35,0,0,1,2.42.09,6.82,6.82,0,0,1,.6,1.09c1.72,3.77,3.52,7.49,5,11.37a9.55,9.55,0,0,1,0,7.35,7.47,7.47,0,0,1-5.46,4.76,2.42,2.42,0,0,1-.47.07Zm3.65-8.87h-.1v-.86c0-2.4-2.54-3.74-4.27-3.56a3.27,3.27,0,0,0-2,.84,5.25,5.25,0,0,0-1.07,6.62,1.94,1.94,0,0,0,.35.45,4.5,4.5,0,0,0,1.83,1.17c2.63.84,4.4-.37,5-2.67A16.24,16.24,0,0,0,182.93,86.13Z"/><path class="cls-1" d="M163.34,84.2c-.07,2.07-.12,4.07-.23,6.08-.07,1.33-.2,2.66-.36,4a3.77,3.77,0,0,1-.85,2,1.48,1.48,0,0,1-1.93.58,1.66,1.66,0,0,1-1.17-1.67c0-3.37-.11-6.75-.15-10.12a27.56,27.56,0,0,1,1-8.13,10.59,10.59,0,0,1,1.72-3.6,7.9,7.9,0,0,1,3.47-2.44,4.24,4.24,0,0,1,4.14.73,4.89,4.89,0,0,1,2.12,4.8,6,6,0,0,1-1.21,3.07,13.22,13.22,0,0,1-1.65,1.85A13.07,13.07,0,0,1,163.34,84.2Zm.47-4.61a10.29,10.29,0,0,0,2.37-2.21,6.15,6.15,0,0,0,.86-1.67,1.48,1.48,0,0,0-.76-1.91C164.54,74.59,163.49,77,163.81,79.59Z"/><path class="cls-1" d="M146.63,87.91c.79-.11,1.44-.24,2.1-.29,1-.07,2-.13,2.94-.12a3.48,3.48,0,0,1,2,.73,2.57,2.57,0,0,1,.89,3.29,4.84,4.84,0,0,1-2.38,2.38,15.43,15.43,0,0,1-4.51,1.49,47.28,47.28,0,0,1-6.92.78,2.1,2.1,0,0,0-.66.09,8.92,8.92,0,0,1-3.21.27,2.63,2.63,0,0,1-.92-.21,1.24,1.24,0,0,1-.48-2,3.35,3.35,0,0,1,1.42-.9,13.82,13.82,0,0,1,3-.55,25.43,25.43,0,0,0,3-.38,30.91,30.91,0,0,1,5.77-.66,3.69,3.69,0,0,0,1.73-.72,6.29,6.29,0,0,0-2.12,0,7.86,7.86,0,0,1-2.94-.08,2.51,2.51,0,0,1-1.72-3.78A8,8,0,0,1,146.94,84c.85-.49,1.72-1,2.59-1.43a7.05,7.05,0,0,1,2.7-.89,3.42,3.42,0,0,1,1.49.18,1.43,1.43,0,0,1,.34,2.54,4.48,4.48,0,0,1-1.55.67,26.46,26.46,0,0,0-4.45,1.41A2.36,2.36,0,0,0,146.63,87.91Z"/><path class="cls-1" d="M155.41,10.52c.71.79,1.38,1.51,2,2.25a2.87,2.87,0,0,1,.46.71,1.06,1.06,0,0,1-.26,1.15,1.13,1.13,0,0,1-1.21.36,2.38,2.38,0,0,1-.76-.39,13.79,13.79,0,0,1-3.59-3.79c-.58-1-.34-1.76.75-2.05a8.74,8.74,0,0,0,2.75-1.27,1.3,1.3,0,0,0,.59-.79c.05-.4-.4-.53-.73-.63a14.27,14.27,0,0,0-5,0c.12,1.12.29,2.24.37,3.37.12,1.56.19,3.12.24,4.68a2.84,2.84,0,0,1-.21,1.11,1.23,1.23,0,0,1-1.08.84,1.17,1.17,0,0,1-1.14-.74,12.22,12.22,0,0,1-.78-2.14c-.41-1.8-.78-3.61-1.07-5.43a15.83,15.83,0,0,1-.08-2.67c0-.54.44-.8.87-1a7.16,7.16,0,0,1,3.39-.85c1.75,0,3.5-.07,5.24-.07a4.09,4.09,0,0,1,2.4.82A2.83,2.83,0,0,1,159,8.42a7.63,7.63,0,0,1-2.54,1.65Z"/><path class="cls-1" d="M181.26,133.65c.21.77.41,1.58.64,2.39a21.64,21.64,0,0,1,.66,7A15,15,0,0,1,180,151a45.29,45.29,0,0,1-5,6.11q-2.4,2.41-4.86,4.75a24.83,24.83,0,0,1-2.05,1.63.72.72,0,0,1-.91.06,6.65,6.65,0,0,1-1.41-1.15c-1.87-2.41-3.81-4.75-5.71-7.14-3-3.73-5.89-7.49-8.85-11.21-1.21-1.52-2.48-3-3.73-4.48a.67.67,0,0,1-.16-.79,5.79,5.79,0,0,1,.68-1.16,42.56,42.56,0,0,1,3.19-3.11c1.65-1.51,3.24-3.09,4.86-4.62a4.15,4.15,0,0,1,.84-.66c1.59-.94,3.18-1.87,4.79-2.79a7,7,0,0,1,3.37-.81,23.92,23.92,0,0,1,5.78.68,20,20,0,0,1,5.38,2A5.68,5.68,0,0,1,178,129.7c.83,1,1.5,2,2.28,3A8.83,8.83,0,0,0,181.26,133.65Zm-7-.77a2,2,0,0,0-1.59-1.14,5.1,5.1,0,0,1-2.27-.82,2,2,0,0,0-1.29-.32,4,4,0,0,1-1.43-.09,2.72,2.72,0,0,0-1.62-.07c-1.06.28-2.12.6-3.19.86a8.76,8.76,0,0,0-3,1.37c-.61.43-1.2.89-1.78,1.35-2.53,2-4.77,4.28-7.22,6.33a4.22,4.22,0,0,0-.33.38c.21.28.36.53.55.74.69.77,1.42,1.51,2.09,2.3,1.32,1.55,2.65,3.11,3.91,4.71,3.32,4.2,6.61,8.42,9.92,12.62.21.27.44.53.57.67.82-.73,1.57-1.38,2.31-2.06,1.26-1.17,2.46-2.41,3.79-3.5a13.7,13.7,0,0,0,2-2.05c.36-.45.73-.9,1.11-1.34a9.45,9.45,0,0,0,2.28-4.14,30,30,0,0,0,.46-3.55,11.34,11.34,0,0,0-.56-4.41,28.74,28.74,0,0,0-1.64-3.94,16.75,16.75,0,0,0-1.54-2.58"/><path class="cls-1" d="M148.54,147.28a2.57,2.57,0,0,1,.27-.87c.68-1.08,1.4-.89,2.25-.2a.57.57,0,0,1,.12.15,1.54,1.54,0,0,1-.37,1.61c-.34.47-.7.95-1.42.77S148.56,148.26,148.54,147.28Z"/><path class="cls-1" d="M158.52,156.13a1.88,1.88,0,0,1-1.45,1.72.79.79,0,0,1-.89-.43c-.2-.34-.42-.69-.13-1.08a2.31,2.31,0,0,1,1.57-1A.71.71,0,0,1,158.52,156.13Z"/><path class="cls-1" d="M181.53,183.75a3.29,3.29,0,0,1-3.44-3.63,4.71,4.71,0,0,1,2.74-4.47,2.39,2.39,0,0,1,1.49-.24,6.85,6.85,0,0,1,2.75.89,2.73,2.73,0,0,1,1.3,2.16A4.85,4.85,0,0,1,181.53,183.75Zm.95-6.68a2,2,0,0,0-2.59,1.17,3.48,3.48,0,0,0,.14,3.16,1,1,0,0,0,1.69.35,5.55,5.55,0,0,0,1.33-2.55,2.35,2.35,0,0,0-.37-1.65C182.62,177.4,182.56,177.25,182.48,177.07Z"/><path class="cls-1" d="M.58.72H99c.2.77.24,97.75,0,98.85-.38,0-.79.06-1.2.06h-50c-7.17.52-14.35.17-21.52.23s-14.36,0-21.55,0c-1.36,0-2.73-.2-4.19-.32,0-.34-.06-.65-.06-1,0-2.91,0-5.81,0-8.71,0-3.2,0-6.39-.06-9.59,0-.27.07-.58-.28-.75-.1-.05-.16-.26-.18-.4a8.42,8.42,0,0,1,0-.87q0-15.34,0-30.69c0-.57-.26-1.23.4-1.65.07,0,.06-.25.06-.37,0-.33,0-.65,0-1V2.18C.52,1.7.56,1.23.58.72ZM63.16,76.23c.09.35.17.56.2.78a8,8,0,0,0,1.26,3.32c.48.76.94,1.54,1.44,2.29,1.73,2.6,3.44,5.22,5.24,7.77.83,1.19,1.88,2.21,2.77,3.35a7.47,7.47,0,0,0,3.14,2.75.56.56,0,0,0,.15-.08,47.34,47.34,0,0,0,5.4-5.91c2-2.72,4-5.35,6.06-8a12.67,12.67,0,0,0,2.61-5.54,2.86,2.86,0,0,1,.07-.28,9.35,9.35,0,0,0-.77-6.86c-.39-.74-.75-1.5-1.14-2.24A14.28,14.28,0,0,0,85,62.22a6.4,6.4,0,0,0-3.15-1.11c-.61,0-1.22,0-1.83-.07a6.54,6.54,0,0,1-1.9-.2c.06-.15.06-.26.12-.32a26.18,26.18,0,0,1,3-3.18,3.58,3.58,0,0,0,.61-.62,34.11,34.11,0,0,0,5.79-10c.84-2.5,1.51-5.06,2.25-7.6a3.55,3.55,0,0,0,.08-.47,19.26,19.26,0,0,0-1-9.43c-1.6-4.12-3.2-8.26-6.21-11.63l-.06-.08a11.42,11.42,0,0,0-3-3.1A28.26,28.26,0,0,0,73,10.53,32,32,0,0,0,66.53,9a14.8,14.8,0,0,0-3.26,0c-1.06.07-2.11.3-3.16.47a18.93,18.93,0,0,0-8.6,3.47c-2,1.52-4,3.15-5.91,4.83C43,20,40.53,22.37,38,24.69q-2.51,2.26-5.1,4.44c-1.15,1-2.42,1.82-3.54,2.83-5.06,4.56-10.47,8.68-15.8,12.9q-5,4-10.1,8a1.56,1.56,0,0,0-.67,1.39c0,2.32,0,4.64,0,7,0,1.25,0,2.51,0,3.77-.06,2.38-.13,4.77-.19,7.16,0,1-.06,2-.08,3-.07,2.58-.22,5.16-.19,7.74,0,3,.29,6,.38,9a35.82,35.82,0,0,0,.56,5.38c.11.59.24.75.81.73,1.83,0,3.67-.12,5.5-.16.84,0,1.67,0,2.51,0,1.51.06,3,.22,4.53.18,2.28,0,4.56-.25,6.84-.38,1.35-.07,2.7-.09,4-.19,3.37-.23,6.75-.39,10.13-.32a19.59,19.59,0,0,0,2,0,2.32,2.32,0,0,0,1.51-.53c2.08-1.93,4.2-3.81,6.29-5.73s4.33-4,6.46-6c2.64-2.51,5.24-5,7.87-7.58.25-.24.51-.48.79-.7A4.76,4.76,0,0,1,63.16,76.23ZM23.24,43.91c.3.34.55.6.76.87q3.26,4.26,6.52,8.53c5.66,7.4,11.28,14.83,17.23,22,.39.47.77,1,1.13,1.45s.45.68,0,1.32A40.23,40.23,0,0,1,42,84.75c-4.34,3.55-8.7,7.08-13,10.65a3.77,3.77,0,0,1-2.64.93c-2.79-.06-5.6-.11-8.39-.08-2.16,0-4.31.18-6.47.26-.32,0-.64,0-1,0-.9,0-1.8-.09-2.7-.09a6.66,6.66,0,0,0-3.35.44c-.41-.16-.42-.45-.43-.74-.06-2.52-.19-5-.16-7.55.06-4.51-.14-9-.13-13.53,0-3.48.09-7,.13-10.45,0-1.58,0-3.16,0-4.74a1.58,1.58,0,0,1,.59-1.35c3.72-3,7.39-6,11.13-9,2.24-1.78,4.58-3.44,6.88-5.15A7.87,7.87,0,0,1,23.24,43.91Zm5.18,11.81a1.84,1.84,0,0,0-1.47.66,3,3,0,0,0-.7,1.75,1.75,1.75,0,0,0,2.8,1.7,3.1,3.1,0,0,0,1.16-1.5A1.75,1.75,0,0,0,28.42,55.72Zm6.88,8.44a1.72,1.72,0,0,0-1.52.86,7.73,7.73,0,0,0-.49,1,1.74,1.74,0,0,0,2,2.39,2.17,2.17,0,0,0,0-4.3ZM83.75,35.83a13,13,0,0,1-.43,4,6.89,6.89,0,0,1-.76,1.76c-.85,1.33-1.77,2.62-2.66,3.92-1.16,1.67-2.34,3.32-3.45,5a15,15,0,0,1-2.92,3.34c-2.75,2.33-5.53,4.63-8.31,6.93-.53.44-1.07.84-1,1.66A.8.8,0,0,1,64,63c-.71.56-1.45,1.08-2.17,1.62a.58.58,0,0,1-.86-.08,1.53,1.53,0,0,1-.29-.38,22.37,22.37,0,0,0-2.79-3.71c-1.92-2.29-3.91-4.54-5.8-6.87-2.25-2.78-4.4-5.63-6.62-8.44q-2.74-3.49-5.54-7c-1.23-1.53-2.5-3-3.75-4.55-.59-.73-.55-.89.17-1.48,1.67-1.37,3.31-2.77,5-4.14a10.46,10.46,0,0,1,1-.74c.41-.26.84-.47,1-1,0-.14.18-.26.3-.37.93-.84,1.85-1.69,2.8-2.51,1.17-1,2.34-2,3.57-3s2.59-1.9,3.91-2.82a7.5,7.5,0,0,1,1.43-.81c1.33-.57,2.68-1.1,4-1.62a9.24,9.24,0,0,1,5.23-.35l3.4.71a26.35,26.35,0,0,1,7.54,3.16,14.65,14.65,0,0,1,3.59,3.21c.23.27.45.54.69.81a14.55,14.55,0,0,1,3.4,6.74A28.13,28.13,0,0,1,83.75,35.83Zm-3.92-.55c-.13-1-.25-2-.4-3a13.61,13.61,0,0,0-1.34-5.2c-.28-.47-.46-1-.78-1.44-.77-1.06-1.61-2.09-2.41-3.14a4.11,4.11,0,0,0-1.74-1.31,8.08,8.08,0,0,1-1.92-1.09,4.89,4.89,0,0,0-2-.94c-.94-.22-1.88-.42-2.81-.67a6.52,6.52,0,0,0-2.78-.11c-.76.13-1.53.21-2.29.34a12.8,12.8,0,0,0-2.14.5,28.68,28.68,0,0,0-5.85,3.15,65.46,65.46,0,0,0-7,5.73,6.1,6.1,0,0,1-.73.63,19.91,19.91,0,0,0-2.07,2.14,1,1,0,0,0-.17.35,2.14,2.14,0,0,0,.28,2.18c1,1.35,1.93,2.73,2.87,4.12.38.56.7,1.16,1,1.73.2.34.41.68.86.7a1.53,1.53,0,0,1,1.1.71l2.15,2.74c3.12,4,6.49,7.84,9.44,12a15.58,15.58,0,0,0,1.69,1.85c.41.42.54.44,1,.08,1.14-.9,2.26-1.81,3.37-2.75.76-.64,1.45-1.36,2.22-2a30.58,30.58,0,0,0,9.43-14.13,4.72,4.72,0,0,1,.38-1A4.23,4.23,0,0,0,79.83,35.28ZM53,52.39l.19,0A2.16,2.16,0,0,0,54.79,50c-.15-.66-1-1.22-1.55-1a2.38,2.38,0,0,0-1.46,1.69A1.34,1.34,0,0,0,53,52.39ZM44.05,41a1.62,1.62,0,0,0,1.68,1.7,1.48,1.48,0,0,0,1.4-1.54c.08-1.09-.7-1.46-1.76-1.59C44.6,39.52,44.07,40.17,44.05,41ZM87.6,73.51a6.28,6.28,0,0,1-1.08,5c-1.3,2-2.62,4-4,5.93a21,21,0,0,1-2,2.35,7.31,7.31,0,0,1-2.66,1.72,2.87,2.87,0,0,1-3.26-1c-1.14-1.56-2.26-3.13-3.45-4.65a18.54,18.54,0,0,1-2.68-5.33A15.37,15.37,0,0,1,68,75.28a1.89,1.89,0,0,1,0-.58c.08-.6.22-1.2.27-1.81a8.32,8.32,0,0,1,3.84-6.39,7,7,0,0,1,2.34-1.09c1-.23,1.9-.56,2.85-.86a2.25,2.25,0,0,1,1.51.1,15.13,15.13,0,0,0,1.76.45c.94.2,1.9.34,2.83.6a2.75,2.75,0,0,1,1.23.7,9.47,9.47,0,0,1,2.59,4,9.43,9.43,0,0,1,.33,3.1ZM77.73,88a2.8,2.8,0,0,0,.48-.26c.87-.9,1.76-1.79,2.59-2.73,1.62-1.83,2.82-4,4.42-5.83a1.9,1.9,0,0,0,.2-.34c1.4-2.69,2.19-7.73-1-10.94a3.74,3.74,0,0,0-2-1.25c-1.11-.19-2.22-.36-3.33-.54a6.72,6.72,0,0,0-2.68.13A9.23,9.23,0,0,0,73,67.92a6.77,6.77,0,0,0-2.62,5.27,18,18,0,0,0,.59,4.4,2.39,2.39,0,0,0,.75,1.3,6.74,6.74,0,0,1,1.39,1.72c1.09,1.74,2.17,3.5,3.27,5.25C76.77,86.56,77.25,87.23,77.73,88ZM34.12,34.58a5.73,5.73,0,0,0,0,1.31,6.56,6.56,0,0,0,1.21,2.91c.58.65,1.07,1.37,1.61,2.05,1.49,1.87,3,3.72,4.48,5.59C43.21,48.69,45,51,46.74,53.21c.5.63,1,1.25,1.48,1.91.93,1.31,1.78,2.69,2.75,4,1.56,2,3.15,4.08,4.8,6.07,1.11,1.33,2.34,2.57,3.53,3.84.07.07.21.08.44.16a14.48,14.48,0,0,1,0-2,2.35,2.35,0,0,0-.58-1.87c-4.37-5.55-8.71-11.11-13.07-16.67-.82-1-1.67-2.05-2.51-3.06-.35-.42-.76-.79-1.1-1.22-2.42-3-4.82-6.05-7.24-9.06a7.79,7.79,0,0,0-.88-.84ZM62.84,69.77,67.08,66a63.31,63.31,0,0,0,5.16-4.8c1.73-1.91,3.46-3.82,5.22-5.71a18,18,0,0,0,3.12-4.4c.85-1.74,1.58-3.53,2.33-5.31a9,9,0,0,0,.35-1.38,1.26,1.26,0,0,0-.59.51c-.81,1.23-1.58,2.51-2.45,3.7s-1.74,2.08-2.58,3.14c-2.89,3.64-6.36,6.75-9.46,10.2a33.29,33.29,0,0,1-3.36,2.9c-.91.77-1.84,1.52-2.74,2.3a1.52,1.52,0,0,0-.55.76,9.56,9.56,0,0,0,.09,3ZM49.25,79.45c-.17.13-.36.24-.52.38l-4.82,4.31-5,4.43c-.68.6-1.33,1.22-2,1.8-2.07,1.73-4.17,3.44-6.25,5.17a4.42,4.42,0,0,0-.48.58,5.67,5.67,0,0,0,.87.09c.77,0,1.54-.07,2.31-.08a2.29,2.29,0,0,0,1.56-.65c.69-.63,1.43-1.2,2.15-1.79,1-.82,2-1.62,3-2.47q3.44-3,6.83-6c.75-.65,1.52-1.3,2.24-2a1.48,1.48,0,0,0,.53-.86c0-1-.09-1.9-.15-2.85Zm28.8-42.78a13.81,13.81,0,0,0-.89-6.55.9.9,0,0,0-.47-.55c-.58-.14-.72-.57-.85-1.05a12.77,12.77,0,0,0-3.37-5.34,10.93,10.93,0,0,0-4-2.37,11.17,11.17,0,0,0-4.9-.85,15.11,15.11,0,0,0-7.37,2.33,25.05,25.05,0,0,0-4.27,3.29c-1.34,1.35-2.81,2.56-4.22,3.83L45.6,31.29l-1.26,1.12a7.48,7.48,0,0,0,2.38,3c.36-.38.71-.8,1.11-1.17q2.76-2.57,5.54-5.11a46.75,46.75,0,0,1,6-4.42,6.77,6.77,0,0,1,3.33-1.19c.77,0,1.53-.19,2.3-.2a7.53,7.53,0,0,1,1.71.18,12.45,12.45,0,0,1,1.57.5,5.28,5.28,0,0,1,2,1.27c.85.82,1.77,1.59,2.6,2.44a6.52,6.52,0,0,1,1.23,1.59c.82,1.61,1.55,3.26,2.31,4.9a8.25,8.25,0,0,1,.68,3.29c0,.55,0,1.09,0,1.83A6.19,6.19,0,0,0,78.05,36.67Zm.71,44.64A6.52,6.52,0,0,1,72,76a7.82,7.82,0,0,1,2.35-7.68,3.45,3.45,0,0,1,1.56-.92,3.58,3.58,0,0,0,.55-.19c2.32-1.06,4.51-.43,6.54.72a6.31,6.31,0,0,1,2.76,3.84,4.55,4.55,0,0,1-.15,3.49c-.47.94-.91,1.91-1.43,2.84A6.28,6.28,0,0,1,78.76,81.31Zm-4.55-6.42a2.59,2.59,0,0,0,1.14,2.66,4.08,4.08,0,0,1,.43.39,3.21,3.21,0,0,0,2.47.91,4.12,4.12,0,0,0,3.16-1.39,6.41,6.41,0,0,0,1.37-2.73,3.54,3.54,0,0,0-1.88-4.21l-.43-.22a3.74,3.74,0,0,0-5.26,1.53,3.75,3.75,0,0,1-.4.66A3.33,3.33,0,0,0,74.21,74.89Zm3.59-3.13a3.07,3.07,0,0,0-1.62,4.35,2.52,2.52,0,0,0,1.14,1,2.86,2.86,0,0,0,3.85-2.74C81.22,72.18,79.8,71.12,77.8,71.76Z"/></g></g></svg>